<svg width="107" height="93" viewBox="0 0 107 93" fill="none" xmlns="http://www.w3.org/2000/svg">
<g>
<path opacity="0.5" d="M74.3906 33.1575C74.0785 33.1575 73.9576 33.4564 73.7261 33.587C73.2579 33.8382 72.9559 33.8382 72.6136 33.4187C72.2713 32.9992 71.9517 32.8083 71.4382 33.0294C71.3673 33.0634 71.286 33.0682 71.2116 33.0429C71.1372 33.0175 71.0757 32.9639 71.0405 32.8937C70.7712 32.1603 70.2502 32.2959 69.7519 32.5245C69.0874 30.8718 69.6386 29.3094 69.8979 27.7521C70.5472 23.8137 71.554 19.9505 72.455 16.0673C72.9182 14.0755 73.0767 12.0485 73.4744 10.039C73.5927 9.45129 73.8091 8.87861 73.8217 8.25569C73.4241 8.27578 73.3561 8.55962 73.2403 8.79824C72.9524 9.40381 72.7232 10.0355 72.5557 10.6846C72.4727 10.996 72.3241 11.1342 71.9693 11.0714C71.7453 11.0312 71.6522 10.981 71.6496 10.7499C71.6496 10.4585 71.8007 10.1621 71.6194 9.82052C69.5103 12.164 67.9347 14.8114 66.4673 17.5342C64.114 21.9022 62.5863 26.5942 60.9931 31.2611C60.7177 32.1008 60.389 32.9221 60.009 33.7201C59.7976 34.1521 59.5761 34.652 58.9116 34.3154C58.7606 34.2375 58.6171 34.3405 58.5089 34.4561C58.4007 34.5716 58.2572 34.6746 58.1138 34.5565C57.4317 33.9512 56.6841 34.3179 55.9593 34.3958C55.7076 34.4234 55.4735 34.4611 55.3577 34.1622C55.3351 34.1044 55.3276 34.0215 55.2873 33.9964C54.2 33.3835 54.3157 32.4316 54.6052 31.4696C54.3535 31.1606 54.0288 31.5851 53.8501 31.2962C53.7059 31.1011 53.5739 30.8973 53.455 30.6859C52.4477 28.6336 51.727 26.4531 51.3131 24.2055C50.6642 20.6709 50.223 17.1014 49.9917 13.5154C49.9615 13.0306 49.891 12.5483 49.8432 12.0636C49.6721 10.5487 49.6544 9.02053 49.7904 7.50215C49.287 8.82586 49.1612 10.2224 48.9699 11.5989C48.3863 15.948 48.1439 20.3361 48.245 24.7229C48.2651 25.7553 48.318 26.7901 48.3658 27.8225C48.3852 28.0482 48.3594 28.2755 48.2898 28.4911C48.2202 28.7067 48.1083 28.9064 47.9606 29.0784C47.7769 29.2969 47.6082 29.4928 47.286 29.4576C47.1806 29.4319 47.0701 29.4357 46.9667 29.4685C46.8633 29.5013 46.7709 29.5618 46.6996 29.6435C46.4479 30.0052 46.1962 29.9851 45.859 29.7666C45.767 29.7071 45.6577 29.6802 45.5486 29.6902C45.4395 29.7003 45.337 29.7466 45.2574 29.8218C45.1629 29.9223 45.0385 29.9899 44.9026 30.0148C44.7668 30.0396 44.6265 30.0204 44.5024 29.96C44.3312 29.8871 44.223 29.9801 44.1298 30.1207C43.848 30.5502 43.4956 30.4925 43.2364 30.1459C42.8387 29.6134 42.3026 29.214 41.9502 28.6388C40.2186 25.7703 38.5927 22.8391 36.9642 19.9104C36.8208 19.6592 36.7302 19.3452 36.3677 19.197C36.2897 19.6341 36.4508 20.0033 36.5464 20.365C37.3619 23.4268 37.9232 26.5389 38.4568 29.6586C38.5348 30.1182 38.6934 30.5477 38.4089 30.9521C38.07 31.3844 37.6405 31.7376 37.1505 31.987C36.8761 32.1402 36.3954 31.9217 36.33 32.4718C36.33 32.5019 36.2067 32.5572 36.1765 32.5396C35.6026 32.1879 35.3056 32.7129 34.9004 32.9189C34.7726 33.001 34.6175 33.0296 34.4687 32.9986C34.3199 32.9676 34.1893 32.8794 34.1051 32.7531C32.0513 30.3769 29.9832 28.015 27.9009 25.6674C27.3019 24.9942 26.6097 24.4115 25.827 23.6579C26.0006 24.2381 26.5267 24.429 26.582 25.0645C23.6549 23.4821 21.664 21.0457 19.4567 18.7474C19.2981 19.2221 19.5423 19.5235 19.6807 19.8174C20.5596 21.7335 21.167 23.7624 21.4853 25.8457C21.5105 25.9964 21.5205 26.1471 21.5457 26.2978C21.6791 27.1167 21.5105 27.8049 20.7328 28.247C20.6243 28.31 20.5307 28.3957 20.4584 28.4981C19.6077 29.6561 18.4122 29.7113 17.1865 29.4626C14.886 28.998 12.5956 28.473 10.3027 27.9706C10.1551 27.9153 9.99232 27.9153 9.84465 27.9706C9.88996 28.0485 9.91514 28.154 9.9831 28.1967C10.8474 28.7732 11.6362 29.4549 12.3314 30.2262C14.2794 32.2985 16.6806 33.7427 19.0615 35.2322C20.2562 35.9697 21.3983 36.7888 22.4795 37.6837C22.774 37.9349 23.1389 38.1459 23.0886 38.7587C21.5961 38.2765 20.4635 37.2065 19.0313 36.7217C19.5523 37.523 20.32 38.0831 21.0273 38.6809C21.7823 39.3264 22.6456 39.8765 23.4711 40.4391C24.2628 41.0093 25.0193 41.6266 25.7364 42.2878C25.8782 42.3988 25.9824 42.5506 26.0351 42.7226C26.0877 42.8946 26.0863 43.0787 26.0308 43.2498C25.823 44.0331 25.7006 44.8365 25.6659 45.646C25.6457 46.9421 24.7975 48.0624 23.2094 48.0096C21.7445 47.9619 20.2797 47.9946 18.8149 47.9895C17.3535 48.0171 15.8944 48.1177 14.443 48.291C13.4791 48.3864 12.5 48.311 11.526 48.4618L15.2359 48.6426C18.2838 48.7883 21.3343 48.8159 24.3772 49.0771C24.6201 49.0968 24.8604 49.1406 25.0945 49.2077C25.2144 49.237 25.3194 49.3092 25.3895 49.4106C25.4596 49.512 25.4898 49.6356 25.4746 49.7578C25.4595 50.009 25.2984 50.1045 25.0744 50.1848C24.0274 50.5616 24.0274 50.5691 23.2773 50.436C23.5869 50.8027 24.1885 50.6872 24.5761 51.177C24.1381 51.2825 23.7556 51.3829 23.3705 51.4683C23.2874 51.4859 23.1188 51.4684 23.1188 51.4483C22.9401 50.6169 22.3083 51.1041 21.8905 51.0464C18.7167 50.5993 15.5077 50.544 12.3263 50.2928C10.5016 50.1446 8.66928 50.0994 6.84201 49.9864C6.38897 49.9588 6.13978 50.22 5.8151 50.5114C6.00343 50.6718 6.22208 50.7929 6.45812 50.8675C6.69415 50.9421 6.94281 50.9688 7.18934 50.9459C7.81857 50.8806 7.87897 50.9208 8.56608 51.3629C8.64154 51.4066 8.72548 51.4337 8.8123 51.4423C8.89912 51.451 8.98682 51.441 9.06946 51.4131C9.89249 51.2122 10.6023 51.6643 11.3699 51.7698C11.6392 51.8049 11.5335 52.1917 11.8154 52.1641C12.0293 52.1415 12.276 52.0285 12.4446 52.1013C12.9431 52.309 13.4619 52.4648 13.9925 52.566C17.5766 53.3195 21.1229 54.2087 24.6164 55.3038C25.6272 55.6446 26.6179 56.0421 27.5838 56.4944C28.0871 56.7155 28.3011 57.0571 28.2055 57.5695C28.0771 58.2527 28.3539 58.9736 28.0142 59.6367C27.994 59.6944 27.994 59.7573 28.0142 59.815C28.3665 60.9805 27.6115 61.5004 26.7557 61.9199C25.3937 62.5358 23.9879 63.0504 22.55 63.4596C19.3258 64.4794 16.0891 65.469 12.8977 66.5918C12.2936 66.8053 11.6744 66.9686 11.0628 67.162C10.9673 67.1736 10.8757 67.2065 10.7947 67.2582C10.7136 67.31 10.6453 67.3792 10.5947 67.4609C10.9873 67.7974 11.4832 67.8075 11.9513 67.8753C15.1201 68.3249 18.2964 68.7318 21.4299 69.4125C22.4132 69.6285 23.3804 69.9121 24.3244 70.2615C25.0241 70.5127 25.467 70.9271 25.5451 71.7686C25.5785 72.4919 25.6626 73.212 25.7968 73.9237C25.9855 74.75 25.5778 75.5262 24.8882 76.0838C24.05 76.7645 23.0533 77.1614 22.0894 77.616C18.9986 79.0728 15.8122 80.3061 12.6434 81.5746C11.2239 82.1422 9.8371 82.7676 8.61641 83.6895C8.3658 83.8629 8.10051 84.0142 7.82358 84.1416C6.64315 84.7143 5.39981 85.1463 4.27979 85.8446C4.10109 85.9576 3.87961 86.0757 3.68077 85.9375C3.48194 85.7994 3.60276 85.5607 3.60276 85.3523C3.60276 84.1617 4.31505 83.5061 5.30167 83.0389C5.54587 82.9119 5.78205 82.7702 6.0089 82.6144C6.42419 82.3507 6.7111 82.0945 6.71865 81.4816C6.71865 80.6377 7.22204 80.0499 8.04507 79.6028C10.5771 78.2389 13.2677 77.2518 15.9003 76.1215C17.6093 75.388 19.2981 74.6144 20.9492 73.7529C21.0801 73.6851 21.2386 73.6398 21.2563 73.4515C20.3275 73.1048 19.3384 73.2179 18.382 73.0697C16.001 72.6979 13.6351 72.2257 11.2315 72.0172C9.89751 71.9017 8.56606 71.7384 7.22455 71.8037C6.12215 71.859 5.03487 71.6832 3.94002 71.6329C3.27615 71.6443 2.62008 71.4888 2.03219 71.1808C1.7956 71.0452 1.01035 69.7265 1.14627 69.6109C1.61441 69.2066 1.39795 68.8423 1.19911 68.4354C1.1797 68.3786 1.17258 68.3184 1.17822 68.2586C1.18386 68.1989 1.20214 68.141 1.23183 68.0888C1.48352 67.6543 1.51624 67.1695 1.57665 66.6847C1.65719 66.0643 1.97935 65.7302 2.64633 65.5419C8.16589 63.9971 13.6351 62.2765 19.1597 60.7519C20.6522 60.34 22.1095 59.7974 23.738 59.2649C23.4007 59.1117 23.2094 59.0137 23.003 58.9359C20.549 58.1045 18.2209 56.944 15.704 56.3035C12.1803 55.4144 8.66843 54.5051 5.16827 53.5757C4.31504 53.3522 3.48194 53.0533 2.65137 52.7745C2.23383 52.6667 1.85683 52.4398 1.56657 52.1214C1.41807 51.9381 1.17395 51.599 1.23687 51.506C1.71508 50.7927 0.698238 50.2225 1.09339 49.5293C1.23956 49.2776 1.32722 48.9964 1.34987 48.7064C1.37253 48.4165 1.3296 48.1251 1.22427 47.8539C0.972585 47.1707 1.42312 46.6181 1.5842 46.0153C1.70502 45.5632 2.19328 45.5632 2.54313 45.4049C4.21183 44.6514 5.90572 43.9606 7.72041 43.6266C10.7836 43.0693 13.8851 42.7468 16.9977 42.662C17.3551 42.662 17.7125 42.6294 18.0548 42.6118C18.0699 42.4862 18.1051 42.4033 18.0799 42.3782C16.7636 40.9842 15.4649 39.5726 14.1133 38.2087C12.8247 36.9101 11.4957 35.6542 10.1643 34.3983C8.3169 32.6576 6.68342 30.7261 4.98955 28.8473C4.51889 28.3248 4.30246 27.6291 3.79153 27.1317C3.73364 27.074 3.67069 26.9283 3.70089 26.8805C3.97723 26.4324 4.11956 25.9147 4.11115 25.3885C4.8335 25.0419 4.86622 24.1829 5.3998 23.673C5.53268 23.5144 5.7023 23.3906 5.89396 23.3123C6.08562 23.2339 6.29354 23.2034 6.49969 23.2234C9.94285 23.509 13.3591 24.0573 16.7183 24.8636C16.8945 24.9385 17.0917 24.9483 17.2745 24.8912C17.3928 24.6852 17.2519 24.5019 17.1739 24.321C15.6134 20.6388 14.5311 16.8008 13.4766 12.9552C13.2677 12.2017 13.3054 11.5411 14.0303 11.0186C14.4053 10.7474 14.6343 10.3354 15.178 10.2325C15.5228 10.1672 15.6813 9.66982 16.0438 9.47892C16.2299 9.34971 16.4526 9.28362 16.6792 9.2904C16.9058 9.29719 17.1242 9.37649 17.3022 9.51661C19.1153 10.7028 20.866 11.9813 22.5474 13.3471C25.1626 15.4965 27.6274 17.822 29.9245 20.3072C30.629 21.069 31.2815 21.8771 31.8776 22.7261C31.9909 22.8868 32.0487 23.1279 32.3508 23.1204C32.4187 22.6457 32.1821 22.2338 32.0588 21.8118C31.2282 18.9735 30.7098 16.0648 30.1082 13.1738C29.9043 12.1917 29.6577 11.2171 29.4337 10.24C29.1423 9.04492 28.9786 7.82239 28.9454 6.59289C28.9454 6.17091 29.0511 5.85192 29.4941 5.79415C29.9371 5.73637 30.0881 5.45255 30.3473 5.19132C30.9967 4.53575 31.8575 4.31219 32.751 4.27703C33.204 4.25945 33.5337 4.59602 33.8408 4.8899C34.553 5.55978 35.1545 6.33803 35.6227 7.19572C37.7143 11.0865 39.8235 14.9647 42.0484 18.7826C42.3647 19.4003 42.7588 19.9752 43.2213 20.4931C43.4589 20.0964 43.5922 19.6463 43.6089 19.1844C43.8606 17.0645 44.0493 14.9421 44.3388 12.8322C44.7994 9.44879 45.4135 6.09807 46.6795 2.90057C46.8966 2.26483 47.2882 1.70266 47.8096 1.27796C47.954 1.14935 48.13 1.06116 48.3196 1.02234C48.5092 0.983518 48.7058 0.99545 48.8893 1.05692C49.3524 1.17749 49.7652 1.52914 50.3491 1.19005C50.6184 1.03432 51.1042 1.37592 51.5522 1.40104C52.0556 1.42867 52.121 1.96619 52.262 2.36054C52.3156 2.48696 52.3939 2.60142 52.4925 2.69718C52.591 2.79294 52.7078 2.86807 52.8358 2.91815C53.1289 3.07044 53.3858 3.28383 53.589 3.54385C53.7922 3.80387 53.9371 4.10445 54.0137 4.42522C54.481 5.7774 55.0161 7.1053 55.617 8.40389C57.0805 11.7545 58.1718 15.255 58.8713 18.8428C59.1204 20.3034 59.2207 21.7854 59.1708 23.2661C59.5786 23.1455 59.5836 22.7914 59.6591 22.5527C60.5149 19.8325 61.8463 17.3282 63.1828 14.8391C65.1963 11.1216 67.6251 7.7031 70.8015 4.85976C71.1186 4.57593 71.4005 4.25191 71.7025 3.9505C72.0045 3.64909 72.231 3.29241 72.1178 2.82773C72.7093 2.82773 73.263 2.94327 73.784 2.6921C73.9324 2.6116 74.1027 2.58037 74.2702 2.60296C74.4376 2.62554 74.5935 2.70075 74.7152 2.81768C74.8999 3.00092 75.123 3.14101 75.3685 3.22787C75.6139 3.31474 75.8756 3.34622 76.1347 3.32004C76.3035 3.29766 76.475 3.32497 76.6284 3.39859C76.7818 3.47222 76.9103 3.58897 76.9981 3.73448C77.0509 3.80984 77.1012 3.91031 77.1742 3.94045C78.0778 4.30215 78.0249 5.05317 78.0174 5.83182C77.9796 9.65726 77.3781 13.4099 76.6658 17.1524C76.243 19.3653 75.7346 21.5606 75.1985 23.7483C75.1348 23.8853 75.124 24.041 75.1683 24.1854C75.42 24.2507 75.4854 24.0523 75.5836 23.9141C78.2948 20.104 81.5627 16.7207 85.2786 13.8771C85.9309 13.3255 86.6396 12.8439 87.3928 12.4403C87.6143 12.3323 87.8962 12.1314 88.0699 12.3172C88.762 13.0155 89.9223 13.013 90.4483 13.9499C90.7 14.3995 91.0172 14.8089 91.2991 15.2409C91.4321 15.4829 91.4782 15.763 91.4299 16.0347C91.3472 16.7007 91.1496 17.3473 90.846 17.9461C89.4265 21.1185 87.2997 23.8338 85.2661 26.6118C83.0009 29.7138 80.4084 32.5572 77.8613 35.4332C77.8091 35.5025 77.762 35.5755 77.7204 35.6517C77.9041 35.9029 78.0602 35.6894 78.1835 35.6266C81.8246 33.7729 85.4615 31.9108 89.0943 30.0404C90.5339 29.2868 91.8251 28.3123 93.1641 27.413C94.5484 26.4837 95.8748 25.4689 97.3346 24.6501C97.7947 24.3585 98.2399 24.0442 98.6686 23.7082C98.6239 23.8877 98.5394 24.0549 98.4213 24.1975C98.3033 24.3401 98.1547 24.4544 97.9865 24.532C95.4369 25.9311 93.3378 27.9782 90.836 29.4476C90.2187 29.8036 89.6243 30.1979 89.0565 30.6281C92.039 29.4551 94.5207 27.413 97.3119 25.9035C95.3236 27.7597 93.0332 29.2416 91.0197 31.0526C94.0752 29.1637 97.1106 27.2473 100 25.1097C96.655 28.2846 92.6783 30.6356 88.9785 33.6096C89.7336 33.582 90.1337 33.1675 90.6145 32.9339C91.0952 32.7003 91.5633 32.3838 92.0315 32.1C92.5187 31.7877 93.0228 31.5026 93.5416 31.246C93.02 31.8064 92.4278 32.2969 91.7798 32.7054C90.4738 33.6038 89.1166 34.4257 87.715 35.1669C85.7543 36.2168 83.8289 37.3346 81.8909 38.4322C80.8539 39.0175 79.7087 39.3842 78.707 40.0347C78.5384 40.1453 78.3672 40.2482 78.0652 40.4391H81.1207C83.8893 40.4391 86.6076 40.7255 89.2553 41.5292C90.3119 41.8335 91.3214 42.2815 92.2555 42.8605C92.9879 43.3277 93.6675 43.8928 94.0375 44.6639C94.7925 46.2589 95.0442 48.6828 93.4082 50.1321C91.9699 51.3586 90.3586 52.3674 88.6261 53.1261C85.4811 54.5409 82.1758 55.5698 78.7825 56.1905C77.738 56.394 76.6935 56.5823 75.4527 56.8059C77.6097 57.3585 79.5854 57.8433 81.5511 58.3732C84.3046 59.1268 86.9524 60.1014 89.3208 61.734C89.9555 62.158 90.5398 62.6526 91.0625 63.2084C91.2915 63.4596 91.5382 63.7309 91.4878 64.085C91.3645 64.9491 91.4878 65.8282 91.2739 66.6872C91.2343 66.9572 91.1241 67.2119 90.9542 67.4257C90.8832 67.4818 90.8286 67.5559 90.7963 67.6404C90.764 67.7248 90.7551 67.8164 90.7705 67.9054C90.9492 68.7343 90.476 69.2091 89.8191 69.5733C89.0655 69.9783 88.2566 70.2711 87.418 70.4423C85.4015 70.926 83.3585 71.2925 81.2994 71.54C81.2382 71.5554 81.1796 71.58 81.1257 71.6128C81.2516 71.9695 81.5662 71.864 81.8179 71.8891C84.2467 72.1403 86.6478 72.5372 88.9432 73.4138C89.1168 73.4757 89.2725 73.579 89.397 73.7146C89.5215 73.8503 89.6109 74.0142 89.6575 74.1921C89.7042 74.3701 89.7066 74.5567 89.6646 74.7357C89.6225 74.9148 89.5374 75.081 89.4164 75.2197C89.3409 75.3177 89.2 75.4332 89.283 75.5086C89.7864 75.9657 89.1295 76.3877 89.2604 76.8574C89.3359 77.1362 89.0087 77.3899 88.757 77.5783C88.1381 78.087 87.3431 78.3316 86.5446 78.259C84.8393 78.1507 83.1433 77.9274 81.4681 77.5909C79.0191 77.0559 76.5148 76.8976 74.0306 76.6263C72.2046 76.4676 70.4114 76.0445 68.7074 75.3705C68.334 75.2351 67.9834 75.0437 67.6679 74.8028C67.4162 74.5918 67.2224 74.3632 67.5169 74.0493C67.5547 74.0116 67.5844 73.9667 67.6044 73.9172C67.6243 73.8678 67.634 73.8148 67.6328 73.7615C67.6316 73.7082 67.6196 73.6557 67.5975 73.6072C67.5755 73.5586 67.5437 73.515 67.5043 73.4791C67.2904 73.1902 67.1696 72.8913 67.5194 72.6C67.7082 72.4417 67.6327 72.2182 67.6553 72.0097C67.7283 71.3541 67.98 70.7337 68.1184 70.0857C68.2241 69.6059 68.8584 69.4929 69.3341 69.3924C70.6152 69.1161 71.8988 68.8474 73.19 68.6188C76.8244 67.9733 80.489 67.5613 84.1083 66.7802C85.1151 66.5591 86.1218 66.3029 87.1286 66.0618C87.2139 66.0543 87.2958 66.0253 87.3667 65.9774C87.4377 65.9295 87.4952 65.8643 87.5338 65.788C87.267 65.4338 86.8517 65.2455 86.4717 65.0345C83.9699 63.5676 81.229 62.7437 78.4352 62.058C76.0366 61.4703 73.6028 61.0533 71.1765 60.5761C70.3107 60.4103 69.4574 60.1692 68.6092 59.928C68.1964 59.8069 67.8174 59.5919 67.5018 59.3001C67.2929 59.1067 67.0362 58.8153 67.1545 58.6018C67.5698 57.8483 67.0865 57.0947 67.2426 56.3412C67.381 55.663 67.7459 55.0301 67.6629 54.3016C67.6402 54.1032 67.8693 54.0228 68.0228 53.9274C68.4417 53.6719 68.9069 53.5012 69.392 53.425C72.2486 52.9403 75.123 52.566 77.962 51.9808C81.8305 51.1845 85.5907 50.0643 89.1018 48.2131C89.5075 48.0025 89.9 47.7677 90.2772 47.5098C90.8939 47.0853 90.8636 46.8618 90.174 46.5051C88.9504 45.8762 87.6316 45.452 86.2703 45.2492C83.1325 44.7411 79.9356 44.7123 76.7891 45.1638C75.0097 45.415 73.2076 45.5079 71.4156 45.6661C71.2343 45.6837 70.9575 45.7415 70.9122 45.5632C70.879 45.3584 70.7861 45.168 70.6451 45.0156C70.5041 44.8633 70.3212 44.7558 70.1194 44.7066C70.0816 44.7066 70.0489 44.5308 70.0741 44.4555C70.2125 44.0737 70.0187 43.8928 69.6965 43.7597C69.4272 43.6467 69.3769 43.5085 69.5279 43.1945C69.5949 43.0178 69.6107 42.8258 69.5733 42.6405C69.5359 42.4552 69.4469 42.2842 69.3165 42.1471C68.5312 41.4288 69.0849 40.738 69.3844 40.1754C69.6563 39.673 70.0061 39.3289 69.5455 38.7437C69.3618 38.5076 69.6613 38.3845 69.8953 38.4247C70.6504 38.5578 70.668 38.5503 70.5699 37.8193C70.561 37.7295 70.5743 37.6388 70.6085 37.5552C70.6427 37.4716 70.6969 37.3976 70.7662 37.3396C71.0833 37.008 71.3879 36.6664 71.7302 36.365C72.7218 35.4909 73.492 34.4234 74.3125 33.4061C74.3629 33.3459 74.3603 33.2404 74.383 33.155C74.5919 33.1324 74.68 32.959 74.7958 32.8234C77.6927 29.4024 80.3933 25.8306 83.0587 22.2287C83.167 22.083 83.3784 21.9499 83.2173 21.6435C82.9656 21.9147 82.7366 22.1458 82.5126 22.397C79.9076 25.273 77.6021 28.3826 75.3898 31.5575C75.0198 32.0623 74.5491 32.517 74.3906 33.1575ZM14.6469 64.2081C14 64.193 13.4413 64.4593 12.8851 64.7105C13.4765 64.5572 14.1712 64.7356 14.6469 64.2081C14.9917 64.2659 15.3139 64.2483 15.5379 63.9142C15.2333 64.0047 14.891 63.9645 14.6469 64.2081ZM57.2504 25.5091C57.3864 25.0068 57.3134 24.4843 57.5021 24.002C57.6716 23.5116 57.7567 22.9961 57.7538 22.4774C57.852 19.8275 57.2907 17.2805 56.5206 14.7738C55.5641 11.6667 54.1547 8.71785 53.2486 5.5932C53.1641 5.5991 53.0801 5.61001 52.9969 5.62585C54.2101 12.2871 55.3099 18.9684 57.2504 25.5091ZM54.575 30.3719C53.5682 26.1019 52.5162 21.8494 51.5824 17.5618C52.1009 21.9474 52.6445 26.3204 54.575 30.3719ZM21.5634 56.075C22.4971 56.7582 23.5366 57.0797 24.7145 56.8109C23.6247 56.7305 22.6532 56.2458 21.5634 56.075ZM11.6694 53.9902C12.2206 54.4247 12.2508 54.4323 12.8599 54.4297L11.6694 53.9902ZM22.6204 50.0467V50.1145H23.6272V50.0467H22.6204ZM23.9468 61.739C23.4863 61.6134 23.2497 61.7867 22.9728 61.94C23.3151 62.0555 23.5618 61.8721 23.9468 61.739ZM21.143 50.3431C21.2045 50.3829 21.2694 50.4173 21.3368 50.4461C21.4042 50.4748 21.4791 50.481 21.5503 50.4638C21.6215 50.4466 21.6852 50.4069 21.732 50.3506C21.7398 50.3266 21.7412 50.3009 21.7359 50.2762C21.7306 50.2515 21.7188 50.2287 21.7018 50.21C21.6236 50.1708 21.5375 50.1505 21.4501 50.1505C21.3627 50.1505 21.2765 50.1708 21.1984 50.21C21.1732 50.225 21.1682 50.2627 21.143 50.3431ZM14.2341 55.2335C14.2616 55.2184 14.2869 55.1998 14.3096 55.1783C14.3096 55.1783 14.2945 55.1305 14.2769 55.118C14.1115 54.9935 13.9102 54.9256 13.703 54.9246C13.6653 54.9246 13.6275 54.9723 13.5822 55.0049C13.7691 55.1441 13.9936 55.2238 14.2266 55.2335H14.2341ZM8.86558 67.2901C8.86558 67.177 8.80014 67.1469 8.71457 67.1469C8.57614 67.1469 8.41255 67.1469 8.37983 67.3252C8.37654 67.3465 8.37791 67.3682 8.38389 67.3889C8.38986 67.4096 8.4003 67.4287 8.41443 67.445C8.42856 67.4612 8.44607 67.4742 8.46574 67.483C8.48541 67.4918 8.50676 67.4963 8.52832 67.496C8.59937 67.5052 8.67138 67.489 8.73168 67.4504C8.79198 67.4119 8.8367 67.3533 8.85802 67.285L8.86558 67.2901ZM7.80345 53.0985C7.86386 53.2668 7.99475 53.2693 8.09794 53.312C8.20113 53.3547 8.32194 53.4326 8.34963 53.2467C8.34963 53.2015 8.23386 53.1211 8.16338 53.1035C8.04406 53.0881 7.92346 53.0847 7.80345 53.0935V53.0985ZM26.0283 60.9277C26.0006 60.8524 25.9503 60.8323 25.8874 60.8775C25.8244 60.9227 25.5174 60.9101 25.6206 61.0709C25.7238 61.2316 25.9251 61.1111 26.0208 60.9227L26.0283 60.9277ZM24.2136 57.582C24.1834 57.5519 24.1608 57.5016 24.1281 57.4991C24.045 57.4821 23.9594 57.4821 23.8764 57.4991C23.7958 57.5217 23.8009 57.5795 23.8764 57.6122C23.93 57.6383 23.9898 57.6493 24.0492 57.644C24.1087 57.6387 24.1655 57.6173 24.2136 57.582Z" fill="currentColor" fill-opacity="0.8"/>
<path opacity="0.5" d="M74.3905 33.1575C74.0785 33.1575 73.9576 33.4564 73.7261 33.587C73.2579 33.8382 72.9559 33.8382 72.6136 33.4187C72.2713 32.9992 71.9516 32.8083 71.4382 33.0294C71.3673 33.0634 71.286 33.0682 71.2116 33.0429C71.1372 33.0175 71.0757 32.9639 71.0405 32.8937C70.7712 32.1603 70.2502 32.2959 69.7519 32.5245C69.0874 30.8718 69.6386 29.3094 69.8979 27.7521C70.5472 23.8137 71.554 19.9505 72.455 16.0673C72.9181 14.0755 73.0767 12.0485 73.4744 10.039C73.5927 9.45129 73.8091 8.87861 73.8217 8.25569C73.4241 8.27578 73.3561 8.55962 73.2403 8.79824C72.9524 9.40381 72.7232 10.0355 72.5557 10.6846C72.4727 10.996 72.3242 11.1342 71.9693 11.0714C71.7453 11.0312 71.6522 10.981 71.6496 10.7499C71.6496 10.4585 71.8007 10.1621 71.6194 9.82052C69.5103 12.164 67.9347 14.8114 66.4673 17.5342C64.114 21.9022 62.5863 26.5942 60.9931 31.2611C60.7177 32.1008 60.389 32.9221 60.009 33.7201C59.7976 34.1521 59.5761 34.652 58.9116 34.3154C58.7606 34.2375 58.6171 34.3405 58.5089 34.4561C58.4007 34.5716 58.2572 34.6746 58.1138 34.5565C57.4317 33.9512 56.6841 34.3179 55.9593 34.3958C55.7076 34.4234 55.4735 34.4611 55.3577 34.1622C55.3351 34.1044 55.3276 34.0215 55.2873 33.9964C54.2 33.3835 54.3157 32.4316 54.6052 31.4696C54.3535 31.1606 54.0288 31.5851 53.8501 31.2962C53.7059 31.1011 53.5739 30.8973 53.455 30.6859C52.4477 28.6336 51.727 26.4531 51.3131 24.2055C50.6642 20.6709 50.223 17.1014 49.9917 13.5154C49.9615 13.0306 49.891 12.5483 49.8432 12.0636C49.6721 10.5487 49.6544 9.02053 49.7904 7.50215C49.287 8.82586 49.1612 10.2224 48.9699 11.5989C48.3863 15.948 48.1439 20.3361 48.245 24.7229C48.2651 25.7553 48.318 26.7901 48.3658 27.8225C48.3852 28.0482 48.3594 28.2755 48.2898 28.4911C48.2202 28.7067 48.1083 28.9064 47.9606 29.0784C47.7769 29.2969 47.6082 29.4928 47.286 29.4576C47.1806 29.4319 47.0701 29.4357 46.9667 29.4685C46.8633 29.5013 46.7709 29.5618 46.6996 29.6435C46.4479 30.0052 46.1962 29.9851 45.859 29.7666C45.767 29.7071 45.6577 29.6802 45.5486 29.6902C45.4395 29.7003 45.337 29.7466 45.2574 29.8218C45.1629 29.9223 45.0385 29.9899 44.9026 30.0148C44.7668 30.0396 44.6265 30.0204 44.5024 29.96C44.3312 29.8871 44.223 29.9801 44.1298 30.1207C43.848 30.5502 43.4956 30.4925 43.2364 30.1459C42.8387 29.6134 42.3026 29.214 41.9502 28.6388C40.2186 25.7703 38.5927 22.8391 36.9642 19.9104C36.8208 19.6592 36.7302 19.3452 36.3677 19.197C36.2897 19.6341 36.4508 20.0033 36.5464 20.365C37.3619 23.4268 37.9232 26.5389 38.4568 29.6586C38.5348 30.1182 38.6934 30.5477 38.4089 30.9521C38.07 31.3845 37.6405 31.7376 37.1505 31.987C36.8762 32.1402 36.3954 31.9217 36.33 32.4718C36.33 32.5019 36.2067 32.5572 36.1765 32.5396C35.6026 32.1879 35.3056 32.7129 34.9004 32.9189C34.7726 33.001 34.6175 33.0296 34.4687 32.9986C34.3199 32.9676 34.1893 32.8794 34.105 32.7531C32.0513 30.3769 29.9832 28.015 27.9009 25.6674C27.3019 24.9942 26.6097 24.4115 25.827 23.6579C26.0006 24.2381 26.5267 24.429 26.582 25.0645C23.6549 23.4821 21.664 21.0457 19.4567 18.7474C19.2981 19.2221 19.5423 19.5235 19.6807 19.8174C20.5596 21.7335 21.167 23.7624 21.4853 25.8457C21.5105 25.9964 21.5205 26.1471 21.5457 26.2978C21.6791 27.1166 21.5105 27.8049 20.7328 28.247C20.6243 28.31 20.5307 28.3957 20.4584 28.4981C19.6077 29.6561 18.4122 29.7113 17.1865 29.4626C14.886 28.998 12.5956 28.473 10.3027 27.9706C10.1551 27.9153 9.99232 27.9153 9.84465 27.9706C9.88996 28.0485 9.91514 28.154 9.9831 28.1967C10.8474 28.7732 11.6362 29.4549 12.3314 30.2262C14.2794 32.2985 16.6806 33.7427 19.0615 35.2322C20.2562 35.9697 21.3983 36.7888 22.4795 37.6837C22.774 37.9349 23.1389 38.1459 23.0886 38.7587C21.5961 38.2765 20.4635 37.2065 19.0313 36.7217C19.5523 37.523 20.32 38.0831 21.0273 38.6809C21.7823 39.3264 22.6456 39.8765 23.4711 40.4391C24.2628 41.0093 25.0193 41.6266 25.7364 42.2878C25.8782 42.3988 25.9824 42.5506 26.0351 42.7226C26.0877 42.8946 26.0863 43.0787 26.0308 43.2498C25.823 44.0331 25.7006 44.8365 25.6659 45.646C25.6457 46.9421 24.7975 48.0624 23.2094 48.0096C21.7445 47.9619 20.2797 47.9946 18.8149 47.9895C17.3535 48.0171 15.8944 48.1177 14.443 48.291C13.4791 48.3864 12.5 48.311 11.526 48.4618L15.2359 48.6426C18.2838 48.7883 21.3343 48.8159 24.3772 49.0771C24.6201 49.0968 24.8604 49.1405 25.0945 49.2077C25.2144 49.237 25.3194 49.3092 25.3895 49.4106C25.4596 49.512 25.4898 49.6356 25.4746 49.7578C25.4595 50.009 25.2984 50.1045 25.0744 50.1848C24.0274 50.5616 24.0274 50.5691 23.2773 50.436C23.5869 50.8027 24.1885 50.6872 24.5761 51.177C24.1381 51.2825 23.7556 51.3829 23.3705 51.4683C23.2874 51.4859 23.1188 51.4684 23.1188 51.4483C22.9401 50.6169 22.3083 51.1041 21.8905 51.0464C18.7167 50.5993 15.5077 50.544 12.3263 50.2928C10.5016 50.1446 8.66928 50.0994 6.84201 49.9864C6.38897 49.9588 6.13978 50.22 5.8151 50.5114C6.00343 50.6718 6.22208 50.7929 6.45812 50.8675C6.69415 50.9421 6.94281 50.9688 7.18934 50.9459C7.81857 50.8806 7.87897 50.9208 8.56608 51.3629C8.64154 51.4066 8.72548 51.4337 8.8123 51.4423C8.89912 51.451 8.98682 51.441 9.06946 51.4131C9.89249 51.2122 10.6023 51.6643 11.3699 51.7698C11.6392 51.8049 11.5335 52.1917 11.8154 52.1641C12.0293 52.1415 12.276 52.0285 12.4446 52.1013C12.9431 52.309 13.4619 52.4648 13.9925 52.566C17.5766 53.3195 21.1229 54.2087 24.6164 55.3038C25.6272 55.6446 26.6179 56.0421 27.5838 56.4944C28.0871 56.7155 28.3011 57.0571 28.2055 57.5695C28.0771 58.2527 28.3539 58.9736 28.0142 59.6367C27.994 59.6944 27.994 59.7573 28.0142 59.815C28.3665 60.9805 27.6115 61.5004 26.7557 61.9199C25.3937 62.5358 23.9879 63.0504 22.55 63.4596C19.3258 64.4794 16.0891 65.469 12.8977 66.5918C12.2936 66.8053 11.6744 66.9686 11.0628 67.162C10.9673 67.1736 10.8757 67.2065 10.7947 67.2582C10.7136 67.31 10.6453 67.3792 10.5947 67.4609C10.9873 67.7974 11.4832 67.8075 11.9513 67.8753C15.1201 68.3249 18.2964 68.7318 21.4299 69.4125C22.4132 69.6285 23.3804 69.9121 24.3244 70.2615C25.0241 70.5127 25.467 70.9271 25.5451 71.7686C25.5785 72.4919 25.6626 73.212 25.7968 73.9237C25.9855 74.75 25.5778 75.5262 24.8882 76.0838C24.05 76.7645 23.0533 77.1614 22.0894 77.616C18.9986 79.0728 15.8122 80.3061 12.6434 81.5746C11.2239 82.1422 9.8371 82.7677 8.61641 83.6895C8.3658 83.8629 8.10051 84.0142 7.82358 84.1416C6.64315 84.7143 5.39981 85.1463 4.27979 85.8446C4.10109 85.9576 3.87961 86.0757 3.68077 85.9375C3.48194 85.7994 3.60276 85.5607 3.60276 85.3523C3.60276 84.1617 4.31505 83.5061 5.30167 83.0389C5.54587 82.9119 5.78205 82.7702 6.0089 82.6144C6.42419 82.3507 6.7111 82.0945 6.71865 81.4816C6.71865 80.6377 7.22204 80.0499 8.04506 79.6028C10.5771 78.2389 13.2677 77.2518 15.9003 76.1215C17.6093 75.388 19.2981 74.6144 20.9492 73.7529C21.0801 73.6851 21.2386 73.6398 21.2563 73.4515C20.3275 73.1048 19.3384 73.2179 18.382 73.0697C16.001 72.6979 13.6351 72.2257 11.2315 72.0172C9.89751 71.9017 8.56606 71.7384 7.22455 71.8037C6.12215 71.859 5.03487 71.6832 3.94002 71.6329C3.27615 71.6443 2.62008 71.4888 2.03219 71.1808C1.7956 71.0452 1.01035 69.7265 1.14627 69.6109C1.61441 69.2066 1.39795 68.8423 1.19911 68.4354C1.1797 68.3786 1.17258 68.3184 1.17822 68.2586C1.18386 68.1989 1.20214 68.141 1.23183 68.0888C1.48352 67.6543 1.51624 67.1695 1.57665 66.6847C1.65719 66.0643 1.97935 65.7302 2.64633 65.5419C8.16589 63.9971 13.6351 62.2765 19.1597 60.7519C20.6522 60.34 22.1095 59.7974 23.738 59.2649C23.4007 59.1117 23.2094 59.0137 23.003 58.9359C20.549 58.1045 18.2209 56.944 15.704 56.3035C12.1803 55.4144 8.66843 54.5051 5.16827 53.5757C4.31504 53.3522 3.48194 53.0533 2.65137 52.7745C2.23383 52.6667 1.85683 52.4398 1.56657 52.1214C1.41807 51.9381 1.17395 51.599 1.23687 51.506C1.71508 50.7927 0.698238 50.2225 1.09339 49.5293C1.23956 49.2776 1.32722 48.9964 1.34987 48.7064C1.37253 48.4165 1.3296 48.1251 1.22427 47.8539C0.972585 47.1707 1.42312 46.6181 1.5842 46.0153C1.70502 45.5632 2.19328 45.5632 2.54313 45.4049C4.21183 44.6514 5.90572 43.9606 7.72041 43.6266C10.7836 43.0693 13.8851 42.7468 16.9977 42.662C17.3551 42.662 17.7125 42.6294 18.0548 42.6118C18.0699 42.4862 18.1051 42.4033 18.0799 42.3782C16.7636 40.9842 15.4649 39.5726 14.1133 38.2087C12.8247 36.9101 11.4957 35.6542 10.1643 34.3983C8.3169 32.6576 6.68342 30.7261 4.98955 28.8473C4.51889 28.3248 4.30246 27.6291 3.79153 27.1317C3.73364 27.074 3.67069 26.9283 3.70089 26.8805C3.97723 26.4324 4.11956 25.9147 4.11115 25.3885C4.8335 25.0419 4.86622 24.1829 5.3998 23.673C5.53268 23.5144 5.7023 23.3906 5.89396 23.3123C6.08562 23.2339 6.29354 23.2034 6.49969 23.2234C9.94285 23.509 13.3591 24.0573 16.7183 24.8636C16.8945 24.9385 17.0917 24.9483 17.2745 24.8912C17.3928 24.6852 17.2519 24.5019 17.1739 24.321C15.6134 20.6388 14.5311 16.8008 13.4766 12.9552C13.2677 12.2017 13.3054 11.5411 14.0303 11.0186C14.4053 10.7474 14.6343 10.3354 15.178 10.2325C15.5228 10.1672 15.6813 9.66982 16.0438 9.47892C16.2299 9.34971 16.4526 9.28362 16.6792 9.2904C16.9058 9.29719 17.1242 9.37649 17.3022 9.51661C19.1153 10.7028 20.866 11.9813 22.5474 13.3471C25.1626 15.4965 27.6274 17.822 29.9245 20.3072C30.629 21.069 31.2815 21.8771 31.8776 22.726C31.9909 22.8868 32.0487 23.1279 32.3508 23.1204C32.4187 22.6457 32.1821 22.2338 32.0588 21.8118C31.2282 18.9735 30.7098 16.0648 30.1082 13.1738C29.9043 12.1917 29.6577 11.2171 29.4337 10.24C29.1423 9.04492 28.9786 7.82239 28.9454 6.59289C28.9454 6.17091 29.0511 5.85192 29.4941 5.79415C29.9371 5.73638 30.0881 5.45255 30.3473 5.19132C30.9967 4.53575 31.8575 4.31219 32.751 4.27703C33.204 4.25945 33.5337 4.59602 33.8408 4.8899C34.553 5.55978 35.1545 6.33803 35.6227 7.19572C37.7143 11.0865 39.8235 14.9647 42.0484 18.7826C42.3647 19.4003 42.7588 19.9752 43.2213 20.4931C43.4589 20.0964 43.5922 19.6463 43.6089 19.1844C43.8606 17.0645 44.0493 14.9421 44.3388 12.8322C44.7994 9.44879 45.4135 6.09807 46.6795 2.90057C46.8966 2.26483 47.2882 1.70266 47.8096 1.27796C47.954 1.14935 48.13 1.06116 48.3196 1.02234C48.5092 0.983518 48.7058 0.99545 48.8893 1.05692C49.3524 1.17749 49.7652 1.52914 50.3491 1.19005C50.6184 1.03432 51.1042 1.37592 51.5522 1.40104C52.0556 1.42867 52.121 1.96619 52.262 2.36054C52.3155 2.48696 52.3939 2.60142 52.4925 2.69718C52.591 2.79294 52.7078 2.86807 52.8358 2.91815C53.1289 3.07044 53.3858 3.28383 53.589 3.54385C53.7922 3.80387 53.9371 4.10445 54.0137 4.42522C54.481 5.7774 55.0161 7.1053 55.617 8.40389C57.0805 11.7545 58.1718 15.255 58.8713 18.8428C59.1204 20.3034 59.2207 21.7854 59.1708 23.2661C59.5786 23.1455 59.5836 22.7914 59.6591 22.5527C60.5149 19.8325 61.8463 17.3282 63.1828 14.8391C65.1963 11.1216 67.6251 7.7031 70.8015 4.85976C71.1186 4.57593 71.4005 4.25191 71.7025 3.9505C72.0045 3.64909 72.231 3.29241 72.1178 2.82773C72.7093 2.82773 73.263 2.94327 73.784 2.6921C73.9324 2.6116 74.1027 2.58037 74.2702 2.60296C74.4376 2.62554 74.5935 2.70075 74.7152 2.81768C74.8999 3.00092 75.123 3.14101 75.3685 3.22787C75.6139 3.31474 75.8756 3.34621 76.1347 3.32004C76.3035 3.29766 76.475 3.32497 76.6284 3.39859C76.7818 3.47222 76.9103 3.58897 76.9981 3.73448C77.0509 3.80984 77.1012 3.91031 77.1742 3.94045C78.0778 4.30215 78.0249 5.05317 78.0174 5.83182C77.9796 9.65726 77.3781 13.4099 76.6658 17.1524C76.243 19.3653 75.7346 21.5606 75.1985 23.7483C75.1348 23.8853 75.124 24.041 75.1683 24.1854C75.42 24.2507 75.4854 24.0523 75.5836 23.9141C78.2948 20.104 81.5627 16.7207 85.2786 13.8771C85.9309 13.3255 86.6396 12.8439 87.3928 12.4403C87.6143 12.3323 87.8962 12.1314 88.0699 12.3172C88.762 13.0155 89.9223 13.013 90.4483 13.9499C90.7 14.3995 91.0172 14.8089 91.2991 15.2409C91.4321 15.4829 91.4782 15.763 91.4299 16.0347C91.3472 16.7007 91.1496 17.3473 90.846 17.9461C89.4265 21.1185 87.2997 23.8338 85.2661 26.6118C83.0009 29.7138 80.4084 32.5572 77.8613 35.4332C77.8091 35.5025 77.762 35.5755 77.7204 35.6517C77.9041 35.9029 78.0602 35.6894 78.1835 35.6266C81.8246 33.7729 85.4615 31.9108 89.0943 30.0404C90.5339 29.2868 91.8251 28.3123 93.1641 27.413C94.5484 26.4837 95.8748 25.4689 97.3346 24.6501C97.7947 24.3585 98.2399 24.0442 98.6685 23.7082C98.6239 23.8877 98.5394 24.0549 98.4213 24.1975C98.3033 24.3401 98.1547 24.4544 97.9865 24.532C95.4369 25.9311 93.3378 27.9782 90.836 29.4476C90.2187 29.8036 89.6243 30.1979 89.0565 30.6281C92.039 29.4551 94.5207 27.413 97.3119 25.9035C95.3236 27.7597 93.0332 29.2416 91.0197 31.0526C94.0752 29.1637 97.1106 27.2473 100 25.1097C96.655 28.2846 92.6783 30.6356 88.9785 33.6096C89.7336 33.582 90.1337 33.1675 90.6145 32.9339C91.0952 32.7003 91.5633 32.3838 92.0315 32.1C92.5187 31.7877 93.0228 31.5026 93.5416 31.246C93.02 31.8064 92.4278 32.2969 91.7798 32.7054C90.4738 33.6038 89.1166 34.4257 87.715 35.1669C85.7543 36.2168 83.8289 37.3346 81.8909 38.4322C80.8539 39.0175 79.7087 39.3842 78.707 40.0347C78.5384 40.1453 78.3672 40.2482 78.0652 40.4391H81.1207C83.8893 40.4391 86.6076 40.7255 89.2553 41.5292C90.3119 41.8335 91.3214 42.2815 92.2555 42.8605C92.9879 43.3277 93.6675 43.8928 94.0375 44.6639C94.7925 46.2589 95.0442 48.6828 93.4082 50.1321C91.9699 51.3586 90.3586 52.3674 88.6261 53.1261C85.4811 54.5409 82.1758 55.5698 78.7825 56.1905C77.738 56.394 76.6935 56.5823 75.4527 56.8059C77.6097 57.3585 79.5854 57.8433 81.5511 58.3732C84.3046 59.1268 86.9524 60.1014 89.3208 61.734C89.9555 62.158 90.5398 62.6526 91.0625 63.2084C91.2915 63.4596 91.5382 63.7309 91.4878 64.085C91.3645 64.9491 91.4878 65.8282 91.2739 66.6872C91.2343 66.9572 91.1241 67.2119 90.9542 67.4257C90.8832 67.4818 90.8286 67.5559 90.7963 67.6404C90.764 67.7248 90.7551 67.8164 90.7705 67.9054C90.9492 68.7343 90.476 69.2091 89.8191 69.5733C89.0655 69.9783 88.2566 70.2711 87.418 70.4423C85.4014 70.926 83.3585 71.2925 81.2994 71.54C81.2382 71.5554 81.1796 71.58 81.1257 71.6128C81.2516 71.9695 81.5662 71.864 81.8179 71.8891C84.2467 72.1403 86.6478 72.5372 88.9433 73.4138C89.1168 73.4757 89.2725 73.579 89.397 73.7146C89.5215 73.8503 89.6109 74.0142 89.6575 74.1921C89.7042 74.3701 89.7066 74.5567 89.6646 74.7357C89.6225 74.9148 89.5374 75.081 89.4164 75.2197C89.3409 75.3177 89.2 75.4333 89.283 75.5086C89.7864 75.9657 89.1295 76.3877 89.2604 76.8574C89.3359 77.1362 89.0087 77.3899 88.757 77.5783C88.1381 78.087 87.3431 78.3316 86.5446 78.259C84.8393 78.1507 83.1433 77.9274 81.4681 77.5909C79.0191 77.0559 76.5148 76.8976 74.0306 76.6264C72.2046 76.4676 70.4114 76.0445 68.7074 75.3705C68.334 75.2351 67.9834 75.0437 67.6679 74.8028C67.4162 74.5918 67.2224 74.3632 67.5169 74.0493C67.5547 74.0116 67.5844 73.9667 67.6044 73.9172C67.6243 73.8678 67.634 73.8148 67.6328 73.7615C67.6316 73.7082 67.6196 73.6557 67.5975 73.6072C67.5755 73.5586 67.5437 73.515 67.5043 73.4791C67.2904 73.1902 67.1696 72.8913 67.5194 72.6C67.7082 72.4417 67.6327 72.2182 67.6553 72.0097C67.7283 71.3541 67.98 70.7337 68.1184 70.0857C68.2241 69.6059 68.8584 69.4929 69.3341 69.3924C70.6152 69.1161 71.8988 68.8474 73.19 68.6188C76.8244 67.9733 80.489 67.5613 84.1083 66.7802C85.1151 66.5591 86.1218 66.3029 87.1286 66.0618C87.2139 66.0543 87.2958 66.0253 87.3667 65.9774C87.4377 65.9294 87.4952 65.8643 87.5338 65.788C87.267 65.4338 86.8517 65.2455 86.4717 65.0345C83.9699 63.5676 81.229 62.7437 78.4352 62.058C76.0366 61.4703 73.6028 61.0533 71.1765 60.5761C70.3107 60.4103 69.4574 60.1692 68.6092 59.928C68.1964 59.8069 67.8174 59.5919 67.5018 59.3001C67.2929 59.1067 67.0362 58.8153 67.1545 58.6018C67.5698 57.8483 67.0865 57.0947 67.2426 56.3412C67.381 55.663 67.7459 55.0301 67.6629 54.3016C67.6402 54.1032 67.8693 54.0228 68.0228 53.9274C68.4417 53.6719 68.9069 53.5012 69.392 53.425C72.2486 52.9403 75.123 52.566 77.962 51.9808C81.8305 51.1845 85.5907 50.0643 89.1018 48.2131C89.5075 48.0025 89.9 47.7677 90.2772 47.5098C90.8939 47.0853 90.8636 46.8618 90.174 46.5051C88.9504 45.8762 87.6316 45.452 86.2703 45.2492C83.1325 44.7411 79.9356 44.7123 76.7891 45.1638C75.0097 45.415 73.2076 45.5079 71.4156 45.6661C71.2343 45.6837 70.9575 45.7415 70.9122 45.5632C70.879 45.3584 70.7861 45.168 70.6451 45.0156C70.5041 44.8633 70.3212 44.7558 70.1194 44.7066C70.0816 44.7066 70.0489 44.5308 70.0741 44.4555C70.2125 44.0737 70.0187 43.8928 69.6965 43.7597C69.4272 43.6467 69.3769 43.5085 69.5279 43.1945C69.5949 43.0178 69.6107 42.8258 69.5733 42.6405C69.5359 42.4552 69.4469 42.2842 69.3165 42.1471C68.5312 41.4288 69.0849 40.738 69.3844 40.1754C69.6563 39.673 70.0061 39.3289 69.5455 38.7437C69.3618 38.5076 69.6613 38.3845 69.8953 38.4247C70.6504 38.5578 70.668 38.5503 70.5699 37.8193C70.561 37.7295 70.5743 37.6388 70.6085 37.5552C70.6427 37.4716 70.6969 37.3976 70.7662 37.3396C71.0833 37.008 71.3879 36.6664 71.7302 36.365C72.7218 35.4909 73.492 34.4234 74.3125 33.4061C74.3629 33.3459 74.3603 33.2404 74.383 33.155C74.5919 33.1324 74.68 32.959 74.7958 32.8234C77.6927 29.4024 80.3933 25.8306 83.0587 22.2287C83.167 22.083 83.3784 21.9499 83.2173 21.6435C82.9656 21.9147 82.7366 22.1458 82.5126 22.397C79.9076 25.273 77.6021 28.3826 75.3898 31.5575C75.0198 32.0623 74.5491 32.517 74.3905 33.1575ZM14.6469 64.2081C14 64.193 13.4413 64.4593 12.8851 64.7105C13.4765 64.5572 14.1712 64.7356 14.6469 64.2081C14.9917 64.2659 15.3139 64.2483 15.5379 63.9142C15.2333 64.0047 14.891 63.9645 14.6469 64.2081ZM57.2504 25.5091C57.3864 25.0068 57.3134 24.4843 57.5021 24.002C57.6716 23.5116 57.7567 22.9961 57.7538 22.4774C57.852 19.8275 57.2907 17.2805 56.5206 14.7738C55.5641 11.6667 54.1547 8.71785 53.2486 5.5932C53.1641 5.5991 53.0801 5.61001 52.9969 5.62585C54.2101 12.2871 55.3099 18.9684 57.2504 25.5091ZM54.575 30.3719C53.5682 26.1019 52.5162 21.8494 51.5824 17.5618C52.1009 21.9474 52.6445 26.3204 54.575 30.3719ZM21.5634 56.075C22.4971 56.7582 23.5366 57.0797 24.7145 56.8109C23.6247 56.7305 22.6532 56.2458 21.5634 56.075ZM11.6694 53.9902C12.2206 54.4247 12.2508 54.4323 12.8599 54.4297L11.6694 53.9902ZM22.6204 50.0467V50.1145H23.6272V50.0467H22.6204ZM23.9468 61.739C23.4863 61.6134 23.2497 61.7867 22.9728 61.94C23.3151 62.0555 23.5618 61.8721 23.9468 61.739ZM21.143 50.3431C21.2045 50.3829 21.2694 50.4173 21.3368 50.4461C21.4042 50.4748 21.4791 50.481 21.5503 50.4638C21.6215 50.4466 21.6852 50.4069 21.732 50.3506C21.7398 50.3266 21.7412 50.3009 21.7359 50.2762C21.7306 50.2515 21.7188 50.2287 21.7018 50.21C21.6236 50.1709 21.5375 50.1505 21.4501 50.1505C21.3627 50.1505 21.2765 50.1709 21.1984 50.21C21.1732 50.225 21.1682 50.2627 21.143 50.3431ZM14.2341 55.2335C14.2616 55.2184 14.2869 55.1998 14.3096 55.1783C14.3096 55.1783 14.2945 55.1305 14.2769 55.118C14.1115 54.9935 13.9102 54.9256 13.703 54.9246C13.6653 54.9246 13.6275 54.9723 13.5822 55.0049C13.7691 55.1441 13.9936 55.2238 14.2266 55.2335H14.2341ZM8.86558 67.2901C8.86558 67.177 8.80014 67.1469 8.71457 67.1469C8.57614 67.1469 8.41255 67.1469 8.37983 67.3252C8.37654 67.3465 8.37791 67.3682 8.38389 67.3889C8.38986 67.4096 8.4003 67.4287 8.41443 67.445C8.42856 67.4612 8.44607 67.4742 8.46574 67.483C8.48541 67.4918 8.50676 67.4963 8.52832 67.496C8.59937 67.5052 8.67138 67.489 8.73168 67.4504C8.79198 67.4119 8.8367 67.3533 8.85802 67.285L8.86558 67.2901ZM7.80345 53.0985C7.86386 53.2668 7.99475 53.2693 8.09794 53.312C8.20113 53.3547 8.32194 53.4326 8.34963 53.2467C8.34963 53.2015 8.23386 53.1211 8.16338 53.1035C8.04406 53.0881 7.92346 53.0847 7.80345 53.0935V53.0985ZM26.0283 60.9277C26.0006 60.8524 25.9503 60.8323 25.8874 60.8775C25.8244 60.9227 25.5174 60.9101 25.6206 61.0709C25.7238 61.2317 25.9251 61.1111 26.0208 60.9227L26.0283 60.9277ZM24.2136 57.582C24.1834 57.5519 24.1608 57.5016 24.1281 57.4991C24.045 57.4821 23.9594 57.4821 23.8764 57.4991C23.7958 57.5217 23.8009 57.5795 23.8764 57.6122C23.93 57.6383 23.9898 57.6493 24.0492 57.644C24.1087 57.6387 24.1655 57.6173 24.2136 57.582Z" fill="currentColor" fill-opacity="0.8"/>
</g>
<defs>
<filter id="filter0_d_24_6" x="0" y="0" width="107" height="93" filterUnits="userSpaceOnUse" color-interpolation-filters="sRGB">
<feFlood flood-opacity="0" result="BackgroundImageFix"/>
<feColorMatrix in="SourceAlpha" type="matrix" values="0 0 0 0 0 0 0 0 0 0 0 0 0 0 0 0 0 0 127 0" result="hardAlpha"/>
<feOffset dx="3" dy="3"/>
<feGaussianBlur stdDeviation="2"/>
<feComposite in2="hardAlpha" operator="out"/>
<feColorMatrix type="matrix" values="0 0 0 0 0 0 0 0 0 0 0 0 0 0 0 0 0 0 0.25 0"/>
<feBlend mode="normal" in2="BackgroundImageFix" result="effect1_dropShadow_24_6"/>
<feBlend mode="normal" in="SourceGraphic" in2="effect1_dropShadow_24_6" result="shape"/>
</filter>
</defs>
</svg>
