<svg width="72" height="42" viewBox="0 0 72 42" fill="none" xmlns="http://www.w3.org/2000/svg">
<g>
<path opacity="0.5" d="M60.8444 18.784C61.5296 19.9659 62.2365 21.0975 62.8543 22.2794C63.9419 24.3396 64.8533 26.4587 64.9903 28.8334C65.1056 30.8738 64.1942 31.8919 62.1626 31.8416C61.2812 31.8569 60.4022 31.745 59.5524 31.5096C58.8973 31.2705 58.1959 31.1875 57.5034 31.2671C57.2768 31.3185 57.0402 31.3026 56.8225 31.2212C55.5936 30.592 54.134 31.0683 52.9768 30.5658C51.7718 30.0328 50.8016 30.7144 49.7141 30.6379C49.4226 30.6161 49.2051 30.8127 48.9702 30.9656C48.4612 31.2977 47.913 31.5227 47.2887 31.3567C47.2033 31.3207 47.1103 31.3071 47.0183 31.317C46.9262 31.3269 46.8382 31.3601 46.7623 31.4135C45.5704 32.4621 44.0347 32.6696 42.5925 33.0279C41.3462 33.3381 40.0845 33.6614 38.8947 34.0787C37.5157 34.5615 36.067 34.2491 34.7162 34.8237C34.0637 35.1033 33.3002 34.7647 32.5628 34.804C30.8879 34.8958 29.1608 35.2562 27.5012 34.6817C26.9269 34.4851 26.4484 34.8477 25.8763 34.7603C23.2313 34.354 20.5754 33.9302 18.0979 32.9318C14.5567 31.503 11.2765 29.6548 9.04044 26.3385C8.23562 25.1479 7.41123 23.9988 6.97184 22.6006C6.73257 21.836 6.11482 21.2767 5.55798 20.7283C4.93439 20.1083 4.38539 19.4168 3.92224 18.6682C3.49183 17.9561 2.9809 17.2963 2.39962 16.7021C1.97502 16.2714 1.63227 15.7664 1.38818 15.2121C0.720403 13.7615 0.896579 12.4813 2.05377 11.4087C3.9005 9.6959 6.1083 8.52274 8.36178 7.42823C10.985 6.15021 13.7823 5.35281 16.5644 4.51828C16.8341 4.43526 17.1299 4.38065 17.3018 4.15782C18.0892 3.13322 19.3051 2.90383 20.3883 2.4101C21.9632 1.69573 23.6663 1.48162 25.3173 1.12116C26.3179 0.902694 27.449 1.00756 28.4691 1.2151C30.2375 1.57556 32.0625 1.55591 33.7896 2.0409C34.3573 2.20038 34.9098 1.3156 35.5015 2.22004C35.7581 2.61328 36.6891 2.63075 37.3243 2.69411C38.6587 2.8535 39.9717 3.15973 41.2396 3.60729C45.492 5.01201 49.7532 6.38615 53.7925 8.36981C55.2525 9.06485 56.6684 9.84991 58.0319 10.7205C58.4017 10.963 58.7367 11.2055 58.6845 11.6927C58.5931 12.4027 59.0347 12.549 59.5676 12.8418C60.6944 13.4644 61.7189 14.2727 62.7825 15.0111C63.4568 15.4787 63.7787 16.086 63.5199 16.9249C63.261 17.7638 62.8543 18.4651 61.8341 18.4978C61.4796 18.4584 61.1239 18.5613 60.8444 18.784ZM15.4333 9.55171C15.3202 9.56482 15.1962 9.55171 15.1527 9.59103C13.1466 11.775 11.5623 14.3144 10.4804 17.08C10.3434 17.4273 10.1476 17.825 10.4195 18.1352C11.072 18.878 11.3722 19.6775 11.2069 20.6825C11.1634 20.9468 11.4397 21.2658 11.5767 21.5563C11.6942 21.8054 11.99 22.1331 11.916 22.2838C11.4157 23.315 12.2619 23.6186 12.7861 24.1233C13.1537 24.4707 13.5779 24.8377 13.7562 25.2855C14.1499 26.2861 14.9917 26.758 15.8074 27.2517C17.839 28.4969 20.0903 29.2179 22.4004 29.6548C24.8105 30.1136 27.1858 30.6619 29.7177 30.6073C31.2794 30.5724 32.7912 30.2993 34.3312 30.2468C35.682 30.1988 36.9414 29.7487 38.2617 29.5914C40.1689 29.3193 42.0576 28.9297 43.9172 28.4249C44.2304 28.344 44.5937 28.3418 44.8156 28.0972C45.4007 27.4418 46.0358 26.983 46.9777 27.125C47.2713 27.1687 47.4606 26.8912 47.6629 26.7034C48.0348 26.356 48.4111 26.013 48.77 25.6525C51.2062 23.1926 53.5967 20.7021 54.9932 17.4426C55.3717 16.5688 55.3173 15.4568 54.6626 15.0395C53.6903 14.4213 52.6549 13.9079 51.8544 13.0406C51.7153 12.9163 51.5359 12.8472 51.3498 12.8461C51.0253 12.8574 50.7031 12.7874 50.4123 12.6425C50.1214 12.4976 49.871 12.2823 49.6836 12.016C49.4813 11.7385 49.1441 11.6927 48.8396 11.5791C46.9559 10.8887 45.0135 10.3731 43.1581 9.59758C41.3679 8.84825 39.4603 8.45282 37.5983 7.9438C35.5254 7.37579 33.3241 7.27749 31.1729 7.01097C28.0537 6.62647 24.9344 6.81871 21.8196 7.06994C21.3144 7.09013 20.8283 7.26893 20.4297 7.58116C19.8663 8.01809 19.2877 8.43753 18.459 8.43316C17.7325 8.43316 17.1734 8.83295 17.1539 9.73084C17.1068 10.0992 16.9798 10.4527 16.7819 10.7664C16.7167 10.8926 16.6088 10.9914 16.4777 11.045C16.3466 11.0986 16.2007 11.1036 16.0663 11.0591C15.9546 11.0307 15.853 10.9718 15.7728 10.8889C15.6925 10.806 15.6367 10.7023 15.6116 10.5894C15.5268 10.2442 15.703 9.85975 15.4333 9.55171ZM57.1575 18.5983C55.9263 21.8447 53.1943 23.6733 50.8495 25.895C53.8208 24.9688 56.8704 24.5493 60.0157 23.9289C58.9868 22.0479 57.8188 20.4968 57.1575 18.5983ZM7.0284 17.3553C7.57753 15.9467 8.22744 14.5799 8.97302 13.2656C9.69953 12.0138 10.4695 10.7882 11.22 9.55171L11.0024 9.34635C9.49723 10.2093 7.92894 10.9586 6.49985 11.9548C5.77986 12.4573 5.09249 13.0078 4.41383 13.5671C4.17674 13.7593 3.85483 14.0586 4.21591 14.3689C5.20997 15.2034 5.88426 16.3372 7.0284 17.3443V17.3553ZM55.2151 27.6537C55.6501 28.0098 56.0177 28.1867 56.3636 28.1496C57.8688 27.9836 59.3566 28.3921 60.8575 28.2632C61.2033 28.2326 61.6601 28.3418 61.6862 27.7935C61.7185 27.584 61.6738 27.37 61.5606 27.1911C61.4473 27.0123 61.2732 26.8808 61.0707 26.8213C60.7132 26.7457 60.3461 26.728 59.9831 26.7689C58.4213 26.8388 56.9356 27.3107 55.2151 27.6428V27.6537ZM44.9265 7.89356C44.8939 7.81054 44.8873 7.69258 44.8264 7.65325C43.7084 6.91266 42.2967 6.8624 41.1874 6.08685C41.1461 6.0642 41.1008 6.04997 41.0541 6.04496C41.0073 6.03995 40.9601 6.04427 40.915 6.05766C40.8699 6.07106 40.8279 6.09327 40.7914 6.12303C40.7549 6.15278 40.7246 6.1895 40.7023 6.23105C40.6708 6.28065 40.6522 6.3374 40.6481 6.39611C40.6441 6.45482 40.6548 6.5136 40.6793 6.56708C40.7037 6.62055 40.7412 6.66701 40.7881 6.70219C40.8351 6.73738 40.8901 6.76016 40.9481 6.76846C42.2532 7.0765 43.4061 7.78651 44.722 8.02463C44.7808 8.02682 44.8569 7.93288 44.9265 7.89356ZM58.976 16.6977C59.287 17.1696 59.411 17.6393 59.9831 17.6109C60.0266 17.6109 60.1136 17.4536 60.0962 17.3924C59.957 16.914 59.6764 16.6169 58.976 16.6911V16.6977ZM24.8953 3.80827C25.1498 3.97212 25.4108 4.00926 25.6305 3.78424C25.6506 3.75829 25.6642 3.72781 25.67 3.69544C25.6758 3.66306 25.6736 3.62976 25.6638 3.59839C25.654 3.56702 25.6367 3.53852 25.6135 3.51533C25.5902 3.49215 25.5618 3.47497 25.5305 3.46528C25.2216 3.36042 25.0258 3.52427 24.8953 3.80827ZM30.8944 4.31074C31.4643 4.5292 31.7971 4.84816 32.3648 4.59692C31.9407 4.26486 31.5774 4.17966 30.8944 4.31074Z" fill="currentColor"/>
</g>
<defs>
<filter id="filter0_d_24_10" x="0" y="0" width="72" height="42" filterUnits="userSpaceOnUse" color-interpolation-filters="sRGB">
<feFlood flood-opacity="0" result="BackgroundImageFix"/>
<feColorMatrix in="SourceAlpha" type="matrix" values="0 0 0 0 0 0 0 0 0 0 0 0 0 0 0 0 0 0 127 0" result="hardAlpha"/>
<feOffset dx="3" dy="3"/>
<feGaussianBlur stdDeviation="2"/>
<feComposite in2="hardAlpha" operator="out"/>
<feColorMatrix type="matrix" values="0 0 0 0 0 0 0 0 0 0 0 0 0 0 0 0 0 0 0.25 0"/>
<feBlend mode="normal" in2="BackgroundImageFix" result="effect1_dropShadow_24_10"/>
<feBlend mode="normal" in="SourceGraphic" in2="effect1_dropShadow_24_10" result="shape"/>
</filter>
</defs>
</svg>
