<svg width="76" height="54" viewBox="0 0 76 54" fill="none" xmlns="http://www.w3.org/2000/svg">
<g>
<path opacity="0.5" d="M60.1386 36.0458C59.8269 36.7558 59.3164 36.7072 58.7594 36.5353C58.6823 36.5183 58.6024 36.5192 58.5257 36.5379C58.4491 36.5567 58.3778 36.5927 58.3173 36.6433C58.2156 36.7095 58.0963 36.8219 58.0012 36.8197C57.2696 36.8065 56.5314 36.5397 55.8108 36.8947C55.0107 36.5551 54.184 36.8109 53.3795 36.8572C52.2147 36.9255 51.0764 37.2761 49.8762 37.1725C49.4938 37.1416 49.1092 37.0556 48.7202 37.038C47.9952 37.0027 47.2769 36.7999 46.5674 37.1174C46.5409 37.1306 46.4922 37.1482 46.4812 37.1372C45.8358 36.4757 45.0268 37.2607 44.3151 36.8947C44.0013 36.7315 43.5503 36.8307 43.1635 36.8175C42.8762 36.8175 42.538 36.9785 42.4076 36.5264C42.3435 36.3059 42.2021 36.4735 42.1579 36.5485C41.9368 36.9057 41.729 36.9674 41.4727 36.5772C41.4349 36.528 41.3796 36.4953 41.3182 36.4858C41.2569 36.4764 41.1942 36.4909 41.1433 36.5264C40.131 37.0336 39.0237 36.9829 37.9384 37.0534C37.388 37.0909 36.8487 37.2122 36.2873 37.1857C35.9823 37.1725 35.695 37.2298 35.4032 37.0667C35.1114 36.9035 34.9412 37.0667 34.9324 37.393C34.8771 39.0247 34.5058 40.6255 34.4484 42.2616C34.397 42.5956 34.3096 42.9231 34.1875 43.2384C34.0837 43.6176 34.2074 43.8756 34.6296 43.8359C35.3612 43.7609 36.0995 43.9858 36.8266 43.7367C37.0032 43.6739 37.196 43.6739 37.3726 43.7367C37.9008 43.9792 38.4269 43.7676 38.9485 43.7676C39.5144 43.7676 40.0713 43.6132 40.6305 43.5471C41.3051 43.4445 41.9924 43.4594 42.6618 43.5912C43.2807 43.7499 43.7891 43.3839 44.3571 43.4809C44.4035 43.4809 44.4698 43.3861 44.5118 43.3971C46.2204 43.783 47.9223 43.3552 49.6198 43.2935C50.9615 43.2472 52.3451 43.3464 53.6691 42.8966C54.2769 42.6915 54.9709 42.7687 55.5876 42.8194C56.3479 42.8834 57.0265 42.5791 57.7493 42.6099C58.209 42.6298 58.3461 42.2572 58.5693 41.9948C58.6909 42.0631 58.7903 42.0896 58.8412 42.1579C58.9826 42.3784 59.4136 42.4313 59.3429 42.7511C59.2567 43.1458 58.8478 43.1524 58.5206 43.2295C57.4813 43.4442 56.4253 43.5689 55.3644 43.6022C54.3255 43.6595 53.2999 43.8756 52.2478 43.9351C51.304 43.9903 50.3404 43.9351 49.4032 44.1799C49.2869 44.2247 49.1615 44.2408 49.0376 44.227C48.9137 44.2132 48.795 44.1698 48.6915 44.1005C48.5991 44.0449 48.4956 44.0101 48.3883 43.9987C48.281 43.9872 48.1725 43.9994 48.0704 44.0344C46.5718 44.31 45.071 44.5194 43.5437 44.2923C43.3638 44.2475 43.1737 44.2695 43.0088 44.3541C42.8806 44.4312 42.6994 44.5415 42.5867 44.504C41.7644 44.2306 40.951 44.5768 40.1288 44.5547C39.1054 44.5305 38.06 44.6407 37.0211 44.6782C36.3183 44.7047 35.6154 44.7598 34.9125 44.8127C34.2096 44.8656 34.1632 44.9053 34.1256 45.6506C34.108 45.9902 34.108 46.3275 34.0881 46.6671C34.0881 46.8258 34.0328 46.978 33.8405 46.9978C33.6482 47.0177 33.5598 46.8986 33.4913 46.7509C33.2749 46.3067 33.2105 45.804 33.3078 45.3199C33.4449 44.6451 33.3609 44.6209 32.6448 44.6738C30.9274 44.7995 29.2122 44.9781 27.4837 44.9979C27.0417 44.9979 26.5709 45.1986 26.0934 45.2537C24.743 45.4125 23.3991 45.3176 22.0508 45.3044C20.9147 45.3044 19.7565 45.2118 18.6315 45.4257C18.0878 45.5293 17.6214 45.2868 17.0954 45.3044C15.7846 45.3529 14.4784 45.3816 13.1964 45.7057C11.9144 46.0299 10.628 45.902 9.33943 45.913C8.79349 45.913 8.28954 45.913 8.11051 46.6869C8.03536 46.0872 7.73476 45.9461 7.2507 45.9461C6.89705 45.9461 6.58761 45.5227 6.18755 45.9946C5.94 46.29 5.48246 46.0872 5.11998 46.0982C4.75749 46.1092 4.35302 46.01 4.33091 46.5833C4.32801 46.6223 4.31674 46.6603 4.29787 46.6946C4.27901 46.7289 4.25299 46.7588 4.22156 46.7822C4.19013 46.8056 4.15403 46.822 4.1157 46.8303C4.07737 46.8386 4.0377 46.8386 3.99937 46.8303C3.92152 46.8208 3.85044 46.7814 3.8013 46.7205C3.75216 46.6595 3.72885 46.5818 3.73634 46.5039C3.73634 45.9218 3.51531 45.6704 2.88759 45.741C2.49194 45.7873 2.4831 45.3838 2.51405 45.139C2.56046 44.751 2.83675 44.8789 3.07326 44.9891C3.23557 45.0812 3.4221 45.122 3.60814 45.106C3.84243 45.0707 4.06125 44.9582 3.99494 44.6936C3.86896 44.2041 4.07672 43.7257 3.97283 43.2295C3.66781 41.7721 3.67666 40.2771 3.48215 38.8064C3.38952 37.8338 3.24193 36.8672 3.0401 35.9113C2.84117 35.1219 2.92517 34.2597 2.89422 33.4285C2.81465 31.25 2.74391 29.0692 2.65992 26.8907C2.63561 26.2579 2.88096 25.6515 2.62898 24.99C2.15598 23.7972 2.15597 22.5205 2.24659 21.2548C2.27091 20.9042 1.97915 20.6595 2.02557 20.2979C2.24659 18.6706 1.88633 17.05 1.99463 15.4117C2.09631 13.8439 1.96147 12.2564 1.87527 10.682C1.84653 10.1308 1.87527 9.57953 1.84653 9.03049C1.8178 8.48146 1.75149 8.01841 1.19671 7.75602C1.12819 7.72295 1.09504 7.61049 1 7.46496C2.10515 7.39882 1.85317 6.53226 1.96147 5.8399C2.69971 5.86416 2.68645 6.45509 2.79033 6.98869C4.57846 6.49919 6.37543 6.48816 8.13482 6.20152C9.82348 5.9259 11.5475 5.89723 13.2185 5.46285C14.0496 5.76714 14.695 4.97335 15.5216 5.06816C15.7692 5.09683 16.072 4.95792 16.3704 5.06816C16.5179 5.11775 16.6766 5.12463 16.8279 5.08801C18.342 4.73962 19.8958 4.73522 21.4319 4.59851C22.4642 4.5081 23.503 4.35155 24.5264 4.35376C25.7199 4.35376 26.9024 4.27658 28.0893 4.1972C28.8187 4.14649 29.4973 3.81354 30.2422 3.87307C30.4632 3.89071 30.7218 3.72754 30.8588 4.0649C30.8726 4.09318 30.8932 4.11764 30.9187 4.13613C30.9442 4.15462 30.9739 4.16657 31.0051 4.17093C31.0363 4.17528 31.0681 4.17191 31.0978 4.16112C31.1274 4.15032 31.1539 4.13242 31.1749 4.109C31.4998 3.66801 31.9994 3.82015 32.4105 3.76503C33.5421 3.60848 34.7025 3.68345 35.8187 3.36372C36.4531 3.71652 37.1007 3.33947 37.724 3.31301C38.4313 3.28214 39.1629 3.23143 39.879 3.14102C41.2671 2.96463 42.6684 2.90509 44.0587 2.75956C45.2103 2.6405 46.3685 2.69121 47.52 2.48174C48.2295 2.35164 48.9855 2.51261 49.7303 2.41559C50.6144 2.30314 51.4986 2.33621 52.3694 2.10028C52.4905 2.07599 52.6152 2.07599 52.7363 2.10028C53.8194 2.27668 54.909 2.15761 55.9921 2.18627C56.6994 2.20391 57.4354 2.1995 58.1427 2.21494C58.9937 2.23478 59.8689 2.30314 60.7486 2.17084C61.8251 2.00987 62.939 2.08925 64.0376 2.08484C64.5769 2.08484 65.1117 2.1113 65.1913 1.41233C65.5538 1.4432 65.3306 1.85332 65.6069 1.87317C65.8831 1.89301 65.9914 1.71 66.0997 1.52478C66.2567 1.25357 66.4247 1.00661 66.7628 1C66.9507 1.11466 66.8999 1.27562 66.8888 1.41894C66.8712 1.63944 66.8535 1.8864 67.1585 1.89742C67.4082 1.89742 67.742 2.04515 67.837 1.63944C67.879 1.44981 67.9299 1.24916 68.1465 1.24475C68.4161 1.24475 68.4648 1.50053 68.5421 1.68574C68.8281 2.41639 68.9634 3.19709 68.94 3.98112C68.9267 5.22913 68.9775 6.47934 68.9952 7.72956C69.0173 9.1231 68.9775 10.5387 68.5532 11.919C68.3034 12.737 68.299 13.608 68.0735 14.4415C67.9697 14.8185 67.5342 15.103 67.6138 15.3499C67.7331 15.6961 67.7486 16.0621 67.8348 16.4061C67.8967 16.6487 67.7177 17.0279 67.5298 17.2418C67.2027 17.6122 67.2381 18.0135 67.2115 18.4457C67.1868 19.1408 67.0995 19.8323 66.9507 20.5118C66.8092 21.0784 66.6943 21.6738 66.5772 22.2559C66.4954 22.6572 66.7982 22.9174 66.8225 23.2856C66.9375 24.8291 66.8004 26.3527 66.7253 27.8786C66.6125 30.2026 66.3495 32.509 66.0113 34.8198C65.8962 35.6325 65.8533 36.4537 65.8831 37.2739C65.9075 38.0831 65.9207 38.9056 65.4256 39.6266C65.3481 39.7377 65.2967 39.8648 65.2753 39.9984C65.2539 40.132 65.263 40.2687 65.3018 40.3984C65.4212 40.9386 65.1736 41.4788 65.0941 42.0234C65.0879 42.102 65.0521 42.1753 64.9938 42.2285C64.9356 42.2817 64.8592 42.3109 64.7802 42.3101C64.526 42.2924 64.5459 42.0697 64.5371 41.8911C64.5108 40.9357 64.6006 39.9806 64.8045 39.0467C65.0139 37.963 65.1249 36.8627 65.1361 35.7591C65.1515 34.7448 65.3969 33.7438 65.2775 32.7295C65.2311 32.3414 65.8212 32.1121 65.5958 31.7946C65.3394 31.4308 65.5317 31.1595 65.5671 30.8442C65.7881 28.8598 66.029 26.8929 66.0467 24.8908C66.0467 23.8523 65.6046 22.838 65.9296 21.8039C66.1506 21.0828 66.1506 20.3265 66.323 19.5989C66.4954 18.8713 66.323 18.1304 66.5595 17.416C66.5882 17.33 66.5595 17.2153 66.5948 17.1426C67.006 16.459 66.8977 15.6586 67.0922 14.9266C67.3246 14.1602 67.5062 13.3795 67.6359 12.5893C67.742 11.7977 68.0117 11.0238 68.0603 10.2322C68.1133 9.33478 68.1421 8.43074 68.1177 7.52229C68.0912 6.46391 68.0116 5.39009 68.0559 4.31848C68.1177 2.81689 68.0735 2.81689 66.544 2.81028C66.4204 2.8137 66.2967 2.80484 66.1749 2.78382C65.819 2.71987 65.6687 2.86981 65.6312 3.22481C65.4455 4.93587 65.2709 6.64913 65.0476 8.35577C64.9062 9.45826 64.8266 10.5607 64.5415 11.6346C64.4752 11.8793 64.3934 12.1152 64.694 12.274C64.7669 12.3137 64.8133 12.3666 64.736 12.4945C64.5349 12.801 64.2298 14.0049 64.2254 14.4062C64.2254 14.5892 64.2365 14.7744 64.2497 14.9597C64.2696 15.2639 64.0486 15.5881 64.2232 15.8615C64.3978 16.1349 64.7802 16.0665 65.0675 16.1547C65.4588 16.276 65.5627 16.5627 65.5892 16.9309C65.6256 17.1766 65.5837 17.4276 65.4695 17.6483C65.3553 17.8691 65.1745 18.0485 64.9526 18.1613C64.0508 18.6486 63.9292 18.7588 64.2276 19.7047C64.4111 20.2802 63.9049 20.6771 64.0265 21.1887C64.2608 21.3386 64.3868 20.9682 64.6078 21.074C64.6242 21.0901 64.6367 21.1096 64.6446 21.1311C64.6525 21.1526 64.6555 21.1755 64.6534 21.1983C64.6513 21.2211 64.6441 21.2432 64.6324 21.2629C64.6207 21.2825 64.6047 21.2994 64.5857 21.3122C64.1171 21.5327 64.0287 21.8392 64.0199 22.397C64.0044 23.2944 63.7082 24.1941 63.401 25.0606C63.2344 25.4579 63.1589 25.8873 63.18 26.3174C63.2396 27.0032 62.8749 27.6184 62.7688 28.2865C62.4793 30.132 62.0903 31.9644 61.7455 33.7989C61.7123 33.9797 61.6991 34.1671 61.6836 34.3501C61.6549 34.6831 61.7698 34.8837 62.15 34.8573C62.3328 34.8292 62.5193 34.8344 62.7003 34.8727C62.8459 34.9269 62.9707 35.0256 63.0568 35.1546C63.1429 35.2837 63.186 35.4366 63.18 35.5915C63.2021 35.9355 62.8882 35.9223 62.6495 35.9554C62.5898 35.9554 62.5257 35.9554 62.466 35.9708C62.1632 36.0105 61.7565 35.8583 61.5819 36.1053C61.3609 36.4162 61.2968 36.8395 61.1863 37.221C61.1244 37.4415 61.3321 37.5407 61.425 37.6929C61.7587 38.2463 62.0107 38.813 61.7654 39.5936C61.4382 39.1856 61.6526 38.802 61.5709 38.4712C61.5289 38.2992 61.5709 38.0655 61.3211 38.0435C61.1001 38.0236 60.9962 38.189 60.9277 38.3676C60.8591 38.5462 60.7774 38.7711 60.7066 38.9762C60.6602 39.1085 60.563 39.1967 60.4348 39.1724C60.375 39.1573 60.3215 39.1239 60.2818 39.0768C60.2422 39.0297 60.2183 38.9713 60.2137 38.91C60.1736 38.4197 60.1877 37.9265 60.2557 37.4393C60.3221 36.9696 60.4215 36.5441 60.1386 36.0458ZM21.4452 18.847L21.4607 18.8669C21.2772 18.686 21.1004 18.6464 20.9081 18.8669C20.7954 18.9903 20.707 19.2219 20.4661 19.0433C20.0395 18.7235 19.8383 19.299 19.4758 19.288C19.1133 19.277 18.6381 19.1403 18.6492 19.7863C18.6492 19.8194 18.4923 19.8922 18.4149 19.8855C17.3805 19.7731 16.3969 20.1854 15.3647 20.1546C14.4326 20.0981 13.4972 20.1291 12.5709 20.2472C11.6006 20.4015 10.6302 20.5625 9.6555 20.6771C8.93937 20.7631 8.28291 21.1688 7.53141 21.0277C7.35901 20.9969 7.13356 21.0983 7.03852 20.891C6.85286 20.4809 6.47268 20.2582 6.19198 19.9429C5.62172 19.299 5.62392 19.1469 6.22733 18.481C6.34567 18.3819 6.44524 18.2624 6.52131 18.1282C6.79096 17.4248 7.30154 17.2727 7.98452 17.4226C8.19879 17.4462 8.41448 17.4543 8.62992 17.4469C9.09187 17.4821 9.52951 17.5505 9.88537 17.0963C10.1064 16.8295 10.491 16.8956 10.7452 17.0764C11.5188 17.6277 12.3941 17.4535 13.2273 17.4336C14.275 17.4072 15.3072 17.061 16.3726 17.2749C16.559 17.2871 16.744 17.2349 16.8964 17.1271C17.0865 17.0257 17.2921 16.8956 17.5087 16.975C17.9507 17.1337 18.353 16.975 18.7774 16.9287C20.0903 16.8074 21.3701 16.4701 22.7007 16.4282C23.2775 16.4083 23.8588 16.4811 24.4291 16.4105C25.5696 16.265 26.7035 16.0489 27.8551 16.0092C30.2245 15.9276 32.5674 15.555 34.928 15.4073C35.3391 15.383 35.4717 15.1868 35.4341 14.8141C35.3568 14.0733 36.0287 13.3985 35.6264 12.6268C35.611 12.5981 35.6729 12.5165 35.7126 12.4724C36.0663 12.0976 36.095 11.7007 35.9094 11.2156C35.7414 10.7746 35.9757 10.4747 36.4111 10.3336C36.4811 10.4271 36.5278 10.5358 36.5474 10.6508C36.567 10.7658 36.5589 10.8838 36.5238 10.9951C36.3183 12.1924 36.778 13.3655 36.6277 14.5583C36.5879 14.8692 36.61 15.2463 37.0698 15.2C37.7726 15.1272 38.4711 15.2639 39.1806 15.0986C40.1393 14.8772 41.1281 14.8153 42.107 14.9156C43.0685 15.0126 44.0123 14.8935 44.9627 14.8913C45.1837 14.8913 45.4269 14.6554 45.7253 14.6487C47.3079 14.6047 48.8971 14.9089 50.4752 14.5606C50.5958 14.5592 50.7154 14.5824 50.8266 14.6289C51.4897 14.7766 52.1351 14.9111 52.8159 14.7149C52.8899 14.6919 52.9682 14.6861 53.0449 14.698C53.1215 14.7098 53.1944 14.739 53.2579 14.7833C53.647 15.0478 54.0802 14.9729 54.5112 14.9685C54.9992 14.9764 55.4857 15.0251 55.9656 15.114C56.6574 15.222 57.3691 15.63 58.0985 15.2176C58.1402 15.2069 58.1838 15.2059 58.226 15.2147C58.2681 15.2235 58.3077 15.2418 58.3416 15.2683C58.8014 15.6366 59.3119 15.4888 59.796 15.3918C60.238 15.308 60.7796 15.3565 60.9785 15.6123C61.4714 16.2562 62.0991 16.104 62.7136 16.1459C63.2153 16.179 63.4253 15.9254 63.4341 15.4403C63.4673 13.6279 63.8541 11.8529 64.0066 10.0492C64.1989 7.76264 64.3116 5.44521 64.9725 3.21379C65.0432 2.97345 64.9173 2.82792 64.7006 2.8632C63.969 2.98668 63.233 2.90509 62.4903 2.93596C61.3255 2.98668 60.1651 3.13661 58.9959 3.18071C57.8598 3.22261 56.7237 3.16748 55.581 3.32624C54.4383 3.485 53.2955 3.34609 52.1484 3.47177C51.6002 3.5313 50.9725 3.51807 50.4575 3.16748C50.4098 3.13396 50.3534 3.1147 50.2951 3.11196C50.2368 3.10923 50.1789 3.12313 50.1282 3.15205C49.2087 3.49823 48.2251 3.33506 47.2769 3.48279C46.1916 3.65478 45.0799 3.57981 43.9791 3.67904C43.042 3.76282 42.1026 3.89953 41.1676 3.91497C39.3021 3.96789 37.4521 4.22146 35.5889 4.30304C34.2892 4.36258 32.9652 4.49267 31.659 4.6382C29.5459 4.87192 27.4174 4.97115 25.2977 5.18282C22.6918 5.44301 20.0704 5.5731 17.4623 5.80683C15.7471 5.95897 14.0164 6.08025 12.3344 6.42202C10.1241 6.86301 7.90052 7.02618 5.65929 7.14745C5.04925 7.18052 4.37953 7.1695 3.70318 7.66562C4.24273 7.8878 4.82408 7.99085 5.40732 7.9677C7.4209 7.82658 9.43668 8.10441 11.4547 7.90155C12.0669 7.83981 12.6814 7.60388 13.3312 7.82878C13.5591 7.92103 13.8056 7.95832 14.0506 7.93763C14.2956 7.91694 14.5323 7.83885 14.7414 7.70972C14.8517 7.65161 14.973 7.61709 15.0974 7.60836C15.2219 7.59962 15.3468 7.61687 15.4642 7.659C15.7557 7.72028 16.0568 7.72028 16.3483 7.659C16.987 7.57521 17.6744 7.42307 18.2668 7.58403C18.764 7.69948 19.2817 7.69419 19.7764 7.5686C20.105 7.50397 20.4385 7.46782 20.7733 7.46056C23.7329 7.44733 26.6947 7.48922 29.6476 7.15627C31.6634 6.93577 33.6858 6.74394 35.7126 6.62708C36.1547 6.60282 36.5282 6.8608 36.9593 6.70866C37.7528 6.42642 38.5882 6.39776 39.4193 6.35146C41.3496 6.24562 43.2777 6.12802 45.2036 5.99866C46.7332 5.89944 48.2649 5.81785 49.79 5.65689C51.3505 5.49152 52.9308 5.529 54.4825 5.24677C54.9593 5.12456 55.4473 5.05069 55.939 5.02627C57.97 5.06886 59.9978 4.84648 61.9709 4.36478C62.1566 4.32068 62.424 4.14428 62.5036 4.47944C62.5192 4.53896 62.5221 4.60107 62.5121 4.66178C62.5022 4.72249 62.4797 4.78046 62.446 4.83196C62.4122 4.88346 62.3681 4.92735 62.3163 4.96082C62.2646 4.99428 62.2064 5.01658 62.1455 5.02627C61.6488 5.18903 61.1424 5.32085 60.6293 5.42096C58.3836 5.82888 56.0871 5.72965 53.837 6.11773C53.2381 6.22136 52.617 6.1949 52.0069 6.24341C50.9637 6.325 49.9071 6.29413 48.8793 6.4154C48.0284 6.51683 47.1487 6.66236 46.3309 6.58518C45.4645 6.5036 44.5958 7.11879 43.7559 6.5477C43.7294 6.52785 43.6387 6.56534 43.6056 6.60062C43.2586 6.96885 42.7988 6.77701 42.3944 6.84316C41.6609 6.93194 40.9229 6.97759 40.1841 6.97987C39.0192 7.02618 37.8832 7.28636 36.7161 7.3018C35.0562 7.32605 33.4007 7.55316 31.743 7.60829C30.1626 7.66121 28.6043 8.04928 27.0041 8.17496C25.6779 8.26978 24.3363 8.28742 23.0079 8.37782C22.3751 8.44506 21.7389 8.47451 21.1026 8.46602C20.2074 8.42192 19.3012 8.58729 18.4105 8.35136C17.144 8.85409 15.8045 8.54981 14.4916 8.68211C13.8131 8.75046 13.0815 8.65124 12.4051 8.68211C10.4158 8.77031 8.44869 8.78133 6.47047 8.77251C5.49131 8.77251 4.51215 8.75046 3.53299 8.77251C2.90084 8.79015 2.79696 8.96655 2.85885 9.57512C3.01357 11.1186 3.32522 12.6422 3.13514 14.2056C3.06883 14.748 2.97821 15.3852 3.19039 15.8438C3.56393 16.6509 3.4291 17.4513 3.45121 18.2561C3.48436 19.4071 3.42911 20.5603 3.47994 21.7069C3.50868 22.322 3.37606 22.9438 3.47994 23.537C3.68329 24.613 3.67224 25.6978 3.6855 26.7739C3.70539 28.3681 3.6855 29.9711 3.76065 31.5564C3.79742 33.0381 3.91992 34.5164 4.12756 35.984C4.33311 37.2585 4.23144 38.5815 4.50331 39.8692C4.79286 41.234 4.56078 42.6298 4.63372 44.0123C4.67793 44.87 4.72875 44.9516 5.60403 44.9362C6.0063 44.9362 6.40637 44.9185 6.80864 44.9185C7.70602 44.9185 7.7657 44.9185 7.58224 44.0057C7.2927 42.5614 7.4872 41.0929 7.29048 39.6465C7.2819 39.6021 7.29093 39.5561 7.31567 39.5183C7.34042 39.4804 7.37895 39.4537 7.42311 39.4436C7.45157 39.4318 7.48219 39.4261 7.513 39.4268C7.54381 39.4275 7.57413 39.4346 7.60202 39.4477C7.62991 39.4607 7.65476 39.4795 7.67495 39.5027C7.69515 39.526 7.71024 39.5531 7.71928 39.5825C7.75907 39.695 7.73697 39.8383 7.79223 39.9397C8.06188 40.4182 7.73696 40.9077 7.82758 41.384C7.98571 42.0703 8.03936 42.7765 7.98673 43.4787C7.90495 44.2284 8.10167 44.418 8.87085 44.3607C11.3464 44.1667 13.8064 44.8017 16.282 44.4776C16.3107 44.4776 16.3416 44.493 16.3726 44.4952C17.3451 44.5283 18.3154 44.5944 19.2857 44.5812C20.0239 44.594 20.7621 44.5608 21.496 44.482C22.0304 44.4221 22.5692 44.414 23.1051 44.4577C23.6463 44.5007 24.1898 44.5073 24.7319 44.4776C24.9242 44.4643 25.1364 44.7576 25.3088 44.5106C25.5298 44.1953 25.8393 44.2549 26.1377 44.2306C27.0881 44.1512 28.0363 44.0322 28.9956 44.0366C29.82 44.0366 30.6467 43.9748 31.4733 43.9307C31.7164 43.9175 32.0281 43.9748 32.1828 43.7874C32.5563 43.331 32.6934 42.6849 33.3189 42.4269C33.3764 42.4027 33.3896 42.1932 33.3742 42.0763C33.2681 41.2274 33.5598 40.4116 33.5665 39.5627C33.5665 38.9717 33.3918 38.3588 33.6394 37.7436C33.8273 37.2783 33.6748 37.135 33.1376 37.1703C31.2302 37.296 29.3072 37.3313 27.424 37.6289C25.1707 37.9563 22.8956 38.1118 20.6185 38.0942C18.7276 38.0972 16.8396 38.2446 14.9713 38.5352C13.6451 38.7424 12.3056 38.8417 11.0612 39.4172C10.9565 39.4526 10.8455 39.4654 10.7355 39.4549C10.6254 39.4444 10.5188 39.4108 10.4228 39.3562C10.3267 39.3016 10.2433 39.2273 10.1781 39.1383C10.1129 39.0492 10.0674 38.9474 10.0445 38.8395C10.0408 38.5632 9.97107 38.2919 9.84117 38.0479C9.82216 38.0237 9.80843 37.9957 9.80087 37.9659C9.79332 37.9361 9.79211 37.905 9.79731 37.8747C9.80252 37.8444 9.81403 37.8155 9.83109 37.7899C9.84816 37.7642 9.87042 37.7425 9.89643 37.7259C10.2213 37.5738 10.5595 37.2342 10.9154 37.4349C11.4613 37.7414 11.8437 37.4746 12.2747 37.2144C12.6394 36.9939 12.993 36.7227 13.466 36.7866C14.5712 36.9322 15.6564 36.511 16.7572 36.6411C17.6236 36.7447 18.4326 36.4625 19.246 36.2971C19.6681 36.2111 20.0593 36.5066 20.3622 36.3368C21.0783 35.9311 21.8828 36.2817 22.5901 35.9686C23.6643 36.4956 24.7783 35.4791 25.8503 36.0524C25.8702 36.0524 25.91 36.0391 25.9387 36.0347C26.7322 35.8936 27.5368 35.8738 28.3303 35.7768C28.9934 35.6952 29.6564 35.6489 30.3041 35.6092C30.8743 35.5761 31.4645 35.3225 31.9927 35.4725C32.521 35.6224 32.9498 35.3865 33.4228 35.3336C33.8251 35.2895 33.9135 35.0359 33.9002 34.6853C33.8428 33.0272 34.024 31.3778 34.1212 29.7285C34.1429 29.5449 34.1525 29.36 34.15 29.1751C34.1234 28.6768 33.9731 28.5246 33.4603 28.5136C33.1863 28.5136 32.8989 28.6172 32.6359 28.5136C31.712 28.1211 30.7395 28.335 29.8377 28.4452C28.5756 28.6018 27.3135 28.5114 26.0603 28.5753C25.0038 28.626 23.9428 28.7804 22.8708 28.776C21.4916 28.776 20.1124 29.0781 18.7332 29.2633C18.342 29.3162 17.964 29.4838 17.5595 29.4088C16.7594 29.2478 15.9946 29.4419 15.2078 29.5565C14.569 29.6491 13.8528 30.1607 13.2185 29.4838C13.1654 29.4544 13.1057 29.439 13.045 29.439C12.9843 29.439 12.9246 29.4544 12.8715 29.4838C12.0912 30.1629 11.1253 29.6734 10.2655 29.8917C9.85664 29.9953 9.30186 29.5499 9.10956 30.3062C9.0963 30.3614 8.88853 30.4055 8.76917 30.39C8.20555 30.3217 7.63971 30.5598 7.02746 30.2754C7.05619 31.3778 6.93242 32.3855 7.09598 33.3998C7.22417 34.1804 7.28607 34.9741 7.36343 35.7613C7.38553 35.9818 7.47394 36.2729 7.1225 36.3633C6.93684 36.242 6.97441 36.0458 6.94347 35.8672C6.74896 34.7757 6.85065 33.6622 6.65172 32.5729C6.51327 31.976 6.55088 31.3519 6.76002 30.7759C6.95674 30.2445 7.04956 29.6469 6.40416 29.2324C6.18313 29.0935 6.22071 28.8267 6.38206 28.5709C6.75781 27.9822 6.82411 27.9513 7.56677 28.271C7.75907 28.3526 8.03756 28.5268 8.10387 28.2468C8.31164 27.3869 8.98799 27.6448 9.51846 27.6029C10.1329 27.5544 10.7739 27.6338 11.3574 27.4839C12.0296 27.3334 12.6935 27.1487 13.3467 26.9304C13.9391 26.7099 14.4518 26.5071 14.8939 27.1509C14.9154 27.1727 14.9421 27.1885 14.9715 27.197C15.001 27.2055 15.0321 27.2063 15.0619 27.1994C15.725 26.9613 16.4013 27.2546 17.0511 27.1818C17.7761 27.1046 18.5144 27.195 19.2217 27.0385C20.0328 26.8599 20.8639 27.0164 21.6662 26.818C21.988 26.7484 22.3162 26.7129 22.6454 26.7121C23.1383 26.6945 23.6997 26.8224 24.1108 26.6614C24.8623 26.3682 25.658 26.8378 26.3498 26.4123C26.9356 26.7298 27.5655 26.5049 28.1181 26.4233C29.2551 26.285 30.3987 26.207 31.544 26.1896C32.4038 26.1543 33.2261 25.8963 34.0792 25.8323C34.424 25.8059 34.5434 25.5655 34.5478 25.2569C34.5963 24.0925 34.7204 22.9324 34.9192 21.784C35.0584 20.8116 34.8595 19.8216 35.1402 18.8536C35.2794 18.3774 35.1733 18.3002 34.6407 18.2781C34.2425 18.2908 33.8438 18.279 33.4471 18.2428C33.0541 18.1688 32.6495 18.1823 32.2624 18.2825C31.8424 18.3928 31.4026 17.7622 31.0556 18.1458C30.5582 18.6927 30.4566 17.8283 30.083 17.9694C29.904 18.0356 29.7603 18.0444 29.6763 18.2517C29.5923 18.4589 29.3382 18.5736 29.2586 18.3597C29.0906 17.9187 28.8607 18.0466 28.538 18.1216C28.0496 18.2318 27.4727 17.8173 27.0417 18.3663C27.024 18.3884 26.8582 18.3355 26.7985 18.2781C26.5024 18.0047 26.1885 18.1943 25.8768 18.1789C25.2469 18.1436 24.6789 18.3597 24.0777 18.4148C23.2267 18.4964 22.3382 18.686 21.4452 18.8316V18.847ZM61.3764 30.0284C61.4119 30.0311 61.4476 30.0266 61.4814 30.0152C61.5152 30.0038 61.5463 29.9857 61.5729 29.9621C61.5996 29.9384 61.6211 29.9096 61.6363 29.8774C61.6516 29.8453 61.6601 29.8104 61.6615 29.7748C61.7543 29.1685 61.8538 28.5621 61.9245 27.9513C62.2759 24.9063 62.9877 21.9119 63.2507 18.8536C63.317 18.1128 63.3413 18.1061 62.5544 18.2164C62.34 18.226 62.1253 18.2075 61.9157 18.1613C61.5819 18.1117 61.2452 18.0852 60.9078 18.0819C60.1342 18.0995 59.3606 18.1414 58.587 18.1855C58.0034 18.2186 57.4089 18.1128 56.8519 18.1282C55.7467 18.1591 54.6416 17.8746 53.5519 18.0179C52.5794 18.1436 51.6201 17.9297 50.6454 17.9827C49.9646 18.0201 49.2816 17.6585 48.5567 17.9143C48.3688 17.9805 48.1278 17.7159 47.856 17.8327C46.9431 18.2252 45.922 17.6122 45.0069 18.1238C44.7859 18.2495 44.6886 17.8614 44.3726 17.8923C43.6056 17.965 42.8386 18.062 42.0584 18.0664C40.7322 18.0664 39.406 18.1723 38.0799 18.1679C36.4884 18.1679 36.4907 18.1833 36.4708 19.7885C36.4708 19.9914 36.6034 20.2802 36.3713 20.3817C35.9292 20.5713 36.0442 20.9373 36.0353 21.2482C36.0044 22.6307 36.0707 24.0155 35.8519 25.3891C35.8077 25.6692 35.9447 25.8301 36.2033 25.7949C36.9769 25.7067 37.7152 26.0021 38.4888 25.9536C39.6293 25.8809 40.761 26.108 41.9103 26.0815C42.5933 26.0661 43.2718 26.2403 43.9438 25.958C44.0876 25.9124 44.242 25.9124 44.3858 25.958C44.7993 26.0881 45.246 26.0646 45.6435 25.8919C45.8092 25.8442 45.9821 25.8263 46.1541 25.839C46.8879 25.7662 47.5841 26.0308 48.3069 26.0087C49.7613 25.9668 51.2134 26.0484 52.6722 25.9713C53.5563 25.925 54.4692 26.3792 55.3246 25.7905C55.3517 25.7758 55.3821 25.7681 55.413 25.7681C55.4439 25.7681 55.4743 25.7758 55.5014 25.7905C55.8241 26.0903 56.3059 25.8434 56.6264 26.1168C56.7078 26.1905 56.8138 26.2314 56.9237 26.2314C57.0336 26.2314 57.1396 26.1905 57.221 26.1168C57.778 25.7155 58.2731 25.6758 58.7284 26.2733C58.7925 26.3549 58.9495 26.3505 59.0666 26.4056C59.6347 26.6967 59.6722 27.2369 59.1661 27.6294C58.8677 27.8609 58.5383 27.8146 58.1957 27.7948C57.9747 27.7948 57.7404 27.7 57.5547 27.9976C57.1127 28.701 56.8386 28.7539 56.0562 28.5114C55.5368 28.3482 54.951 28.0417 54.4803 28.1498C53.311 28.41 52.1307 28.2314 50.9592 28.4188C49.8276 28.5996 48.6495 28.4783 47.4935 28.5268C46.8813 28.5533 46.2646 28.712 45.6612 28.5687C45.1607 28.4402 44.6462 28.3743 44.1294 28.3725C43.4022 28.3835 42.6795 28.1917 41.9656 28.238C40.814 28.3173 39.6624 28.5334 38.5087 28.4893C37.7749 28.4629 36.9615 28.9965 36.2984 28.2468C36.2984 28.2468 36.2321 28.2732 36.2254 28.2953C36.0773 28.7936 35.5248 28.4276 35.2993 28.7187C35.0496 29.0472 35.264 29.4353 35.2198 29.7947C35.1866 30.0703 35.1689 30.3459 35.1225 30.6193C34.9015 31.9423 34.9943 33.2653 34.9015 34.5883C34.8528 35.2277 35.0761 35.349 35.737 35.2498C36.3332 35.1486 36.9385 35.1101 37.5428 35.1351C37.9848 35.1638 38.4269 35.1836 38.8689 35.1924C39.9741 35.2167 41.0594 34.8242 42.1601 35.166C42.3698 35.2179 42.5891 35.2179 42.7988 35.166C43.4774 35.0359 44.1471 34.725 44.8566 35.0447C44.9765 35.0742 45.1029 35.0617 45.2147 35.0094C45.8778 34.7669 46.5409 35.0094 47.204 34.9367C47.7897 34.8815 48.4086 35.0668 48.9722 34.9543C49.6353 34.822 50.3558 35.0271 50.9902 34.65C51.1471 34.5574 51.3505 34.7867 51.503 34.7757C52.0069 34.7426 52.4225 35.3027 52.8977 35.0403C53.2646 34.8374 53.6204 34.908 53.9652 34.908C54.9621 34.908 55.9545 34.983 56.9536 35.0249C57.1387 35.0371 57.3246 35.0304 57.5083 35.005C57.7802 34.9609 58.1007 34.9433 57.904 34.5023C57.8178 34.3082 57.9836 34.2289 58.1493 34.2178C58.6179 34.1914 59.1196 33.9973 59.4401 34.5927C59.5352 34.7735 59.8446 34.8551 60.0701 34.9543C60.123 34.9875 60.1831 35.0078 60.2453 35.0137C60.3076 35.0195 60.3704 35.0108 60.4286 34.988C60.4869 34.9653 60.5389 34.9293 60.5807 34.8828C60.6225 34.8364 60.6527 34.7808 60.6691 34.7206C60.7603 34.5612 60.8344 34.3927 60.8901 34.2178C61.1443 32.7626 61.5797 31.3183 61.173 29.8189C61.036 29.2294 61.0023 28.6207 61.0735 28.0197C61.3631 28.0616 61.5487 28.1476 61.4493 28.4386C61.2725 28.948 61.3498 29.4772 61.3764 30.013V30.0284ZM47.425 16.4656C46.9829 16.1393 46.9829 16.1239 46.4524 16.1173C44.4116 16.0879 42.3715 16.1217 40.3322 16.2187C39.448 16.2628 38.5529 16.3157 37.6621 16.362C37.4787 16.362 37.2731 16.362 37.2532 16.6112C37.2333 16.8603 37.4102 16.9838 37.6577 16.9882C37.7815 16.9882 37.9053 16.9882 38.0268 16.9882C39.1762 16.9551 40.3189 16.8405 41.4727 16.8956C42.2646 16.9663 43.0618 16.953 43.8509 16.8559C44.6517 16.7372 45.4595 16.6709 46.269 16.6575C46.647 16.642 47.0603 16.7126 47.425 16.4656ZM12.0603 45.2228C11.3972 45.2824 10.7341 44.6473 10.071 45.2802C10.7341 45.3066 11.384 45.644 12.0603 45.2228ZM9.72181 45.2603C9.46541 44.9715 9.15819 44.9847 8.76255 45.0575C9.06757 45.4014 9.40794 45.3309 9.71959 45.2603H9.72181ZM33.1156 43.1634C32.8813 43.3662 32.5961 43.4919 32.7641 43.8249C32.7906 43.88 33.0095 43.8976 33.0935 43.8513C33.3675 43.6838 33.2902 43.4589 33.1133 43.1634H33.1156Z" fill="currentColor"/>
</g>
<defs>
<filter id="filter0_d_24_11" x="0" y="0" width="76" height="54" filterUnits="userSpaceOnUse" color-interpolation-filters="sRGB">
<feFlood flood-opacity="0" result="BackgroundImageFix"/>
<feColorMatrix in="SourceAlpha" type="matrix" values="0 0 0 0 0 0 0 0 0 0 0 0 0 0 0 0 0 0 127 0" result="hardAlpha"/>
<feOffset dx="3" dy="3"/>
<feGaussianBlur stdDeviation="2"/>
<feComposite in2="hardAlpha" operator="out"/>
<feColorMatrix type="matrix" values="0 0 0 0 0 0 0 0 0 0 0 0 0 0 0 0 0 0 0.25 0"/>
<feBlend mode="normal" in2="BackgroundImageFix" result="effect1_dropShadow_24_11"/>
<feBlend mode="normal" in="SourceGraphic" in2="effect1_dropShadow_24_11" result="shape"/>
</filter>
</defs>
</svg>
