<svg width="67" height="82" viewBox="0 0 67 82" fill="none" xmlns="http://www.w3.org/2000/svg">
<g>
<path opacity="0.5" d="M11.8576 69.3348C11.4392 68.7706 11.0274 68.2041 10.6046 67.6442C9.79634 66.5583 9.1409 65.3683 8.6563 64.107C7.59126 61.3263 6.81388 58.4454 6.33611 55.5088C6.128 54.3034 5.86015 53.0936 5.81144 51.8816C5.74945 50.3271 5.62102 48.7703 5.73615 47.2048C5.84684 45.6789 6.04833 44.1639 6.14796 42.6401C6.18117 42.1219 6.42913 41.6301 6.31844 41.1031C5.97306 40.9692 5.87565 41.2546 5.76496 41.439C4.83511 42.976 3.84104 44.4888 3.36726 46.2695C3.16358 47.0314 2.83369 47.7472 2.79605 48.5596C2.78082 49.3874 2.93759 50.2096 3.25656 50.9748C3.39604 51.3458 3.489 51.7345 3.62405 52.1077C3.68171 52.2345 3.69313 52.3772 3.65638 52.5114C3.61962 52.6455 3.537 52.7629 3.42261 52.8433C3.17243 53.0628 2.89568 52.9728 2.63 52.8982C2.52576 52.8624 2.43061 52.8046 2.3511 52.7288C2.27159 52.653 2.2096 52.5609 2.16949 52.459C1.63815 51.3612 1.04261 50.2634 1.0094 48.9987C0.9939 48.3839 0.958477 47.7757 1.28614 47.207C1.39061 46.9845 1.45291 46.7449 1.46991 46.5C1.65588 45.1585 2.26248 43.9487 2.67206 42.6774C2.95101 41.7991 3.21006 40.9209 3.52222 40.0668C5.43717 34.849 7.66539 29.7496 10.195 24.796C10.6577 23.8804 10.9411 22.8858 11.3019 21.9285C12.2296 19.4583 13.3166 17.0563 14.4413 14.6828C15.0391 13.4159 15.7055 12.171 16.7637 11.1697C17.2685 10.6933 17.5939 10.0346 17.8994 9.40005C18.2603 8.65353 18.5481 7.86309 19.0286 7.18902C19.1222 7.0852 19.1762 6.95208 19.181 6.81285C19.1859 6.67363 19.1413 6.53712 19.0551 6.42713C18.6787 5.92433 18.5924 5.28978 18.3024 4.75843C17.8352 3.89554 17.9902 3.0546 18.2005 2.19171C18.2105 2.09945 18.2471 2.012 18.3061 1.93993C18.365 1.86785 18.4437 1.81423 18.5326 1.78552C18.6393 1.76483 18.7498 1.77612 18.8499 1.81796C18.9501 1.85981 19.0354 1.9303 19.095 2.02045C19.7326 2.74282 19.7414 2.74063 20.1576 1.89311C20.2882 1.62743 20.4477 1.40128 20.7775 1.4408C21.0653 1.47593 21.1605 1.69769 21.2203 1.95678C21.4174 2.83504 21.5148 3.71331 21.2734 4.59157C21.1295 5.11633 21.2735 5.70915 20.8528 6.16805C20.8277 6.19795 20.8094 6.23288 20.7992 6.27044C20.789 6.308 20.7871 6.34731 20.7936 6.38568C20.8001 6.42404 20.8149 6.46056 20.837 6.49272C20.8591 6.52489 20.8879 6.55195 20.9215 6.57205C21.8735 7.3559 22.3716 8.46031 23.0114 9.46592C23.2217 9.79746 23.39 10.2871 23.8217 10.2695C24.2091 10.252 24.2778 9.74477 24.4394 9.43518C25.0593 8.24733 26.0267 8.06729 27.1381 8.80722C27.8023 9.24635 28.5285 9.56253 29.1639 10.0478C29.207 10.0931 29.2605 10.1274 29.3199 10.1477C29.3794 10.1679 29.4429 10.1735 29.505 10.164C29.5671 10.1545 29.6259 10.1302 29.6764 10.0931C29.7269 10.056 29.7675 10.0073 29.7948 9.95116C30.1004 9.45275 30.459 9.36712 30.9018 9.81722C31.0202 9.92304 31.1755 9.97882 31.3347 9.97267C31.494 9.96651 31.6445 9.89892 31.7542 9.78429C32.177 9.42859 32.6398 9.14755 33.0958 8.83138C33.1999 8.76427 33.2885 8.67623 33.356 8.57297C33.4235 8.46971 33.4684 8.35353 33.4877 8.23196C33.4908 8.15545 33.5212 8.08254 33.5735 8.02623C33.6259 7.96992 33.6966 7.93388 33.7733 7.92457C34.6433 7.77087 35.3562 7.30759 36.0603 6.81137C36.6049 6.42933 36.9348 6.48641 37.5037 6.81137C38.5664 7.41079 39.3856 8.27587 40.249 9.16511C40.5014 8.9214 40.7117 8.57449 41.1634 8.79625C41.4224 8.92359 41.6416 8.72159 41.8275 8.5657C42.9721 7.57985 44.0415 6.52374 45.1175 5.45446C45.3898 5.18 45.3388 4.9275 45.1573 4.63329C44.7411 3.95044 44.3381 3.261 43.9418 2.56717C43.6518 2.05998 43.7204 1.70208 44.1344 1.48691C44.3422 1.38107 44.5837 1.36091 44.8063 1.43082C45.029 1.50073 45.2148 1.65505 45.3233 1.86017C45.5997 2.53005 45.9392 3.17256 46.3373 3.77917C46.9439 3.19513 47.2605 2.46178 47.7453 1.84919C47.8804 1.68232 47.9668 1.47374 48.1062 1.31784C48.4826 0.909453 48.8258 0.889689 49.2132 1.2871C49.656 1.72623 49.9881 2.1983 50.0191 2.88115C50.081 4.26222 50.5792 5.57522 50.7519 6.9475C50.9489 8.49544 51.1172 10.0478 51.4625 11.5759C51.5644 12.0348 51.4824 12.542 51.4492 13.0251C51.3906 13.4217 51.4435 13.8266 51.602 14.1954C52.213 15.3854 52.3636 16.7072 52.7488 17.9609C53.0986 19.0939 53.3909 20.2444 53.7385 21.3773C53.9981 22.2527 54.1964 23.1448 54.3318 24.0473C54.4526 24.7941 54.6182 25.5332 54.8277 26.2605C54.8963 26.5042 54.9827 26.7194 54.8875 26.9609C54.8496 27.045 54.8358 27.1378 54.8475 27.2292C54.8592 27.3206 54.896 27.407 54.9539 27.4791C55.1886 27.793 55.1753 28.1641 55.2173 28.5286C55.3767 29.6945 55.6601 30.8494 55.7464 32.0175C55.8106 32.8628 56.1892 33.6686 56.0343 34.5337C56.0104 34.6236 56.0222 34.7192 56.067 34.8008C56.1119 34.8824 56.1865 34.944 56.2756 34.9728C56.9929 35.1046 57.2719 35.8511 57.9228 36.0707C58.0288 36.1016 58.1226 36.1641 58.1915 36.2497C58.2604 36.3354 58.3011 36.44 58.308 36.5493C58.3412 37.4012 58.8814 38.0863 59.0652 38.8987C59.2002 39.4871 59.3906 40.047 59.3463 40.6859C59.3109 41.2085 59.4681 41.7574 59.5345 42.291C59.7847 44.3088 59.5965 46.3244 59.6054 48.3378C59.6054 50.0482 59.4105 51.7608 59.384 53.4603C59.3485 55.3946 59.3109 57.3641 59.8422 59.2963C60.13 60.3436 59.9972 61.492 59.6607 62.5569C59.3463 63.5515 59.1758 64.5856 58.7596 65.5495C58.6853 65.7517 58.6588 65.968 58.6821 66.1819C58.7093 66.394 58.6957 66.6093 58.6423 66.8164C57.8829 68.832 57.6682 70.9882 56.9929 73.0257C56.9265 73.2299 56.8711 73.4385 56.7981 73.6405C56.767 73.7275 56.7178 73.8071 56.6537 73.8741C56.5897 73.941 56.5121 73.9938 56.4261 74.0292C56.3476 74.0793 56.2561 74.1059 56.1627 74.1059C56.0693 74.1059 55.9778 74.0793 55.8993 74.0292C55.7598 73.9238 55.8129 73.7569 55.824 73.6032C55.9125 72.3122 56.2668 71.0716 56.5612 69.8223C56.6232 69.5654 56.7538 69.3151 56.6586 68.944C56.1118 69.3832 55.5959 69.7652 55.1244 70.1912C54.4014 70.8649 53.571 71.4154 52.6669 71.8203C50.6057 72.7162 48.4981 73.4078 46.1978 73.3309C44.7853 73.2826 43.3662 73.3836 41.956 73.3112C41.0438 73.2651 40.1294 73.287 39.2151 73.2124C38.4624 73.1509 37.6897 73.1311 36.9237 73.1421C36.7723 73.1619 36.619 73.1619 36.4676 73.1421C35.5223 72.8874 34.6677 73.2277 33.7932 73.4934C31.9911 74.0423 30.1314 74.3322 28.2761 74.6198C27.5123 74.7384 26.7728 75.004 25.9913 74.9975C24.0674 74.9975 22.128 75.0523 20.2351 74.6527C18.4197 74.2685 16.6663 73.6471 15.2627 72.3517C14.5741 71.7171 13.6842 71.5349 12.8429 71.2736C11.0767 70.7077 9.43027 69.8251 7.98547 68.6696C7.50062 68.2919 7.05341 67.866 6.60399 67.4444C6.39623 67.2601 6.21719 67.0462 6.07267 66.8098C5.90219 66.5112 5.79369 66.1358 6.10364 65.8789C6.41359 65.622 6.68372 65.8965 6.90954 66.0984C7.82934 66.9736 8.81924 67.7733 9.86952 68.4895C10.4797 68.8799 11.1518 69.1657 11.8576 69.3348ZM38.9096 71.5503C39.6092 72.0948 39.6092 72.0926 40.3818 72.0048C40.6235 71.9635 40.8709 71.9695 41.1102 72.0223C41.8807 72.2309 42.6998 72.1299 43.4658 72.1124C44.2318 72.0948 45.0598 72.0948 45.848 72.0948C46.8628 72.1177 47.8772 72.0346 48.8745 71.8467C49.6759 71.6798 50.3578 71.2165 51.0884 71.0101C51.8143 70.7813 52.5089 70.4642 53.1562 70.066C55.7819 68.5927 57.1103 66.2148 57.4933 63.3649C57.7192 61.5183 57.8441 59.661 57.8674 57.8011C57.9006 56.4332 57.6172 55.1377 57.4755 53.816C57.3737 52.8543 57.0682 51.9035 56.9486 50.9309C56.9044 50.5664 56.9487 50.1492 56.787 49.8484C56.3442 49.0514 56.4771 48.1753 56.3442 47.3432C56.0609 45.5866 55.9015 43.8301 55.6801 42.0736C55.6535 41.854 55.5915 41.6542 55.5649 41.4434C55.1664 38.3278 54.9782 35.1814 53.7583 32.2217C53.3865 31.2548 53.0905 30.2609 52.8728 29.2488C52.3104 26.8928 51.4559 24.6247 50.9046 22.271C50.7719 21.7329 50.5416 21.2233 50.2249 20.767C49.3056 19.4577 48.5301 18.0548 47.9114 16.582C47.5682 15.7279 47.3003 14.8519 47.0059 13.9824C46.5107 12.5618 46.1889 11.0875 46.0473 9.59107C46.0074 9.13218 45.9875 8.67109 45.9144 8.21879C45.8237 7.64133 45.6798 7.59083 45.2171 7.95092C44.0503 8.85553 43.023 9.92701 41.8209 10.7833C41.1567 11.2554 40.1184 11.3498 39.4763 10.847C38.8874 10.3881 38.4402 9.79966 37.9576 9.23977C37.3488 8.53496 37.3112 8.55692 36.4832 8.93676C35.2743 9.48787 34.2205 10.3003 33.0427 10.9129C32.4184 11.2334 31.7741 11.5211 31.1653 11.8877C30.5011 12.2829 29.6997 12.474 28.9514 11.8548C28.6045 11.5988 28.2405 11.3662 27.8621 11.1588C27.3662 10.8459 26.8387 10.5854 26.288 10.3815C25.9914 10.2695 25.8209 10.3595 25.7722 10.6867C25.7325 11.0522 25.6644 11.4141 25.5685 11.7692C25.3183 12.5794 24.9043 12.7704 24.0896 12.4893C22.9465 12.0872 21.9743 11.3134 21.331 10.2937C21.1887 10.0572 21.0304 9.83052 20.8573 9.61522C20.5407 9.25074 20.3458 9.24636 20.182 9.66792C19.5776 11.2203 18.5702 12.6211 18.3953 14.3337C18.3953 14.4259 18.4286 14.6389 18.236 14.5335C17.6028 14.1888 17.5873 14.8453 17.543 15.0539C17.4102 15.673 16.6796 16.0331 16.8346 16.7643C16.8567 16.8697 16.6752 17.0146 16.5932 17.1441C16.2944 17.6096 15.9977 18.0773 15.7077 18.5428C15.5748 18.7623 15.4066 18.9819 15.5948 19.2168C16.0375 19.7504 15.6988 20.2005 15.3734 20.5145C14.6915 21.1732 14.397 22.1568 13.5026 22.6355C13.3122 22.7343 13.2236 23.0285 13.1019 23.2393C12.8805 23.6389 12.6591 24.0473 12.4377 24.4469C11.2776 26.4691 10.0887 28.4759 9.14335 30.6123C8.25778 32.6301 7.30359 34.6237 6.38259 36.6262C6.1125 37.2124 5.84465 37.7965 5.59005 38.3827C5.52806 38.5254 5.53023 38.7033 5.71399 38.7669C5.84682 38.813 5.93539 38.6901 6.00181 38.5891C6.06229 38.5194 6.11161 38.4409 6.14796 38.3564C6.42027 37.511 7.11101 36.9423 7.58036 36.2244C7.93016 35.6886 8.46593 35.6799 8.90872 36.0795C9.22309 36.3583 9.15668 36.692 9.07698 37.0148C8.89765 37.7591 8.67844 38.4925 8.48804 39.2346C7.95936 41.1562 7.57677 43.1143 7.34346 45.0926C7.25269 45.9709 7.34344 46.8689 7.2106 47.7472C7.05479 48.737 7.03915 49.7435 7.16412 50.7377C7.39658 52.3866 7.53607 54.0509 7.90137 55.6932C8.31095 57.542 8.64523 59.4039 9.20756 61.2175C9.94701 63.6108 10.9787 65.8657 12.5816 67.8176C13.5004 68.9352 14.4944 69.9958 15.9401 70.47C16.7615 70.7379 17.6404 70.8235 18.4463 71.1067C19.8233 71.5876 21.2602 71.7193 22.6749 71.9455C24.8401 72.2902 27.0451 72.165 29.2347 72.2595C29.6443 72.2748 30.003 72.0772 30.4192 72.1168C31.3778 72.2068 32.3121 72.1431 33.0537 71.3944C33.2234 71.2568 33.4346 71.1795 33.6537 71.1748C34.2059 71.1007 34.7665 71.1147 35.3142 71.2165C35.6144 71.2766 35.9263 71.2348 36.1998 71.098C37.2447 70.6457 38.3162 70.2526 39.3656 69.8091C40.1604 69.4754 40.953 69.1263 41.7213 68.7354C44.8783 67.126 47.9557 65.3563 51.2589 64.0389C52.2308 63.6503 53.2292 63.3297 54.2189 62.9872C54.3871 62.9301 54.593 62.8357 54.7369 63.0048C54.8808 63.1738 54.8033 63.411 54.7037 63.602C54.5977 63.7906 54.4212 63.9302 54.2122 63.9906C51.8477 64.8447 49.76 66.2324 47.5439 67.3807C45.3278 68.529 43.1626 69.9079 40.7405 70.7225C40.1383 70.9157 39.5051 71.0936 38.9096 71.5503ZM49.1711 3.26539C48.7018 3.38396 48.6664 3.72867 48.5313 3.98556C48.3963 4.24246 48.3343 4.58498 48.1483 4.81552C47.7896 5.26783 47.8561 5.69379 48.0509 6.17683C48.6464 7.65451 49.2619 9.12339 49.7357 10.645C49.8264 10.937 49.8995 11.2356 49.9947 11.5232C50.0345 11.6462 50.1408 11.7428 50.2736 11.6747C50.3356 11.6462 50.3755 11.5342 50.3932 11.4552C50.403 11.3647 50.403 11.2734 50.3932 11.1829C50.2825 8.5152 49.6892 5.91335 49.1711 3.26539ZM47.245 8.90383C46.6915 10.9194 48.4649 16.8872 49.9017 17.906C49.605 14.663 48.6066 11.7318 47.245 8.90383ZM53.424 25.8762C53.3997 25.4591 53.6742 24.998 53.6056 24.6972C53.506 24.2778 53.2669 23.8387 53.2049 23.3996C53.0633 22.4316 52.8411 21.4768 52.5407 20.5452C52.4499 20.2642 52.7975 20.1061 52.6381 19.9019C52.0802 19.2102 52.0492 18.3517 51.8256 17.5547C51.7437 17.2693 51.7326 16.828 51.3385 16.896C50.8958 16.9707 51.0995 17.4098 51.1504 17.6711C51.6672 20.4663 52.4279 23.2117 53.424 25.8762ZM20.6447 72.7732C20.3968 72.7732 20.2816 72.804 20.2506 72.9467C20.2418 72.9764 20.24 73.0078 20.2453 73.0383C20.2506 73.0689 20.263 73.0978 20.2814 73.1228C20.2998 73.1479 20.3238 73.1684 20.3514 73.1828C20.3791 73.1972 20.4098 73.205 20.441 73.2058C20.9502 73.1399 21.4085 73.6844 21.9354 73.32C22.097 73.2102 22.2232 73.32 22.3494 73.3968C22.4921 73.5157 22.6685 73.5878 22.8542 73.6032C22.9159 73.6095 22.9779 73.5961 23.0313 73.5649C23.0847 73.5337 23.1266 73.4863 23.1509 73.4297C23.1996 73.298 23.1088 73.2102 22.976 73.1641C22.1834 72.894 21.3266 73.0016 20.6447 72.7732ZM18.3887 72.5229L19.5355 72.9269C19.6994 72.9862 19.8543 72.984 19.8853 72.7842C19.9075 72.6481 19.7591 72.5207 19.6639 72.5647C19.2809 72.7513 18.9643 72.3561 18.3887 72.5229ZM50.9666 15.6028C50.9246 15.987 50.9002 16.2768 51.2079 16.5425C51.3452 16.1583 51.1747 15.9211 50.9666 15.6028ZM49.7401 3.27856L49.6095 3.18195C49.594 3.23026 49.5541 3.28734 49.5674 3.32467C49.5807 3.362 49.6493 3.39713 49.6914 3.43226C49.7091 3.38396 49.7246 3.33345 49.7401 3.27856ZM5.16494 39.2873C5.03432 39.3093 4.97897 39.4059 4.94354 39.5069C4.9214 39.5793 4.94356 39.6232 5.01662 39.6386C5.14503 39.6606 5.23804 39.6232 5.26461 39.4827C5.27123 39.4439 5.26513 39.4039 5.2472 39.3688C5.22927 39.3336 5.20041 39.3051 5.16494 39.2873ZM28.265 73.4297C28.2141 73.4539 28.1278 73.4715 28.1212 73.5022C28.1158 73.5245 28.1159 73.5478 28.1214 73.5701C28.1269 73.5924 28.1376 73.6131 28.1527 73.6304C28.1679 73.6478 28.1869 73.6614 28.2084 73.67C28.2298 73.6786 28.2531 73.6821 28.2761 73.6801C28.3248 73.6801 28.42 73.6427 28.4222 73.6164C28.4253 73.5935 28.4236 73.5702 28.4173 73.548C28.4109 73.5257 28.4 73.505 28.3853 73.4871C28.3706 73.4692 28.3523 73.4545 28.3316 73.4439C28.3109 73.4333 28.2883 73.4269 28.265 73.4254V73.4297Z" fill="currentColor"/>
<path opacity="0.5" d="M28.9466 23.7406C29.1251 24.2561 28.8337 24.4373 28.4021 24.5209C28.0887 24.5815 27.8026 24.7444 27.5864 24.9854C27.1884 25.3984 26.7359 25.7518 26.242 26.0351C25.7042 26.3742 25.6884 26.5623 26.1991 26.9641C26.8487 27.5261 27.4469 28.148 27.9863 28.822C28.7613 29.7231 28.6439 30.7914 28.2417 31.7227C27.2678 33.9777 25.5822 33.5527 24.3801 32.4055C23.874 31.9224 23.3746 31.4208 23.1826 30.6915C23.1283 30.4825 23.056 30.2271 22.8052 30.1806C22.516 30.1342 22.4821 30.4129 22.376 30.6103C21.8698 31.4997 21.2281 32.3033 20.8575 33.288C20.6315 33.9034 20.0735 34.1241 19.6532 33.9336C19.1019 33.6851 18.9098 33.0047 19.1629 32.359C19.5614 31.2511 20.0607 30.1842 20.6542 29.1727C20.759 29.0302 20.819 28.8583 20.8263 28.6799C20.8335 28.5015 20.7877 28.325 20.6948 28.174C20.4882 27.886 20.3759 27.5379 20.374 27.18C20.3943 26.8805 20.148 26.7318 19.9492 26.5739C19.2148 25.9724 19.0115 25.1433 19.0002 24.2515C18.9866 23.2319 19.782 22.7071 20.6609 23.1692C21.536 23.6209 22.3286 24.2243 23.0041 24.9529C23.5328 25.5288 23.6164 25.5567 24.1022 24.9529C24.8637 23.996 25.9799 23.6871 26.9808 23.1599C27.0822 23.1166 27.1914 23.0957 27.3011 23.0985C27.4109 23.1013 27.5189 23.1278 27.6181 23.1762C27.8773 23.2953 28.1701 23.3119 28.4405 23.2227C28.9331 23.002 29.0754 23.2598 28.9466 23.7406Z" fill="currentColor"/>
<path opacity="0.5" d="M38.0628 27.3643C37.9469 26.3478 38.1878 25.4184 38.2719 24.4847C38.3309 23.8303 38.6013 23.1758 39.3966 22.9359C39.6153 22.8882 39.8093 22.7676 39.9442 22.5955C40.235 21.9913 40.7144 22.0611 41.2189 22.205C41.4461 22.2683 41.6347 22.3381 41.8369 22.1658C42.1595 21.8887 42.5185 22.0043 42.8071 22.1832C43.7342 22.7526 44.3976 23.4791 44.643 24.5829C44.8379 25.6822 44.9541 26.793 44.9906 27.9075C45.0453 28.7633 44.8601 29.6176 44.4544 30.3814C44.384 30.5166 44.2477 30.6301 44.2136 30.7697C44.1113 31.2256 43.9864 31.6314 43.4297 31.7797C43.0093 31.891 42.6231 32.1659 42.1754 31.8605C42.1485 31.8466 42.1189 31.8381 42.0885 31.8355C42.058 31.8329 42.0273 31.8362 41.9982 31.8452C40.8417 32.3251 40.2464 31.4351 39.5715 30.8722C38.8967 30.3094 38.5172 29.439 38.1241 28.6405C37.9083 28.2086 38.0333 27.7483 38.0628 27.3643Z" fill="currentColor"/>
</g>
<defs>
<filter id="filter0_d_24_3" x="0" y="0" width="67" height="82" filterUnits="userSpaceOnUse" color-interpolation-filters="sRGB">
<feFlood flood-opacity="0" result="BackgroundImageFix"/>
<feColorMatrix in="SourceAlpha" type="matrix" values="0 0 0 0 0 0 0 0 0 0 0 0 0 0 0 0 0 0 127 0" result="hardAlpha"/>
<feOffset dx="3" dy="3"/>
<feGaussianBlur stdDeviation="2"/>
<feComposite in2="hardAlpha" operator="out"/>
<feColorMatrix type="matrix" values="0 0 0 0 0 0 0 0 0 0 0 0 0 0 0 0 0 0 0.25 0"/>
<feBlend mode="normal" in2="BackgroundImageFix" result="effect1_dropShadow_24_3"/>
<feBlend mode="normal" in="SourceGraphic" in2="effect1_dropShadow_24_3" result="shape"/>
</filter>
</defs>
</svg>
