<svg width="73" height="73" viewBox="0 0 73 73" fill="none" xmlns="http://www.w3.org/2000/svg">
<g>
<path opacity="0.5" d="M14.2069 37.1713C14.2657 37.0734 14.318 36.8971 14.3867 36.8906C15.3282 36.773 16.1978 36.3259 17.2014 36.3193C15.6682 34.8407 13.6053 34.5568 11.8236 33.7081C11.4128 33.5639 11.0301 33.3497 10.6925 33.0749C10.2087 32.5853 9.71173 32.6506 9.18539 32.9607C7.05388 34.2467 4.90277 35.5066 2.9053 37.0016C2.74785 37.1202 2.59825 37.2488 2.45742 37.3867C2.31685 37.5205 2.1305 37.6707 2.20896 37.8861C2.28742 38.1015 2.49337 38.1407 2.68625 38.1668C3.98394 38.3346 5.30083 38.2794 6.57986 38.0036C7.04408 37.9057 7.51813 37.6772 8.14581 37.8894C7.68486 38.3561 7.16504 38.2843 6.74332 38.4083C6.09777 38.5399 5.44066 38.6066 4.78181 38.6074C4.19336 38.6564 3.61472 39.0579 2.90857 38.9697C2.44558 38.9027 1.99437 38.7708 1.56822 38.5781C0.79342 38.2517 0.871872 37.8176 1.43744 37.3573C2.49531 36.5261 3.61804 35.7806 4.7949 35.128C5.89008 34.4948 6.87734 33.6983 7.99867 33.0945C8.74732 32.6897 8.67869 32.3829 7.86467 32.0108C7.41801 31.8423 6.9814 31.6483 6.55699 31.4298C6.17533 31.2133 5.88716 30.8636 5.7478 30.448C5.60843 30.0324 5.62766 29.58 5.80179 29.1776C5.88461 28.9169 6.04568 28.6878 6.2632 28.5214C6.48072 28.355 6.74416 28.2594 7.01792 28.2474C9.12654 27.9047 11.2025 27.4053 13.2654 26.8635C13.9846 26.6741 14.6744 26.3804 15.3871 26.1748C15.5527 26.1126 15.7027 26.0149 15.8264 25.8886C15.9501 25.7622 16.0445 25.6104 16.103 25.4436C17.3453 23.0641 18.3914 20.5998 19.4081 18.1191C19.9835 16.7188 20.487 15.2859 20.5687 13.853C20.6276 12.8053 21.131 11.8032 20.8629 10.7294C20.7289 10.1908 21.0427 9.66857 21.0787 9.09736C21.1833 7.58938 21.2716 6.08789 21.301 4.57338C21.301 3.70188 21.6573 2.83695 21.6737 1.91323C21.6737 1.08743 23.2789 0.676164 23.8706 1.30612C24.6519 2.13845 25.4071 2.99363 25.7896 4.12298C26.329 5.69951 27.1921 7.13239 28.0551 8.54245C29.0359 10.1516 30.0591 11.7608 31.3766 13.1317C32.6352 14.4373 33.9495 15.6972 35.2473 16.9735C35.3798 17.1242 35.5592 17.226 35.7566 17.2627C35.954 17.2994 36.1581 17.2688 36.336 17.1758C38 16.3566 39.8013 15.8702 41.498 15.126C42.5082 14.6788 43.5772 14.3198 44.5907 13.853C45.8037 13.3093 47.0495 12.8416 48.3208 12.4528C49.3709 12.1456 50.397 11.7616 51.3906 11.3039C52.3158 10.8469 52.4563 10.9448 52.914 11.5487C53.5188 12.3418 53.5254 12.5638 53.0252 13.3373C52.525 14.1109 52.4334 15.015 51.7404 15.6548C50.5504 16.745 49.8083 18.2007 48.7033 19.3856C47.7421 20.431 46.8582 21.5449 46.0585 22.7182C45.5453 23.4624 45.5583 23.5015 46.356 23.9552C49.5043 25.6983 52.8004 27.1608 56.2061 28.3257C58.9522 29.3049 61.6721 30.3658 64.4019 31.4005C64.7687 31.5474 65.1267 31.7152 65.4742 31.9031C65.657 31.9854 65.8068 32.1268 65.8993 32.3044C65.9919 32.4821 66.0218 32.6857 65.9842 32.8824C65.9188 33.3426 65.6573 33.8616 65.2486 33.8616C64.2189 33.842 63.3329 34.7592 62.2606 34.2696C61.6362 34.7885 60.845 34.3414 60.1683 34.6188C60.1049 34.6503 60.0349 34.6667 59.964 34.6666C59.8932 34.6665 59.8233 34.65 59.7599 34.6183C59.6965 34.5867 59.6414 34.5408 59.5988 34.4842C59.5562 34.4276 59.5273 34.362 59.5145 34.2924C59.5158 34.2156 59.5327 34.1398 59.5641 34.0697C59.5956 33.9995 59.641 33.9365 59.6975 33.8844C59.8381 33.7408 60.0801 33.6559 60.2206 33.8387C60.6587 34.4034 61.0575 34.0737 61.4302 33.7963C61.7571 33.558 61.999 33.2806 62.4731 33.4111C62.849 33.5156 63.0485 33.1957 63.1629 32.8986C63.2969 32.5396 62.9896 32.4286 62.7444 32.2981C61.7408 31.753 60.7829 30.9925 59.7172 30.715C58.1937 30.307 56.837 29.4812 55.3038 29.145C54.8853 29.0536 54.4342 29.021 54.2642 28.4922C54.189 28.2572 53.9994 28.2507 53.7901 28.3584C53.4959 28.5151 53.2409 28.329 53.0088 28.2148C50.5765 27.0071 47.9514 26.2041 45.6891 24.6472C45.1497 24.2751 44.6201 24.4416 44.0937 25.1139C42.3633 27.3183 40.5892 29.4856 38.7715 31.6159C37.9248 32.5951 37.9346 32.9444 38.68 34.0117C38.8501 34.2509 38.9404 34.5376 38.9382 34.831C38.9807 35.8102 39.5921 36.6654 39.8732 37.6152C40.3538 39.3092 41.1122 40.9184 41.5078 42.6614C41.1417 42.5994 41.1515 42.335 41.073 42.1C40.3244 40.024 39.5431 37.9579 38.8402 35.8657C38.5394 34.9746 37.9052 34.2598 37.7679 33.199C36.8231 33.7408 36.3719 34.547 35.8064 35.1933C33.6389 37.6446 31.5564 40.1709 29.4445 42.6679C28.6992 43.5492 28.6991 43.7744 29.2124 44.7504C29.7257 45.7263 30.4939 46.6729 30.9451 47.688C31.3407 48.566 32.0893 49.1731 32.3901 50.0674C32.4137 50.1448 32.4652 50.2107 32.5346 50.2523C32.6041 50.2939 32.6865 50.3083 32.766 50.2927C32.9687 50.2633 32.9981 50.0936 33.0145 49.9434C33.1125 49.023 33.4722 48.1417 33.1518 47.1592C32.9687 46.6011 33.1845 45.9189 33.2172 45.2954C33.3111 44.2 33.4639 43.1105 33.6749 42.0314C33.7257 41.8005 33.8152 41.5798 33.9397 41.3786C34.2829 40.7715 35.1068 40.4288 35.6527 40.6442C36.1235 40.8302 36.3948 41.4178 36.1823 42.175C36.0592 42.6725 36.1243 43.1979 36.3654 43.6504C36.5994 44.1513 36.6725 44.7122 36.5748 45.2562C36.477 45.8002 36.2132 46.3007 35.8195 46.6892C35.4226 47.067 35.1216 47.5338 34.9414 48.0509C34.7612 48.568 34.7069 49.1205 34.7831 49.6627C34.8779 50.6876 35.0414 51.7027 34.8158 52.7276C34.6981 53.2597 34.6556 53.8864 33.9822 54.0332C33.661 54.1338 33.3165 54.1329 32.9959 54.0307C32.6752 53.9284 32.394 53.7298 32.1906 53.462C31.8221 52.9641 31.5616 52.3949 31.4257 51.7909C31.148 50.8822 30.7835 50.0023 30.337 49.1633C29.9153 48.4061 29.7715 47.4889 29.1144 46.8328C28.7874 46.5064 28.6861 45.9972 28.4147 45.6153C28.0649 45.129 27.7871 45.1126 27.3555 45.537C26.9428 45.9061 26.584 46.3314 26.2898 46.8002C25.547 48.0884 24.6915 49.3084 23.7333 50.4461C23.439 50.8051 23.0075 51.0989 23.2887 51.6668C23.3265 51.7383 23.3365 51.8213 23.3165 51.8997C23.2966 51.9781 23.2482 52.0464 23.1808 52.0912C22.0235 52.9692 21.7195 54.376 21.0525 55.551C20.3856 56.7261 19.9214 58.0545 19.3231 59.2883C18.9962 59.9738 18.4176 60.5646 18.6497 61.4263C18.6543 61.466 18.65 61.5063 18.637 61.5441C18.624 61.582 18.6026 61.6165 18.5745 61.645C17.7801 62.337 18.0612 63.4206 17.6199 64.2562C17.5531 64.3789 17.5166 64.5157 17.5131 64.6553C17.5097 64.7949 17.5396 64.9333 17.6003 65.0592C17.6468 65.146 17.6729 65.2421 17.6769 65.3405C17.6808 65.4388 17.6625 65.5368 17.6232 65.6271C17.5251 65.8556 17.4107 66.0677 17.1099 65.9796C16.8745 65.911 16.8451 65.6891 16.8778 65.4965C16.9361 65.3105 17.0038 65.1275 17.0805 64.9482C17.1818 64.5696 17.3518 64.1974 17.2113 63.7927C17.1694 63.705 17.1477 63.6091 17.1477 63.512C17.1477 63.4149 17.1694 63.319 17.2113 63.2313C17.6222 62.3052 17.9112 61.3298 18.071 60.3296C18.2667 59.4373 18.5846 58.5762 19.0158 57.7706C19.8658 56.0929 20.7027 54.3988 21.4939 52.6983C22.4949 50.478 23.7511 48.3815 25.2371 46.4509C25.8125 45.7198 26.0871 44.7797 26.8717 44.1661C27.2346 43.8789 26.9305 43.5133 26.7213 43.2293C26.038 42.2958 25.0867 41.6234 24.3086 40.7911C22.8081 39.2015 20.8564 38.1799 19.2512 36.7078C18.9961 36.5241 18.6804 36.4446 18.3686 36.4858C16.9236 36.4336 15.5799 36.933 14.1873 37.1778L14.2069 37.1713ZM36.8002 29.8892C36.8585 30.0317 36.9262 30.1702 37.0029 30.3038C37.3854 30.8913 37.4802 30.9043 37.9379 30.3821C39.7261 28.3323 41.4686 26.2433 43.1032 24.0695C43.5478 23.4819 43.5053 23.335 42.8776 22.9891C40.7788 21.8205 38.6963 20.6194 36.8983 19.0004C36.0679 18.2497 35.2637 18.0799 34.247 18.7001C33.3643 19.2452 33.2956 19.2452 33.6324 20.2767C34.2012 22.0295 34.7504 23.7855 35.3781 25.5187C35.6298 26.2107 35.705 26.981 36.1758 27.6011C36.2771 27.7317 36.1398 28.0451 36.1137 28.2768C35.8717 28.1528 35.8554 27.8916 35.7867 27.6795C34.855 25.3033 34.2829 22.7834 33.2433 20.4562C32.7955 19.4508 32.8576 19.4215 31.7558 19.7381C31.7167 19.7415 31.6773 19.7415 31.6382 19.7381L31.6643 19.7675C32.5731 18.9123 32.5176 18.9319 32.0959 17.6785C31.6741 16.4251 30.7882 15.4459 30.7032 14.1076C30.7032 13.9901 30.5005 13.8792 30.3763 13.7812C29.4494 12.9225 28.5984 11.9855 27.8328 10.9807C26.5709 9.30623 25.5902 7.44575 24.4394 5.69949C24.2302 5.37309 24.1125 4.88673 23.6025 5.02708C23.1808 5.14459 23.0794 5.57872 23.0206 5.98346C22.9618 6.3882 22.9029 6.83538 22.8506 7.25318C22.7067 8.44455 22.115 9.56411 22.285 10.8012C22.3252 11.0356 22.3135 11.276 22.2508 11.5055C22.1881 11.735 22.0759 11.948 21.9222 12.1296C21.8323 12.2094 21.7701 12.3157 21.7448 12.4331C21.7196 12.5505 21.7324 12.6728 21.7816 12.7824C22.1379 13.3504 21.7979 13.84 21.641 14.3492C21.5724 14.5744 21.3893 14.78 21.3729 15.002C21.2271 16.3673 20.7913 17.6859 20.0947 18.8699C19.6863 19.5876 19.3301 20.3337 19.0289 21.1024C18.5785 22.3587 17.9932 23.5625 17.2832 24.6929C17.0576 25.0421 16.8615 25.411 16.6522 25.77C17.7114 25.5611 18.6955 25.3392 19.5585 24.7908V24.7712C19.5585 25.1531 19.2708 25.2967 18.9733 25.424C18.4025 25.6931 17.8163 25.9285 17.2178 26.1291C16.8166 26.2385 16.4417 26.428 16.1158 26.686C15.7899 26.9441 15.5198 27.2654 15.3217 27.6305C14.5897 28.8974 13.5667 29.9725 12.3369 30.7672C11.3921 31.42 11.4281 31.6028 12.4513 32.2197C12.654 32.3405 12.873 32.4352 13.0855 32.5461C13.9257 32.9737 14.7855 33.3589 15.5963 33.8518C16.7013 34.5307 17.9043 35.0529 19.0649 35.6437C19.3969 35.7568 19.7477 35.8045 20.0979 35.7841C20.6864 35.8396 19.928 36.4369 20.3693 36.6327C20.6067 36.7733 20.8339 36.9303 21.0493 37.1027C21.3762 37.3149 21.7358 37.4911 22.0529 37.7196C24.0341 39.146 26.1525 40.419 27.5484 42.5145C27.7086 42.7561 27.9472 42.7952 28.114 42.5145C28.8724 41.3231 29.9218 40.3798 30.811 39.2994C31.8376 38.0526 32.8739 36.8122 33.8972 35.5621C34.0606 35.3597 34.3581 35.1704 34.1914 34.8571C34.0247 34.5437 33.7141 34.6188 33.446 34.609C32.9687 34.5894 32.4914 34.609 32.0141 34.609C33.2172 34.2826 34.6033 34.8146 35.5579 33.4764C36.336 32.3797 37.186 31.3744 36.8002 29.8892ZM36.9212 17.8906C36.9669 18.1387 37.1402 18.2366 37.2906 18.3607C39.0233 19.8066 41.0175 20.874 42.8482 22.1535C43.878 22.8683 44.1559 22.8063 44.8489 21.7422C46.4835 19.1897 48.6085 16.9963 50.1287 14.3655C50.2464 14.1631 50.4556 13.964 50.2856 13.7355C50.1156 13.5071 49.8573 13.6898 49.6318 13.7355C48.4614 14.0848 47.4087 14.7147 46.2187 15.0411C45.493 15.2337 44.7378 15.25 44.0316 15.472C42.3022 16.0203 40.5859 16.5948 38.8271 17.0355C38.1442 17.2002 37.498 17.4902 36.9212 17.8906ZM8.61983 29.8892C9.05463 30.2156 9.47962 30.542 9.9275 30.8684C10.0843 30.9725 10.2638 31.0374 10.451 31.0579C10.6381 31.0783 10.8275 31.0537 11.0031 30.9859C12.2748 30.6824 13.0594 29.7685 13.9453 28.959C14.296 28.6476 14.5272 28.2241 14.5992 27.7611C12.4873 28.1984 10.7579 29.4421 8.61983 29.8892ZM31.4322 14.9399C31.9291 16.0269 32.3901 17.1301 32.9393 18.204C33.1845 18.6773 34.502 18.4684 34.7766 17.9624C34.8128 17.8926 34.8242 17.8125 34.8087 17.7354C34.7933 17.6582 34.7519 17.5887 34.6916 17.5381C33.7631 16.5067 32.7791 15.5666 31.4322 14.9367V14.9399Z" fill="currentColor"/>
</g>
<defs>
<filter id="filter0_d_24_13" x="0" y="0" width="73" height="73" filterUnits="userSpaceOnUse" color-interpolation-filters="sRGB">
<feFlood flood-opacity="0" result="BackgroundImageFix"/>
<feColorMatrix in="SourceAlpha" type="matrix" values="0 0 0 0 0 0 0 0 0 0 0 0 0 0 0 0 0 0 127 0" result="hardAlpha"/>
<feOffset dx="3" dy="3"/>
<feGaussianBlur stdDeviation="2"/>
<feComposite in2="hardAlpha" operator="out"/>
<feColorMatrix type="matrix" values="0 0 0 0 0 0 0 0 0 0 0 0 0 0 0 0 0 0 0.25 0"/>
<feBlend mode="normal" in2="BackgroundImageFix" result="effect1_dropShadow_24_13"/>
<feBlend mode="normal" in="SourceGraphic" in2="effect1_dropShadow_24_13" result="shape"/>
</filter>
</defs>
</svg>
