<svg width="79" height="66" viewBox="0 0 79 66" fill="none" xmlns="http://www.w3.org/2000/svg">
<g>
<path opacity="0.5" d="M46.7565 1.76965C48.666 2.05137 50.2885 2.74465 51.9354 3.36971C52.953 3.75707 53.8868 4.37992 54.8228 4.95215C56.8096 6.16045 58.739 7.42156 60.4322 9.02382C62.0219 10.5602 63.4098 12.2915 64.5625 14.1761C65.5264 15.7573 66.6192 17.2568 67.8297 18.6594C70.2756 21.4149 71.5185 24.6898 71.9181 28.3323C72.2139 31.013 71.6708 33.5617 70.8982 36.0839C70.0152 38.9318 68.3087 41.2736 66.2866 43.4041C65.6045 44.1216 65.1277 45.0217 64.2755 45.5918C64.0867 45.7588 63.9599 45.9845 63.9157 46.2322C63.2049 49.2343 61.2887 51.4616 59.1651 53.5392C57.5514 55.1151 55.7699 56.4774 53.7058 57.4282C51.4409 58.4692 49.0545 58.9204 46.5622 58.9842C45.0383 59.0537 43.5127 58.8934 42.0368 58.5088C40.7012 58.1325 39.3259 57.8794 38.0168 57.3314C36.381 56.6491 34.7364 56.0108 33.2022 55.1107C32.8644 54.9148 32.5244 54.7255 32.1955 54.5098C31.5046 54.0564 30.7937 53.7549 29.8886 53.876C29.2571 53.988 28.6068 53.9232 28.01 53.6889C27.8984 53.6343 27.7762 53.6046 27.6519 53.6019C27.5276 53.5993 27.4042 53.6237 27.2904 53.6735C27.0871 53.751 26.8623 53.751 26.659 53.6735C25.0232 53.077 23.3035 52.9824 21.5949 52.8151C21.4171 52.828 21.2387 52.7993 21.0739 52.7315C20.3322 52.1945 19.4028 52.113 18.586 51.904C16.2107 51.2943 14.1466 50.0486 11.9788 49.0208C10.8285 48.4649 9.73444 47.8001 8.71168 47.0356C7.31651 46.0077 6.3187 44.6146 5.57475 43.0519C5.16636 42.1958 4.7668 41.3528 4.64539 40.3624C4.49969 39.1519 3.79327 38.1131 3.16412 37.0831C2.10106 35.3037 1.42002 33.3237 1.16409 31.2683C0.969823 29.8685 1.0206 28.449 1.00073 27.0338C0.976448 25.2445 1.56365 23.6114 1.81531 21.9035C1.99459 20.6053 2.37593 19.3429 2.94558 18.162C3.42903 17.1936 3.89702 16.1811 4.53942 15.2854C5.75136 13.5797 7.06926 11.984 8.73375 10.6789C10.1506 9.59419 11.6911 8.68034 13.3232 7.95638C13.9678 7.65706 14.6323 7.39295 15.31 7.14205C15.5766 7.04207 15.8109 6.87164 15.9877 6.64905C16.7229 5.74888 17.7273 5.20746 18.6765 4.5736C20.0231 3.67783 21.5728 3.8517 23.0342 3.61181C24.6195 3.33412 26.2419 3.34157 27.8246 3.63381C27.9275 3.66571 28.0357 3.67688 28.1429 3.66668C28.2502 3.65647 28.3543 3.6251 28.4493 3.57439C29.7738 2.69403 31.3191 2.34849 32.796 1.85549C34.6945 1.22383 36.6504 1.11819 38.6438 1.01694C40.0963 0.942114 41.5136 1.1424 42.9617 1.09177C44.2602 1.05179 45.5527 1.28268 46.7565 1.76965ZM33.1955 9.4728C33.3184 9.54126 33.4478 9.5973 33.5819 9.64007C33.6234 9.65564 33.6677 9.66266 33.712 9.66073C33.7563 9.6588 33.7998 9.64794 33.8398 9.62882C33.8798 9.6097 33.9155 9.5827 33.9448 9.54946C33.9741 9.51622 33.9963 9.47742 34.0101 9.43539C34.0326 9.34966 34.0244 9.2588 33.987 9.17845C33.9495 9.0981 33.8851 9.0333 33.8048 8.99521C33.7684 8.97092 33.7271 8.95487 33.6838 8.94818C33.6405 8.9415 33.5963 8.94433 33.5542 8.9565C33.5122 8.96866 33.4733 8.98986 33.4403 9.0186C33.4073 9.04733 33.381 9.08292 33.3633 9.12286C33.3034 9.24871 33.2553 9.37987 33.2198 9.51462C32.4847 9.07444 31.6745 9.30773 30.9107 9.31654C30.1469 9.32534 29.4008 9.61806 28.6105 9.52122C28.1999 9.4706 28.1933 9.52122 27.4515 9.946C27.6921 10.0825 27.9372 9.946 28.1778 9.946C29.5862 9.946 30.9924 9.91738 32.4008 9.89097C32.7253 9.88657 33.0322 9.80954 33.1955 9.4728ZM41.0412 52.102L41.0985 52.3221C42.39 52.1438 43.6814 51.9876 44.9684 51.7873C47.0103 51.4726 49.0479 51.127 51.0281 50.5152C53.6264 49.7075 56.1253 48.6796 58.4322 47.2138C59.9642 46.2432 61.5713 45.3475 62.525 43.7166C62.823 43.2038 63.4433 42.8715 63.4808 42.2332C63.5669 40.7498 63.6552 39.2598 63.6287 37.772C63.5587 35.4594 63.2284 33.1619 62.6442 30.9228C61.909 27.9582 61.0989 25.042 59.3041 22.4493C58.1077 20.6824 56.7261 19.0475 55.1827 17.5721C53.0634 15.5913 50.5755 14.1211 48.0788 12.6685C46.2377 11.5967 44.4054 10.5138 42.3392 9.90638C42.0323 9.81394 41.7453 9.63347 41.4186 9.80074C40.2575 10.4016 38.9727 10.4962 37.721 10.7449C36.1095 11.0641 34.4737 11.1851 32.849 11.3656C31.2662 11.5549 29.648 11.4602 28.0498 11.5438C27.2219 11.5879 26.4073 11.3392 25.595 11.4338C24.7848 11.533 23.9635 11.4935 23.1667 11.3172C22.8215 11.2203 22.4553 11.2275 22.1143 11.338C21.7732 11.4485 21.4727 11.6572 21.2505 11.9378C20.9338 12.3652 20.6434 12.8114 20.3807 13.2738C18.9723 15.4416 18.0275 17.8274 17.224 20.2572C16.4977 22.4581 16.3167 24.7713 16.0209 27.0536C15.9274 27.9457 16.0321 28.8475 16.3277 29.6947C16.99 31.7195 17.7074 33.7223 18.4138 35.7295C18.5547 36.1324 18.7183 36.527 18.9039 36.9114C20.7891 40.7982 23.4073 44.1568 26.3941 47.2557C27.6811 48.5762 29.0167 49.8571 30.4295 51.0654C30.7207 51.3332 31.0621 51.5409 31.4342 51.6765C31.8062 51.8121 32.2015 51.8729 32.5973 51.8555C34.0697 51.8555 35.4936 51.5408 36.9351 51.3449C40.3767 50.8761 43.688 49.8043 47.0898 49.1176C47.3639 49.0421 47.645 48.9941 47.9287 48.9746C48.2687 48.9746 48.4386 49.1726 48.357 49.5424C48.3162 49.7515 48.2155 49.9443 48.067 50.0975C47.9184 50.2506 47.7285 50.3575 47.5203 50.4051C46.1604 50.8453 44.7587 51.1292 43.3856 51.5056C42.6085 51.7323 41.7829 51.7653 41.0412 52.102ZM17.0275 47.4317C17.0783 47.3195 17.129 47.2601 17.129 47.1984C17.1168 47.0202 17.038 46.8529 16.9083 46.7296C16.1401 45.8493 15.7471 44.7818 15.363 43.7034C14.0186 39.832 13.8685 35.8286 14.0606 31.7921C14.1397 30.5832 14.0355 29.3694 13.7515 28.1915C13.4329 26.9876 13.1984 25.7631 13.0495 24.527C12.7581 21.9827 12.4535 19.4429 12.8288 16.8766C12.8861 16.5003 13.0031 16.0447 12.6279 15.6551C12.2245 15.9101 11.8745 16.2404 11.5969 16.6279C10.413 18.1381 9.30779 19.7079 8.28562 21.3313C7.226 23.0788 6.6123 24.9957 6.05821 26.9369C5.6167 28.4776 5.59241 30.082 5.39594 31.6579C5.19947 33.2337 5.28778 34.8448 5.36063 36.4382C5.3724 36.7241 5.45918 37.0018 5.61229 37.2438C6.50819 38.6986 7.60256 40.0223 8.864 41.1768C10.0539 42.2486 11.1996 43.3645 12.3961 44.4187C13.7995 45.6228 15.3569 46.6359 17.0275 47.4317ZM65.1276 33.7861C65.201 33.6705 65.2631 33.5482 65.3131 33.4208C66.2867 29.5052 66.4071 25.427 65.6663 21.4611C65.5758 20.9769 65.3837 20.5103 65.2756 20.0261C64.9201 18.4393 64.1718 17.1187 62.7877 16.1966C62.1055 15.741 61.4631 15.2436 60.7655 14.799C59.4256 13.9384 58.1695 12.9524 56.6441 12.3626C56.0071 12.1516 55.3815 11.9077 54.7699 11.6319C52.6087 10.5314 50.2886 10.0913 47.9 9.88657C47.7609 9.87337 47.6042 9.88657 47.5446 10.0472C47.485 10.2079 47.6064 10.2915 47.7057 10.395C47.9728 10.6679 48.368 10.6151 48.677 10.8065C50.0236 11.6583 51.4453 12.3824 52.7566 13.3002C54.0679 14.2179 55.4454 15.0609 56.5602 16.1966C58.2534 17.9155 59.9245 19.6784 61.196 21.7604C61.8428 22.8213 62.5846 23.8249 63.0018 25.0244C63.8724 27.5113 64.4603 30.0878 64.7546 32.7055C64.7833 33.04 64.7833 33.4076 65.1276 33.7861ZM60.5139 12.2878C59.9642 10.527 54.1782 6.65345 52.3151 5.68505C49.1967 4.08665 45.7937 3.11452 42.2995 2.82388C39.3833 2.56418 33.2485 3.26406 31.9726 4.06299C32.7695 4.3381 33.5995 4.36891 34.3854 4.5736C36.1205 5.02698 37.9705 5.17885 39.4628 6.35413C39.5517 6.41435 39.6577 6.44444 39.7652 6.43996C40.5356 6.40695 41.1559 6.81632 41.7056 7.23669C42.465 7.81773 43.3039 7.92337 44.1979 7.996C45.092 8.06863 46.0125 7.85954 46.9463 7.92337C48.8582 8.0663 50.7525 8.38757 52.6043 8.88296C54.7853 9.45079 56.7986 10.4786 58.8251 11.4228C59.3571 11.6649 59.7942 12.1183 60.5139 12.2767V12.2878ZM60.8406 48.2901C60.3616 48.1778 60.1231 48.4177 59.8649 48.5938C57.8193 49.9608 55.6004 51.0502 53.2665 51.8335C50.5513 52.7777 47.73 53.2091 44.9044 53.5942C42.4385 53.9244 39.9661 54.3117 37.4517 54.1335C36.975 54.0786 36.492 54.1351 36.0411 54.2985C36.0609 54.413 36.0543 54.4658 36.072 54.4746C39.2111 56.0592 42.5047 57.1157 46.0412 57.2477C46.8521 57.2905 47.6651 57.2566 48.4695 57.1465C49.2927 56.9885 50.104 56.7745 50.8978 56.506C53.7722 55.715 56.3452 54.0883 58.2887 51.8335C58.7479 51.3009 59.1717 50.7331 59.6132 50.1917C60.0547 49.6502 60.675 49.1264 60.8406 48.2791V48.2901ZM3.66524 33.2733C3.63436 32.3776 3.66016 31.4808 3.7425 30.5882C3.9191 29.1819 3.96325 27.7645 4.28996 26.3691C4.61447 25.0112 5.20169 23.7698 5.73812 22.4955C7.20845 19.0527 9.50188 16.0211 12.4181 13.6655C13.6875 12.6157 14.0606 11.2687 14.1842 9.75892C14.1842 9.6995 14.1224 9.63567 14.0848 9.56744C13.6191 9.50141 13.2725 9.78753 12.9104 10.0076C11.1576 11.0376 9.46445 12.1579 8.07811 13.6611C7.04278 14.7814 6.03393 15.9633 5.32089 17.2992C4.30101 19.2118 3.73588 21.3136 3.22373 23.4265C2.52173 26.3075 2.54601 29.1863 3.05595 32.0804C3.11997 32.4656 3.09569 32.9212 3.66303 33.2623L3.66524 33.2733ZM15.8707 34.3298C15.7924 34.3885 15.7328 34.4686 15.6991 34.5604C15.6654 34.6522 15.6591 34.7517 15.6809 34.847C15.7582 35.6987 15.82 36.5505 15.9171 37.3978C16.2836 40.664 16.7847 43.8883 18.7207 46.6922C19.2293 47.4628 19.8749 48.1341 20.6258 48.673C21.1799 49.0538 21.8819 49.1814 22.3918 49.5226C23.6619 50.4136 25.115 51.0113 26.6458 51.2723C26.8444 51.3031 27.0873 51.4616 27.2374 51.2415C27.425 50.9554 27.1248 50.8013 26.9725 50.6318C26.9018 50.5504 26.8201 50.4822 26.7517 50.4117C24.8854 48.5513 23.117 46.5958 21.4536 44.5529C19.3969 41.9976 17.747 39.1419 16.5617 36.0861C16.3233 35.5006 16.246 34.8514 15.8685 34.3188L15.8707 34.3298ZM24.3852 8.50881C24.9746 8.62326 25.361 8.44938 25.7694 8.31293C26.4736 8.07743 27.2219 7.68567 27.9107 7.7561C28.7495 7.84194 29.5134 7.55362 30.3213 7.53601C31.1293 7.5184 31.9394 7.66586 32.7761 7.5228C33.9571 7.32252 35.1867 7.48539 36.3876 7.65266C36.7077 7.69888 37.0499 7.83533 37.3413 7.5228C37.2729 7.41716 37.2486 7.33353 37.1956 7.30271C36.5179 6.96598 35.7717 6.86253 35.0521 6.66225C34.3788 6.48398 33.7982 5.87873 33.0013 6.20226C32.8587 6.22334 32.7131 6.2003 32.5841 6.13624C31.4957 5.75548 30.3368 5.7907 29.2242 5.5618C29.035 5.51922 28.839 5.51681 28.6488 5.55473C28.4586 5.59264 28.2786 5.67005 28.1204 5.78189C27.383 6.27863 26.5903 6.68853 25.7583 7.00339C25.0916 7.25209 24.6766 7.7539 24.3852 8.50881ZM67.6376 22.0201C67.5431 22.3261 67.5548 22.6548 67.6707 22.9533C68.2226 24.8285 68.0615 26.7565 68.0835 28.6757C68.1123 30.9734 67.4677 33.1721 66.9798 35.3928C66.812 36.1565 66.6575 36.918 66.7458 37.7125C66.985 37.4003 67.1755 37.0537 67.3109 36.6847C67.695 35.5381 68.1343 34.42 68.6067 33.3064C68.9511 32.5008 69.5273 31.7657 69.5759 30.8479C69.6575 29.3293 69.8165 27.8107 69.4125 26.3031C69.0527 24.9561 68.4257 23.7148 67.971 22.4053C67.9224 22.2402 67.8584 22.0663 67.6398 22.0201H67.6376ZM18.9812 12.1161C18.0594 12.3298 17.1738 12.676 16.352 13.1439C15.3122 13.6897 14.8067 14.5019 14.8067 15.6903C14.7846 17.4247 14.6522 19.159 14.6169 20.8955C14.6058 21.3995 14.5926 21.9365 14.8266 22.4361C15.5636 18.7691 16.9728 15.2691 18.9834 12.1117L18.9812 12.1161ZM16.076 10.9166C17.1025 10.7383 18.0783 10.4456 19.0474 10.2277C20.7516 9.84475 21.8002 8.43618 22.9856 7.2763C23.1026 7.15966 23.2484 7.00559 23.1336 6.81411C23.0188 6.62264 22.8135 6.66666 22.6523 6.71728C21.1975 7.17946 19.681 7.35113 18.1909 7.64826C17.9164 7.72992 17.681 7.90826 17.5286 8.15006C17.288 8.45599 17.0165 8.7377 16.7935 9.05463C16.4248 9.57624 16.0451 10.0913 16.0782 10.9122L16.076 10.9166ZM7.48649 42.6426C8.57261 44.8567 10.577 46.0275 12.4468 47.3305C12.4742 47.3534 12.5062 47.3701 12.5407 47.3795C12.5752 47.3889 12.6113 47.3907 12.6465 47.3849C12.6818 47.379 12.7153 47.3656 12.7449 47.3456C12.7744 47.3256 12.7993 47.2994 12.8177 47.2689C12.9215 47.117 12.7691 47.0246 12.7117 46.9035C12.491 46.4479 11.959 46.6438 11.6367 46.3247C10.5793 45.2748 9.47769 44.2646 8.35185 43.283C8.1046 43.0673 7.9567 42.6822 7.48649 42.6426ZM65.8363 40.5385C66.3043 40.2766 66.7656 40.0983 66.7458 39.6978C66.7215 39.2246 66.94 39.0133 67.2336 38.7426C67.5272 38.4719 67.7811 38.2056 67.6641 37.7037C66.4058 38.2078 65.9157 39.1519 65.8363 40.5385ZM69.4191 33.8302C68.865 34.6247 68.2977 36.6055 68.4036 37.2614C68.9886 36.0905 69.6399 35.1067 69.4191 33.8302ZM23.7627 5.18985C22.9238 5.09741 22.0982 4.99617 21.3477 5.48697C22.1777 5.46056 22.9702 5.29329 23.7627 5.18985ZM34.5134 9.30333C34.491 9.34986 34.4877 9.40325 34.5042 9.45217C34.5207 9.50109 34.5557 9.54165 34.6018 9.56524C34.7218 9.63052 34.8607 9.6528 34.9953 9.62837C35.1299 9.60394 35.252 9.53428 35.3413 9.43098C35.4296 9.32314 35.2728 9.17788 35.1426 9.12946C35.0354 9.07214 34.9102 9.05822 34.793 9.09061C34.6758 9.12299 34.5757 9.19919 34.5134 9.30333ZM14.2637 48.3121C13.8045 47.6386 13.8045 47.6386 13.1952 47.6936C13.5083 47.9662 13.871 48.1762 14.2637 48.3121ZM25.0475 5.0556C24.9884 5.02105 24.9198 5.00607 24.8515 5.01279C24.7833 5.01951 24.719 5.04759 24.6678 5.09301C24.5928 5.14143 24.5883 5.20746 24.6678 5.25148C24.7233 5.28871 24.7898 5.30596 24.8565 5.30036C24.9231 5.29475 24.9858 5.26664 25.0343 5.22066C25.0479 5.21209 25.0593 5.20046 25.0677 5.18671C25.076 5.17295 25.081 5.15745 25.0823 5.14143C25.0836 5.12541 25.0811 5.10932 25.0751 5.09442C25.069 5.07952 25.0596 5.06622 25.0475 5.0556Z" fill="currentColor"/>
</g>
<defs>
<filter id="filter0_d_24_5" x="0" y="0" width="79" height="66" filterUnits="userSpaceOnUse" color-interpolation-filters="sRGB">
<feFlood flood-opacity="0" result="BackgroundImageFix"/>
<feColorMatrix in="SourceAlpha" type="matrix" values="0 0 0 0 0 0 0 0 0 0 0 0 0 0 0 0 0 0 127 0" result="hardAlpha"/>
<feOffset dx="3" dy="3"/>
<feGaussianBlur stdDeviation="2"/>
<feComposite in2="hardAlpha" operator="out"/>
<feColorMatrix type="matrix" values="0 0 0 0 0 0 0 0 0 0 0 0 0 0 0 0 0 0 0.25 0"/>
<feBlend mode="normal" in2="BackgroundImageFix" result="effect1_dropShadow_24_5"/>
<feBlend mode="normal" in="SourceGraphic" in2="effect1_dropShadow_24_5" result="shape"/>
</filter>
</defs>
</svg>
