<svg width="51" height="55" viewBox="0 0 51 55" fill="none" xmlns="http://www.w3.org/2000/svg">
<g>
<path opacity="0.5" d="M17.0017 38.4424C16.8821 38.2741 16.59 38.2892 16.5413 37.9978C17.1013 37.7129 17.6745 37.4301 18.2389 37.1344C18.4391 37.0473 18.6065 36.9016 18.718 36.7175C18.8294 36.5334 18.8793 36.32 18.8608 36.107C18.8481 35.5482 18.9388 34.9918 19.1286 34.4644C19.3366 33.7694 19.0223 33.0765 18.894 32.3902C18.5686 30.6224 17.3049 29.4914 15.8928 28.5805C14.4808 27.6696 12.8408 27.1516 11.2097 26.6746C10.694 26.5235 10.4196 26.6746 10.1495 27.1063C9.80207 27.661 9.56968 28.3107 8.96104 28.6841L8.98096 28.7014C9.02965 28.11 9.47009 27.6934 9.68699 27.1732C10.0168 26.3832 9.98797 26.2688 9.14252 26.094C6.79872 25.6386 4.45936 25.1486 2.04473 25.2306C1.68176 25.2436 1.13067 25.4249 1.01336 24.9392C0.909343 24.4946 1.43611 24.3111 1.77694 24.16C3.67367 23.3139 5.00824 21.7858 6.48003 20.4454C7.6132 19.4072 8.69325 18.3085 9.79986 17.2573C10.1075 16.966 10.0986 16.7501 9.83747 16.4523C9.66927 16.2602 9.26203 16.0896 9.5254 15.7723C9.78877 15.4551 10.0898 15.5284 10.3266 15.8738C10.5169 16.1544 10.7693 16.0313 10.9906 15.9277L15.2399 14.0586C15.7047 13.8535 15.915 13.411 16.1252 13.0225C16.4771 12.375 16.7759 11.6821 17.0681 10.9979C17.7497 9.40063 18.4115 7.79475 19.0799 6.19103C19.1883 5.92986 19.3012 5.66438 19.3831 5.39674C19.5601 4.8744 19.4672 4.4535 18.9648 4.10168C18.2256 3.59444 17.5129 3.0505 16.8091 2.49578C16.4307 2.19576 15.7534 1.81588 16.0942 1.36476C16.4816 0.851055 16.9663 1.47052 17.3469 1.73385C17.8449 2.0792 18.3916 2.35764 18.8054 2.81307C18.9106 2.92776 19.0441 3.01422 19.1933 3.06411C19.3425 3.114 19.5024 3.12567 19.6575 3.098C19.8434 2.36629 19.465 1.71013 19.3233 1C20.0603 1.61947 20.6668 2.31664 20.8881 3.23182C20.9611 3.56605 21.1542 3.86383 21.4325 4.07145C22.1267 4.63702 22.8515 5.16587 23.6037 5.65574C23.8544 5.80078 24.0788 5.98531 24.2677 6.20183C25.4495 7.79044 27.1272 8.45093 29.0438 8.50057C30.9981 8.55022 32.9036 8.93225 34.8402 9.10708C35.7255 9.18263 36.5975 8.97757 37.4961 8.99052C38.5097 9.00563 38.8705 8.01061 39.488 7.42352C39.7602 7.1645 39.7956 6.45006 40.1674 6.60978C40.6654 6.82562 40.298 7.42997 40.2051 7.8336C40.0546 8.48113 39.8731 9.12866 39.3353 9.64237C39.6628 10.0741 40.1497 9.97263 40.5371 10.0892C41.3869 10.3417 42.0553 10.9892 43.0003 11.0777C43.3146 11.1058 43.6046 11.5375 43.8856 11.8095C43.9234 11.8481 43.953 11.8937 43.9726 11.9436C43.9922 11.9935 44.0015 12.0467 43.9998 12.1001C43.9982 12.1535 43.9856 12.2061 43.963 12.2548C43.9404 12.3034 43.9081 12.3472 43.8679 12.3836C43.713 12.5628 43.5382 12.444 43.381 12.3706C42.1984 11.839 40.9577 11.44 39.6827 11.1813C39.2534 11.0885 39.2401 11.1813 39.0807 11.585C38.6138 12.88 38.6558 14.2571 38.0715 15.522C37.7437 16.2238 37.5366 16.9734 37.4585 17.7408C37.3965 18.3495 37.0601 18.9388 36.8166 19.5237C36.4758 20.3418 36.1062 21.1469 35.7565 21.9606C35.679 22.1419 35.4754 22.3361 35.6569 22.539C35.8782 22.7873 36.1283 22.5887 36.3519 22.498C36.8941 22.2822 37.2991 21.8742 37.7595 21.5159C37.6289 21.9476 37.1929 22.129 36.9339 22.4506C36.2523 23.2988 35.8826 24.2874 35.4289 25.2436C34.9177 26.3228 34.5968 27.5035 33.7181 28.397C33.6593 28.4643 33.6174 28.544 33.5959 28.6298C33.5744 28.7157 33.5738 28.8052 33.5942 28.8913C33.6097 29.1736 33.6587 29.4532 33.7402 29.7245C34.4286 31.5009 34.9996 33.3204 35.9845 34.9846C36.3367 35.5585 36.6331 36.1634 36.8697 36.7912C37.122 37.5035 37.609 37.8704 38.2751 38.1424C38.7045 38.3286 39.1195 38.545 39.5167 38.7899C39.6468 38.8459 39.7491 38.9494 39.8017 39.0782C39.8542 39.2069 39.8528 39.3507 39.7978 39.4785C39.4216 39.4634 39.1339 39.1029 38.751 39.1051C38.3681 39.1072 38.1955 39.254 38.377 39.6058C38.5584 39.9577 38.8329 40.2404 38.3482 40.5836C38.2043 40.685 38.3836 40.9052 38.512 41.0304C38.6384 41.1309 38.7411 41.2567 38.8133 41.3993C38.8855 41.542 38.9254 41.6981 38.9303 41.8571C38.5603 41.7691 38.2208 41.5872 37.9463 41.3298C37.6719 41.0724 37.4722 40.7486 37.3677 40.3915C37.1154 39.567 36.5931 39.0964 35.7631 38.8331C33.0147 37.9382 30.2136 37.2052 27.375 36.638C26.8439 36.5344 26.2817 36.5689 25.7616 36.4221C24.7037 36.148 24.1127 36.6898 23.6413 37.4711C23.0548 38.4446 22.5037 39.4396 21.9106 40.4109C21.6893 40.7606 21.552 41.1793 21.0076 41.5074C21.2112 40.5102 21.8929 39.9425 22.2647 39.2216C22.6365 38.5007 23.0659 37.7323 23.5926 36.7696C22.454 37.0547 21.3575 37.4812 20.3304 38.0388C20.0603 38.1877 20.0758 38.4403 20.0714 38.6863C20.0714 39.3921 20.0537 40.1001 20.0382 40.8059C20.0382 41.1923 20.0603 41.5894 19.7638 41.9585C19.2171 41.706 18.9626 41.311 19.0511 40.7088C19.1618 39.9706 18.9758 39.2518 18.8763 38.5007C16.7626 39.5001 15.3041 41.2354 13.6287 42.7161C11.8915 44.2101 10.4484 46.0007 9.37048 48C9.189 47.3978 9.48114 47.0934 9.69804 46.7891C11.2694 44.5788 12.9227 42.4377 15.0563 40.6915C15.6209 40.1937 16.1573 39.6663 16.663 39.1115C16.8578 38.913 17.0835 38.7079 16.9972 38.3798C17.5904 38.5244 17.9866 38.3043 18.3407 37.6589C17.6612 37.7776 17.2739 38.0107 17.0017 38.4424ZM22.0035 35.1832C22.3709 34.3975 22.9508 34.3026 23.5904 34.2421C24.0596 34.1946 24.4182 34.2594 24.6174 34.8076C25.6598 33.6874 26.6602 32.7053 27.8752 32.0017C29.3824 31.1189 30.6462 29.9058 32.1822 29.0726C32.2423 29.0355 32.2915 28.9837 32.3249 28.9224C32.3582 28.8611 32.3747 28.7924 32.3725 28.723C32.4345 28.2352 32.5296 27.7495 32.5517 27.2595C32.6093 26.0163 32.855 24.8421 33.5366 23.7564C34.537 22.1592 35.201 20.4065 35.8738 18.6603C36.8188 16.2148 37.0911 13.5837 38.0605 11.1447C38.2065 10.7777 38.0383 10.5964 37.6953 10.5489C36.8766 10.4038 36.0495 10.3086 35.2187 10.264C33.291 10.2381 31.4142 9.90571 29.544 9.49561C29.1982 9.40601 28.8339 9.41048 28.4905 9.50855C27.707 9.74166 26.9567 9.69849 26.2618 9.13082C25.797 8.75309 25.3212 8.31711 24.624 8.14875C24.6052 8.29206 24.6052 8.43712 24.624 8.58044C25.288 10.4432 25.8014 12.362 26.6867 14.1449C26.9722 14.7147 27.0475 15.3666 27.437 15.8954C27.481 15.9539 27.5007 16.0265 27.4921 16.0986C27.4835 16.1706 27.4472 16.2369 27.3905 16.2839C27.2046 16.4263 27.0453 16.2968 26.9213 16.1781C26.6869 15.9074 26.5161 15.5899 26.4211 15.2479C25.9121 13.9528 25.4208 12.675 24.821 11.4252C24.6373 11.0454 24.4558 10.8641 23.9976 11.1058C21.8685 12.2325 19.5956 13.0614 17.4045 14.0607C17.1324 14.1552 16.9075 14.3474 16.7759 14.5982C16.5546 15.045 16.2801 15.4615 16.1119 15.9299C15.0695 18.8049 13.5579 21.462 12.106 24.1449C11.3181 25.5976 11.3093 25.6213 12.8652 26.135C15.6737 27.0631 18.1614 28.4078 19.8036 30.9375C20.1529 31.4289 20.3489 32.0084 20.368 32.606C20.368 33.6852 20.5074 34.7644 20.3304 35.7897C20.6889 36.0055 20.815 35.3947 21.1271 35.6926C21.178 35.9797 20.8062 36.1696 20.9988 36.5732C21.904 36.0595 22.953 35.8955 24.0021 35.4098C22.7516 34.8313 22.7516 34.8314 22.0035 35.1832ZM4.65853 24.0694C4.70944 24.119 4.73158 24.1557 4.75814 24.1622C6.32068 24.4687 7.88098 24.7838 9.44573 25.0752C10.9175 25.3493 10.9175 25.3364 11.6147 23.996C11.7121 23.806 11.836 23.6269 11.9356 23.4413C13.1307 21.3757 14.0736 19.1935 14.9788 16.9962C15.1426 16.5969 15.4214 16.1738 15.2001 15.7011C14.7707 15.6536 14.4698 15.8652 14.1422 16.0141C13.0688 16.4976 12.3052 17.3739 11.3845 18.0387C9.68476 19.2625 8.21077 20.7216 6.61947 22.0556C5.90902 22.6556 5.3225 23.3808 4.65853 24.0694ZM24.9206 35.3084C28.5945 35.5954 31.9874 36.8884 35.5153 37.5316C35.5374 37.4215 35.5595 37.3805 35.5462 37.3567C34.3437 35.0726 33.3513 32.689 32.5805 30.2339C32.3592 29.5151 32.1534 29.459 31.5005 29.9576C30.1039 31.0368 28.6233 31.9757 27.2068 33.0204C26.3154 33.649 25.5419 34.423 24.9206 35.3084ZM17.3801 12.9836C17.5249 13.0361 17.6811 13.0515 17.8337 13.0284C17.9863 13.0054 18.1304 12.9446 18.2521 12.852C19.5801 12.1289 21.0164 11.6195 22.4285 11.0756C24.5244 10.2683 24.5377 10.2726 23.7918 8.17465C23.6037 7.64799 23.4952 7.035 23.0039 6.69396C22.2271 6.15651 21.3971 5.69243 20.5295 5.16145C19.6708 7.89619 18.4469 10.3806 17.3823 12.9901L17.3801 12.9836ZM35.1899 23.3441C34.8674 23.4627 34.5874 23.6705 34.3843 23.942C33.8598 24.5226 34.0081 25.2911 33.7801 25.9559C33.6827 26.2429 33.468 26.5861 33.7314 27.0351C34.6455 25.9796 34.8026 24.732 35.1921 23.3506L35.1899 23.3441Z" fill="currentColor"/>
</g>
<defs>
<filter id="filter0_d_24_9" x="0" y="0" width="51" height="55" filterUnits="userSpaceOnUse" color-interpolation-filters="sRGB">
<feFlood flood-opacity="0" result="BackgroundImageFix"/>
<feColorMatrix in="SourceAlpha" type="matrix" values="0 0 0 0 0 0 0 0 0 0 0 0 0 0 0 0 0 0 127 0" result="hardAlpha"/>
<feOffset dx="3" dy="3"/>
<feGaussianBlur stdDeviation="2"/>
<feComposite in2="hardAlpha" operator="out"/>
<feColorMatrix type="matrix" values="0 0 0 0 0 0 0 0 0 0 0 0 0 0 0 0 0 0 0.25 0"/>
<feBlend mode="normal" in2="BackgroundImageFix" result="effect1_dropShadow_24_9"/>
<feBlend mode="normal" in="SourceGraphic" in2="effect1_dropShadow_24_9" result="shape"/>
</filter>
</defs>
</svg>
