<svg width="36" height="85" viewBox="0 0 36 85" fill="none" xmlns="http://www.w3.org/2000/svg">
<g>
<path opacity="0.5" d="M5.18176 33.0231C5.06839 33.4367 5.18176 33.753 5.23095 34.0736C6.08659 40.3345 6.75185 46.6154 7.27378 52.9161C7.57967 56.6226 7.99467 60.3181 8.41393 64.0159C8.76474 67.1386 9.55187 70.1463 10.1829 73.1982C10.2449 73.5012 10.4867 73.8285 9.94977 73.9479C9.41286 74.0674 9.35298 74.0209 9.20966 73.3818C8.85457 71.8138 8.508 70.2414 8.15506 68.6734C7.81494 67.1673 7.49197 65.6546 6.65773 64.3299C6.58246 64.185 6.53454 64.0266 6.51654 63.8633C5.99774 61.084 5.61721 58.279 5.37642 55.4594C4.97428 50.7377 4.52079 46.0227 4.03308 41.3054C3.23092 33.4478 2.21057 25.6034 1.75067 17.7192C1.59452 15.0277 1.30789 12.3606 1.03837 9.68685C1.01056 9.40819 0.882212 9.04549 1.32928 9.00347C1.72929 8.96588 1.88331 9.2379 1.92609 9.61386C2.04303 10.6268 2.16566 11.6389 2.294 12.6503C2.32609 12.9113 2.36672 13.1723 2.41806 13.4288C2.43517 13.5195 2.48011 13.6168 2.59348 13.6146C2.74963 13.6146 2.80738 13.4973 2.82235 13.358C2.83732 13.2187 2.80953 13.0971 2.80739 12.9644C2.79924 11.8795 2.72781 10.796 2.59348 9.72001C2.55498 9.44136 2.51004 9.18924 2.84802 9.0853C3.11968 9.00126 3.35499 8.97915 3.39778 9.3706C3.44911 9.82839 3.51968 10.284 3.5646 10.744C4.14857 16.839 4.67266 22.9451 5.60957 28.9915C6.81174 36.7629 7.82994 44.5652 9.24601 52.299C9.60751 54.2718 9.92408 56.2533 10.2428 58.2304C10.4268 59.376 10.4203 60.5791 10.6706 61.7291C11.2482 64.383 11.8642 67.0523 12.4589 69.715C12.6386 70.5156 12.7947 71.3228 12.9701 72.1256C13.0343 72.422 13.0215 72.6365 12.6621 72.7006C12.3584 72.7559 12.1766 72.6807 12.1038 72.3534C11.8258 71.1017 11.5327 69.8543 11.2482 68.5938C10.63 65.7696 9.86418 62.9786 9.43636 60.108C8.60212 54.4774 7.708 48.8557 6.90798 43.2206C6.45236 40.0006 5.83844 36.8071 5.41063 33.5849C5.37426 33.4035 5.39567 33.189 5.18176 33.0231ZM4.85233 39.879C5.45983 46.7348 6.09942 53.5906 7.02564 60.4154C6.49301 53.553 5.93259 46.6883 4.84594 39.8856L4.85233 39.879ZM3.11969 24.219H3.08331C3.14962 24.6613 3.22236 25.1235 3.28012 25.5768C3.33787 26.0302 3.36568 26.4217 3.41916 26.8441C3.44911 27.0652 3.46194 27.3682 3.76783 27.3129C4.07372 27.2576 3.99885 26.9701 3.98174 26.7446C3.98174 26.6782 3.98173 26.6141 3.96889 26.5477L3.49402 21.5651C3.49016 21.4673 3.48088 21.3699 3.46622 21.2732C3.42985 21.1007 3.33574 20.9658 3.15178 20.9746C3.11214 20.9731 3.07261 20.98 3.03563 20.9948C2.99866 21.0097 2.96502 21.0322 2.93677 21.061C2.90852 21.0898 2.88626 21.1242 2.87136 21.1622C2.85647 21.2003 2.84926 21.241 2.85016 21.282C2.84727 21.4453 2.85513 21.6086 2.87369 21.7708C2.95283 22.5979 3.04267 23.4228 3.11326 24.2256L3.11969 24.219ZM4.06945 33.1669C4.25341 34.6044 4.28334 36.0662 4.69618 37.475L4.06945 33.1669ZM3.01487 16.5803C3.09546 15.844 3.07747 15.0998 2.9614 14.3687C2.94001 14.2515 2.89722 14.1188 2.72182 14.1475C2.69844 14.1503 2.67581 14.1578 2.65526 14.1697C2.63471 14.1815 2.61665 14.1975 2.60212 14.2166C2.58759 14.2357 2.57689 14.2577 2.57063 14.2811C2.56438 14.3046 2.56269 14.3291 2.56567 14.3532C2.61487 15.1228 2.61486 15.8903 3.00845 16.5869L3.01487 16.5803ZM4.7411 39.001C4.78816 38.6891 4.84165 38.4591 4.54004 38.2756C4.62988 38.5321 4.50368 38.771 4.7347 39.0076L4.7411 39.001Z" fill="currentColor"/>
<path opacity="0.5" d="M16.7973 71.0557C16.9532 72.174 17.107 73.2922 17.269 74.4104C17.3247 74.5953 17.3671 74.7844 17.3961 74.9761C17.3975 75.0506 17.3849 75.1245 17.359 75.1935C17.3331 75.2626 17.2945 75.3253 17.2455 75.3779C17.1964 75.4306 17.138 75.472 17.0737 75.4998C17.0094 75.5276 16.9405 75.5412 16.8712 75.5397C16.5533 75.5727 16.5656 75.2755 16.5328 75.0664C16.4152 74.2901 16.3079 73.5123 16.2109 72.7331C15.9668 70.785 15.6428 68.8479 15.5444 66.8822C15.5024 66.6237 15.5024 66.3593 15.5444 66.1008C15.9955 64.6039 15.7084 63.1093 15.5444 61.6257C14.6872 54.3132 13.6987 47.0161 12.7841 39.7124C11.9228 32.8974 11.0622 26.0809 10.2023 19.263C9.67112 15.041 8.92053 10.8587 8.2725 6.65653C8.21714 6.30213 8.10846 5.95875 8.02848 5.60876C7.96286 5.3204 7.9916 5.08486 8.31972 5.01662C8.64783 4.94839 8.82214 5.08927 8.88161 5.45687C9.05592 6.52227 9.25894 7.58105 9.44145 8.64425C10.6719 15.8665 11.5086 23.1504 12.3986 30.4364C13.6803 40.8945 15.0173 51.3481 16.2949 61.8018C16.8117 65.9944 17.4802 70.1576 18.3005 74.2915C18.5056 75.2821 18.727 76.2727 18.9362 77.2566C18.9834 77.4767 19.0839 77.6969 18.8604 77.884C18.8056 77.9379 18.7382 77.9749 18.6654 77.991C18.5926 78.007 18.517 78.0016 18.4469 77.9751C18.3768 77.9487 18.3147 77.9022 18.2672 77.8408C18.2198 77.7794 18.1887 77.7053 18.1775 77.6264C17.8432 76.0856 17.511 74.5645 17.2054 73.028C17.0762 72.3677 17.0147 71.7073 16.9204 71.0469L16.7973 71.0557Z" fill="currentColor"/>
<path opacity="0.5" d="M27.5347 72.4381C27.2153 68.7384 26.995 65.0277 26.5434 61.3456C26.1837 58.4141 25.8378 55.4812 25.506 52.5467C24.5808 44.3483 23.2482 36.2116 22.0566 28.044C21.2019 22.1943 20.4552 16.3269 19.6336 10.4705C19.2679 7.86796 18.8208 5.27642 18.4265 2.67604C18.3529 2.32614 18.2313 1.98813 18.0652 1.67166C18.0332 1.62286 18.0123 1.56758 18.004 1.50976C17.9957 1.45195 18.0003 1.39301 18.0173 1.33716C18.0343 1.2813 18.0635 1.2299 18.1026 1.18661C18.1417 1.14331 18.1899 1.10919 18.2437 1.08668C18.5366 0.960854 18.856 0.936565 19.0168 1.25885C19.1276 1.5326 19.2017 1.81988 19.2371 2.11315C19.7767 4.8835 20.1402 7.68033 20.4618 10.486C21.1645 16.6249 22.1072 22.7285 23.0676 28.8321C24.4113 37.3683 25.5721 45.9332 26.4509 54.5334C26.7659 57.604 27.2461 60.6591 27.5941 63.7275C28.0171 67.4801 28.3761 71.2328 28.7704 75.0009C28.8255 75.5241 28.9202 76.0428 28.9907 76.5616C29.0127 76.7293 29.0105 76.9015 28.8144 76.9678C28.7236 77.008 28.6205 77.0107 28.5276 76.9751C28.4348 76.9396 28.3597 76.8687 28.3188 76.7779C28.1429 76.4613 28.0272 76.1148 27.9774 75.7559C27.8188 74.6521 27.6492 73.5484 27.484 72.4447L27.5347 72.4381Z" fill="currentColor"/>
<path opacity="0.5" d="M18.2125 45.8774C16.6164 38.2299 15.8553 30.4449 14.8809 22.6954C14.4993 19.651 14.3824 16.5844 14.2347 13.5201C14.1157 11.0168 13.97 8.51342 14.0069 6.00342C13.9977 5.80621 13.9977 5.60862 14.0069 5.41141C14.0418 5.08324 14.2449 4.98789 14.528 5.00119C14.8111 5.0145 14.9383 5.16971 14.9383 5.50453C14.926 6.65753 14.9383 7.81275 14.9383 8.96575C14.9383 14.192 15.4225 19.3738 16.0502 24.5468C16.4831 28.1145 16.8872 31.6843 17.2811 35.2564C17.716 39.1589 18.43 43.017 19.0885 46.8729C20.424 54.7289 21.6673 62.6003 22.4961 70.5428C22.5469 71.2343 22.6736 71.9168 22.8735 72.576C22.9402 72.8298 22.9801 73.0909 22.9925 73.3543C23.0459 73.7978 22.8079 73.953 22.4653 73.9951C22.0919 74.0439 22.1083 73.7179 22.0755 73.4718C21.8191 71.5117 21.5093 69.556 21.3287 67.5871C20.7974 61.7977 19.7778 56.0947 18.828 50.3785C18.5961 48.8863 18.4218 47.3785 18.2125 45.8774Z" fill="currentColor"/>
<path opacity="0.5" d="M13.3169 16.672C13.8582 20.9268 14.1727 25.2034 14.5449 29.4734C15.0562 35.2054 15.8842 40.8915 16.7913 46.5667C17.5743 51.4739 18.199 56.4029 18.8643 61.3253C19.5061 66.0558 20.3063 70.7622 20.8668 75.5079C20.901 75.7989 20.9395 76.0898 20.9823 76.3807C21.0294 76.7014 21.008 76.9524 20.5951 76.9894C20.5154 77.0068 20.4326 77.0027 20.355 76.9776C20.2773 76.9526 20.2073 76.9074 20.1519 76.8465C20.0965 76.7855 20.0576 76.711 20.0389 76.6301C20.0202 76.5492 20.0223 76.4648 20.0452 76.3851C20.0985 76.0348 20.0949 75.678 20.0346 75.329C19.5853 72.1499 19.0954 68.9752 18.7103 65.7874C18.5926 64.8121 18.3359 63.8738 18.2289 62.9007C18.1219 61.9276 17.9508 60.974 17.8139 60.0096C17.6706 59.0125 17.5272 58.0153 17.3967 57.0182C17.2662 56.021 17.1828 55.0828 17.0501 54.1162C16.9232 53.1169 16.7899 52.119 16.6501 51.1226C16.5089 50.1255 16.3591 49.1305 16.2115 48.1355C16.0639 47.1406 15.9184 46.2089 15.7836 45.2467C15.641 44.2502 15.4934 43.2538 15.3408 42.2574C15.1981 41.2959 15.062 40.3315 14.9322 39.3642C14.791 38.3692 14.6434 37.3721 14.5193 36.3749C13.9887 32.0896 13.548 27.7934 13.1415 23.5015C12.6687 18.483 12.044 13.493 11.1797 8.53124C11.1241 8.21267 11.0749 7.89192 11.0235 7.57118C10.9786 7.29626 10.9594 7.05189 11.338 7.00825C11.6803 6.96897 11.8921 7.0628 11.9456 7.44464C12.0291 8.02285 12.1339 8.5967 12.2195 9.17491C12.5846 11.6696 12.9504 14.1686 13.3169 16.672Z" fill="currentColor"/>
</g>
<defs>
<filter id="filter0_d_24_14" x="0" y="0" width="36" height="85" filterUnits="userSpaceOnUse" color-interpolation-filters="sRGB">
<feFlood flood-opacity="0" result="BackgroundImageFix"/>
<feColorMatrix in="SourceAlpha" type="matrix" values="0 0 0 0 0 0 0 0 0 0 0 0 0 0 0 0 0 0 127 0" result="hardAlpha"/>
<feOffset dx="3" dy="3"/>
<feGaussianBlur stdDeviation="2"/>
<feComposite in2="hardAlpha" operator="out"/>
<feColorMatrix type="matrix" values="0 0 0 0 0 0 0 0 0 0 0 0 0 0 0 0 0 0 0.25 0"/>
<feBlend mode="normal" in2="BackgroundImageFix" result="effect1_dropShadow_24_14"/>
<feBlend mode="normal" in="SourceGraphic" in2="effect1_dropShadow_24_14" result="shape"/>
</filter>
</defs>
</svg>
