<svg width="89" height="115" viewBox="0 0 89 115" fill="none" xmlns="http://www.w3.org/2000/svg">
<g>
<path opacity="0.5" d="M70.2943 9.94459C70.3602 9.62745 70.5136 9.33456 70.7375 9.09837C72.5457 7.17572 74.5046 5.45256 76.9798 4.39368C77.2457 4.28187 77.5249 4.17445 77.6091 3.83245C77.6148 3.7987 77.6275 3.76648 77.6464 3.73782C77.6653 3.70917 77.69 3.6847 77.719 3.66595C77.7479 3.64721 77.7805 3.6346 77.8146 3.62892C77.8487 3.62324 77.8836 3.62462 77.9172 3.63296C78.4313 3.81711 78.4401 3.44441 78.4711 3.14187C78.4908 2.92729 78.4628 2.71107 78.3891 2.50831C78.3013 2.26196 78.2679 1.99983 78.2913 1.73963C78.3146 1.47944 78.3941 1.22722 78.5243 1C78.8279 1.26308 78.8479 1.63139 78.9897 1.92077C79.331 2.61135 79.4329 2.74508 80.1287 2.57846C80.5098 2.49296 80.6494 2.60037 80.922 2.85687C81.6555 3.54745 82.0122 4.30819 81.835 5.30569C81.7796 5.61699 82.1031 5.87129 81.9657 6.23083C81.6222 7.12748 81.1613 7.92329 80.3525 8.48452C80.0578 8.6906 79.6877 8.57878 79.3597 8.76074C78.6131 9.14201 77.8941 9.57421 77.2081 10.0542C76.7028 10.4247 76.2375 10.8698 75.7078 11.2117C73.9927 12.3232 73.1595 14.0617 72.293 15.7871C71.8645 16.597 71.4942 17.4358 71.185 18.2973C70.7153 19.7025 70.6067 21.1012 71.338 22.5131C71.8698 23.5369 72.1379 24.6813 72.4659 25.8015C72.7938 26.9218 72.9933 27.9938 73.5251 29.0067C73.9018 29.717 74.3516 30.3878 74.7306 31.1025C75.1095 31.8172 75.145 32.5867 75.2513 33.3452C75.3887 34.3449 75.0763 35.2876 74.8082 36.2413C74.7314 36.5131 74.6003 36.7668 74.4225 36.9875C74.2448 37.2082 74.024 37.3913 73.7733 37.5259C73.1499 37.9011 72.5572 38.3241 72.0005 38.7909C69.7713 40.4856 67.2318 41.5576 64.6325 42.5178C63.4137 42.9694 62.1683 43.3531 60.9562 43.8332C59.8482 44.2585 58.6693 44.3067 57.5635 44.6685C55.9392 45.2034 54.2396 45.4204 52.5887 45.8216C51.3411 46.1242 51.2902 46.2601 52.1744 47.2137C54.1155 49.3183 55.9703 51.5107 58.1109 53.4267C58.9441 54.1721 59.6022 55.0578 60.3512 55.8689C60.6039 56.1408 60.8498 56.542 60.4487 56.9388C60.4225 56.9604 60.4017 56.9877 60.3879 57.0186C60.3741 57.0495 60.3677 57.0831 60.3692 57.1169C60.3707 57.1506 60.38 57.1836 60.3965 57.2131C60.413 57.2427 60.4362 57.2681 60.4642 57.2874C60.7989 57.5395 60.7723 57.8004 60.5418 58.1139C60.4222 58.2783 60.5773 58.4756 60.5706 58.6641C60.573 58.9349 60.4762 59.1973 60.2981 59.4029C60.2355 59.4584 60.185 59.5259 60.1495 59.6012C60.1141 59.6766 60.0945 59.7583 60.092 59.8414C60.1784 61.0011 59.5269 61.8517 58.8422 62.6739C58.3995 63.1499 57.8467 63.5125 57.2311 63.7305C56.9992 63.8063 56.7589 63.8542 56.5154 63.873C56.1365 63.93 55.7509 63.371 55.3698 63.873C54.9109 63.8522 54.4512 63.8853 54.0003 63.9717C53.577 64.0407 53.1501 64.0861 52.7217 64.1076C50.8847 64.1493 49.0476 64.2918 47.2039 64.1975C45.9851 64.1361 44.7664 64.123 43.5454 64.0287C41.8435 63.8972 40.1306 63.8818 38.4487 63.5595C38.1067 63.4961 37.7571 63.4843 37.4116 63.5245C36.6538 63.61 36.574 63.6779 36.687 64.4387C36.7712 64.9955 36.9307 65.5348 36.9684 66.1048C37.0056 67.1466 37.1436 68.1824 37.3806 69.1982C37.7972 70.7766 38.072 72.3945 38.6215 73.9335C38.9207 74.7732 39.1689 75.6194 39.3949 76.4766C39.4636 76.7462 39.6874 76.9633 39.7738 77.2592C39.898 77.6729 39.9534 78.1039 39.9378 78.5352C39.9245 78.9736 40.1218 79.3726 40.042 79.8505C39.9868 80.2704 40.0086 80.6967 40.1062 81.1089C40.3078 81.9858 39.991 82.8628 39.9777 83.7397C39.9601 83.8725 39.8985 83.9958 39.8026 84.0905C39.1379 84.7986 38.3179 85.3335 37.5867 85.9605C37.511 86.0183 37.4226 86.0577 37.3287 86.0756C37.2348 86.0935 37.138 86.0894 37.046 86.0635C36.4043 85.9397 35.7423 85.9637 35.1115 86.1337C34.9525 86.1744 34.7877 86.1892 34.6239 86.1775C32.6052 85.9802 30.5754 86.1424 28.5522 85.9583C26.6354 85.7851 24.7031 85.7873 22.7907 85.6185C21.6096 85.5133 20.4241 85.5067 19.2452 85.4212C19.0923 85.4212 18.9039 85.3291 18.802 85.5045C18.7683 85.5785 18.7561 85.6604 18.7667 85.7409C18.7772 85.8214 18.8102 85.8974 18.8618 85.9605C19.5266 87.015 20.0762 88.1221 20.6856 89.2007C20.9541 89.727 21.25 90.2392 21.5719 90.7353C22.0727 91.4391 22.4583 92.2305 22.9879 92.8882C23.3159 93.2893 23.7325 93.6379 24.0339 94.083C24.1594 94.2562 24.2461 94.454 24.2881 94.6631C24.3301 94.8722 24.3266 95.0877 24.2776 95.2953C24.1314 96.056 24.1181 96.8299 24.0117 97.6104C23.7702 99.3291 22.7176 100.324 21.2085 100.98C19.9565 101.524 18.6092 101.734 17.304 102.094C15.8149 102.504 14.3102 102.87 12.9208 103.567C12.1962 103.933 11.4915 104.334 10.7713 104.709C9.68996 105.272 8.60194 105.821 7.52277 106.388C7.04536 106.644 6.60545 106.962 6.21532 107.335C5.62144 107.892 4.91235 108.175 4.06807 107.884C3.62488 107.728 3.11299 107.833 2.68531 107.489C2.08479 107.007 1.67703 106.366 1.16514 105.814C0.881497 105.509 1.02777 105.029 1.1297 104.65C1.23863 104.235 1.2952 103.807 1.29812 103.378C1.31363 102.387 1.63051 102.034 2.6277 101.844C2.72963 101.826 2.86925 101.809 2.92022 101.741C3.19278 101.375 3.44758 101.546 3.66031 101.769C3.87305 101.993 4.06809 101.988 4.25423 101.741C4.51793 101.394 4.95448 101.324 5.31125 101.168C6.78043 100.531 8.17204 99.7435 9.6235 99.077C9.79634 98.9981 9.95589 98.8951 10.1243 98.8052C10.3459 98.689 10.4257 98.4193 10.6251 98.3032C10.7514 98.2308 10.5985 98.6868 10.9109 98.5509C11.0816 98.4785 11.3807 98.4281 11.3541 98.2769C11.3164 98.0182 11.4849 98.0006 11.6068 97.9612C12.289 97.6997 12.9869 97.48 13.6964 97.3035C14.6315 97.1149 15.5024 96.7576 16.4043 96.4813C17.0203 96.2928 17.6364 96.0977 18.2524 95.9048C18.1717 95.4911 17.9949 95.1016 17.7361 94.767C16.894 93.4845 16.0542 92.2042 15.2232 90.9151C14.8133 90.2771 14.1795 89.8189 13.7895 89.1766C13.7094 89.0699 13.5899 88.999 13.4571 88.9793C13.0735 88.8524 12.7518 88.588 12.5552 88.2383C12.4422 88.0498 12.3579 87.8261 12.1297 87.7845C11.8106 87.7231 11.7176 87.4622 11.5536 87.2583C11.4539 87.1356 11.4361 86.9141 11.2544 86.8988C10.5409 86.8352 10.5786 86.377 10.6229 85.8553C10.6517 85.5067 10.583 85.1713 10.131 85.0397C9.94703 84.9871 9.82956 84.7372 9.6545 84.6188C9.3221 84.3996 9.27337 84.1518 9.44843 83.7967C9.65483 83.3382 9.76489 82.8429 9.77195 82.341C9.78746 82.0582 9.82072 81.8543 9.51713 81.6636C9.29554 81.5233 9.51712 80.642 9.834 80.3833C10.0556 80.2035 10.0999 79.9821 10.2129 79.7585C10.4678 79.2542 10.6893 78.682 11.1879 78.3269C11.4671 78.1274 11.7286 77.8336 12.0433 78.3269C12.1785 78.5461 12.4865 78.4869 12.7281 78.4672C13.1936 78.4021 13.6669 78.4139 14.1285 78.5023C14.2344 78.5317 14.3455 78.5384 14.4542 78.522C15.7838 78.2633 17.1312 78.5812 18.4762 78.4913C19.5089 78.4233 20.5703 78.6404 21.6074 78.6623C22.4118 78.6799 23.2206 78.761 24.0139 78.8245C24.6322 78.8728 25.2704 78.7347 25.8753 78.9342C25.9224 78.9603 25.9764 78.9718 26.0301 78.9671C26.0839 78.9624 26.135 78.9417 26.1767 78.9079C26.3784 78.7193 26.5268 78.9385 26.662 78.9495C27.1561 78.9912 27.6503 79.1446 28.1555 79.0569C28.2863 79.035 28.468 78.9517 28.5433 79.0087C29.0065 79.3463 29.5494 79.1161 30.0214 79.2411C30.6352 79.4055 31.2579 79.3814 31.8651 79.4033C32.3902 79.423 32.9354 79.3858 33.5603 79.4187C33.2743 78.7173 33.0691 77.9863 32.9487 77.2395C32.9354 77.1606 32.9487 77.0203 32.8999 77.0093C32.1997 76.6958 32.2352 76.2727 32.6229 75.7093C32.7493 75.5251 32.4656 75.5076 32.3105 75.49C32.2152 75.49 32.0889 75.5646 32.0446 75.4199C32.0002 75.2752 32.1221 75.2116 32.2662 75.1524C32.6562 74.9924 32.6872 74.8762 32.3548 74.6614C32.1154 74.5101 32.0269 74.4421 32.2329 74.2054C32.3238 74.1001 32.2529 73.962 32.2329 73.8283C32.0313 72.9514 31.7698 72.0876 31.5836 71.2129C31.4883 70.7744 31.4706 70.2724 31.3044 69.8493C31.0828 69.31 31.1936 68.7136 30.9144 68.2006C31.0496 68.1283 31.136 67.9814 31.0319 67.8828C30.7172 67.6394 30.7793 67.3588 30.8369 67.0387C30.871 66.94 30.8844 66.8355 30.8764 66.7315C30.8684 66.6274 30.8392 66.5261 30.7903 66.4336C30.5688 66.4687 30.3272 66.5279 30.3782 66.8041C30.4712 67.3062 30.4025 67.8828 30.9388 68.2138L30.8191 68.3234C30.7283 68.4067 30.7349 68.6281 30.5975 68.5975C30.4601 68.5668 30.2585 68.3936 30.3117 68.2489C30.4579 67.8565 30.2585 67.521 30.2075 67.1527C30.0103 65.7497 29.6402 64.3816 29.3034 63.0071C29.2325 62.7177 29.1173 62.4393 29.3167 62.1587C29.3567 62.1034 29.3819 62.0391 29.3901 61.9716C29.3982 61.9042 29.3889 61.8358 29.3632 61.7728C29.022 60.9485 29.6491 60.2207 29.6048 59.4205C29.5915 59.2012 30.2696 59.1245 30.4912 59.4051C30.7128 59.6857 30.7261 59.666 30.7128 59.3635C30.7017 59.199 31.3598 58.8746 30.6175 58.8373C30.5868 58.7979 30.5647 58.7526 30.5525 58.7043C30.5403 58.6561 30.5382 58.6058 30.5466 58.5567C30.6643 58.3116 30.8707 58.1191 31.125 58.0174C32.264 57.6754 32.2662 57.6776 32.9797 56.9804C33.0576 56.8867 33.1549 56.8105 33.2649 56.7568C33.3749 56.7031 33.4953 56.6732 33.6179 56.6691C33.8358 56.6772 34.0518 56.6264 34.2428 56.5223C34.3462 56.4601 34.4654 56.4285 34.5863 56.4312C34.7073 56.434 34.8249 56.4709 34.9253 56.5376C35.2998 56.7568 35.6965 56.9607 36.1441 56.702C36.8288 57.0769 37.6953 56.4302 38.329 57.0659C38.3486 57.0842 38.3722 57.0976 38.398 57.1052C38.4238 57.1129 38.451 57.1144 38.4775 57.1098C39.0093 56.9191 39.5146 57.0966 40.042 57.1383C40.4364 57.1734 40.8441 57.3444 41.1699 57.2983C41.7194 57.2216 42.2336 57.3246 42.7543 57.3575C43.88 57.4299 45.0079 57.4014 46.1359 57.4956C47.3893 57.6087 48.6507 57.6028 49.903 57.4781C50.8714 57.3751 51.8353 57.4277 52.797 57.34C52.9809 57.3224 53.1848 57.3619 53.3422 57.1208C52.8281 56.4631 52.3472 55.7593 51.6824 55.1959C51.3389 54.9043 50.9888 54.6193 50.796 54.1677C50.6558 53.9088 50.459 53.6841 50.2199 53.51C48.5867 52.1179 46.8272 50.4408 45.5885 48.687C45.2213 48.1906 44.9405 47.6371 44.7575 47.0493C44.5581 46.3807 44.6667 45.7186 44.6955 45.0762C44.7182 44.599 44.7723 44.1237 44.8573 43.6534C44.9681 43.044 44.9237 42.3841 45.5619 41.9873C45.6572 41.9281 45.6794 41.7527 45.7392 41.6321C45.9095 41.2825 46.1494 40.9704 46.4445 40.7146C46.7396 40.4589 47.0838 40.2646 47.4566 40.1436C48.134 39.8826 48.8447 39.7159 49.5684 39.6481C49.7847 39.6525 49.9943 39.5739 50.1534 39.4289C50.3307 39.2601 50.5965 39.0913 50.8514 39.3741C50.9777 39.51 51.1616 39.4113 51.3168 39.4398C51.6137 39.4924 51.7356 39.0299 51.8353 39.1154C52.0946 39.3346 52.2785 39.2447 52.5001 39.1154C52.6669 39.0248 52.86 38.9931 53.0474 39.0255C53.1804 39.0255 53.3422 39.1088 53.4397 39.0584C54.346 38.6046 55.4052 38.6199 56.2938 38.1332C56.5376 38.0017 56.7725 38.1595 57.0317 38.0762C58.2328 37.6838 59.4139 37.2322 60.657 36.9801C60.8321 36.945 61.1002 36.934 61.1002 36.6315C61.8572 36.5878 62.586 36.3315 63.201 35.8927C63.3406 35.7896 63.4403 35.851 63.5555 35.8269C64.0718 35.7283 64.6524 35.7546 64.9981 35.2503C65.1443 35.0311 65.2795 35.235 65.4169 35.2284C65.7515 35.2109 65.9111 34.7154 66.0817 34.79C66.3964 34.9215 66.5936 34.8141 66.8307 34.7045C67.7902 34.266 68.5193 33.4702 69.4899 33.0624C69.8023 32.9309 69.8378 32.6875 69.6228 32.4047C69.4753 32.2121 69.3731 31.9893 69.3237 31.7527C69.2742 31.516 69.2788 31.2714 69.337 31.0367C69.4256 30.5829 69.0755 30.2387 68.8738 29.8704C68.7231 29.5898 68.4594 29.432 68.8339 29.0658C69.0888 28.8225 68.8561 28.4082 68.7143 28.0508C68.4218 28.3972 68.2933 28.0727 68.0739 27.996C67.6839 27.8601 67.562 27.7505 67.8234 27.4019C67.8567 27.3602 67.932 27.2287 67.7836 27.2484C67.2606 27.3208 67.3138 26.9963 67.3758 26.6806C67.3893 26.615 67.3882 26.5473 67.3725 26.4822C67.3568 26.417 67.3269 26.3561 67.285 26.3036C67.0324 25.9572 67.0169 25.5143 66.8418 25.1614C66.3388 24.1003 66.4495 22.9362 66.1482 21.8422C65.9802 21.252 66.0011 20.6247 66.208 20.0467C66.3166 19.7617 66.2235 19.4592 66.2811 19.1698C66.3388 18.8804 66.0773 18.5713 66.4673 18.3806C66.505 18.363 66.5227 18.203 66.4894 18.1613C66.0795 17.7097 66.4252 17.337 66.6623 17.0192C66.9348 16.6596 66.6246 16.2255 66.9171 15.8814C67.1387 15.6249 66.988 15.0987 67.5354 15.0746C67.5797 15.0746 67.6639 14.9321 67.6484 14.8795C67.511 14.3818 67.7836 14.053 68.014 13.6474C68.2445 13.2418 68.3309 12.8099 68.5503 12.4087C68.9359 11.7006 69.5187 11.1175 69.8356 10.3633C69.9404 10.1397 70.1297 9.9657 70.3629 9.87883C70.4139 10.12 70.179 10.3173 70.261 10.6132C70.764 10.1748 71.0166 9.5982 71.369 9.07863C70.9369 9.35048 70.7131 9.77359 70.2943 9.94459ZM54.2795 56.6165C54.4213 56.7459 54.4679 57.0046 54.8246 56.9519C54.6806 56.6889 54.5343 56.5595 54.2551 56.6384C54.0845 56.0597 53.351 55.3011 52.6486 55.0556C53.1427 55.6256 53.5527 56.2745 54.2795 56.6165ZM17.4458 93.0679C17.3882 93.2565 17.4458 93.3771 17.6564 93.3968C17.7339 93.3968 17.8292 93.3968 17.8115 93.285C17.7826 93.1315 17.6497 93.0877 17.5101 93.0657C17.4836 93.0625 17.4568 93.0625 17.4303 93.0657C17.4569 92.989 17.5278 92.8794 17.499 92.8465C17.2129 92.4578 16.9804 92.0332 16.8076 91.5837C16.738 91.4706 16.6373 91.3794 16.5173 91.3207C16.442 91.2768 16.3556 91.3207 16.3223 91.1628C16.2049 90.538 15.693 90.1982 15.2941 89.6962C15.221 89.8672 15.1744 89.9154 15.1877 89.9592C15.2247 90.0856 15.2816 90.2055 15.3562 90.3144C15.9122 91.0535 16.4009 91.84 16.8165 92.6645C16.9495 92.9276 17.1112 93.1381 17.4458 93.0679ZM55.3875 56.884C55.0113 55.8179 54.2431 54.9311 53.2358 54.4001C54.0845 55.22 54.8335 55.9698 55.3875 56.884ZM30.4734 64.4167C29.8995 64.6623 29.8995 64.6623 30.387 65.2936C30.4114 64.9977 30.5864 64.7697 30.4734 64.4167ZM17.7826 90.9304C17.5145 90.7112 17.3195 90.492 17.0004 90.4591C16.9871 90.4591 16.9605 90.4986 16.9605 90.5205C16.9827 90.9589 17.4791 90.7923 17.6608 91.0335L17.7826 90.9304ZM73.893 6.74602C74.2413 6.65148 74.5424 6.43386 74.7394 6.13437C74.3888 6.2215 74.0857 6.43901 73.893 6.74164V6.74602ZM68.7963 13.3997C68.4883 13.5816 68.2334 13.7811 68.4949 14.2766C68.6278 13.9017 68.7142 13.6474 68.8029 13.3953L68.7963 13.3997ZM49.6526 63.3842C49.6282 63.2351 49.5174 63.2307 49.4088 63.2417C49.3003 63.2526 49.1119 63.2417 49.1075 63.4236C49.103 63.6056 49.2116 63.6582 49.3778 63.6165C49.5152 63.5837 49.6437 63.5442 49.6592 63.382L49.6526 63.3842ZM18.4031 94.368C18.4279 94.2214 18.3937 94.0711 18.3078 93.9492C18.2436 93.8418 18.1926 93.6862 18.0242 93.7782C17.9156 93.8396 17.9511 93.9734 17.9777 94.0676C17.9827 94.1163 17.9981 94.1634 18.0229 94.2057C18.0478 94.248 18.0814 94.2846 18.1217 94.313C18.1619 94.3414 18.2079 94.3611 18.2564 94.3705C18.305 94.38 18.3549 94.3791 18.4031 94.368ZM48.7396 63.4982C48.7179 63.4233 48.6676 63.3598 48.5993 63.3209C48.5311 63.2821 48.4503 63.2709 48.374 63.2899C48.2742 63.3096 48.2277 63.4433 48.2654 63.5552C48.2721 63.5875 48.2857 63.618 48.3052 63.6448C48.3248 63.6716 48.3498 63.694 48.3787 63.7105C48.4075 63.7271 48.4396 63.7374 48.4727 63.7408C48.5059 63.7443 48.5395 63.7408 48.5712 63.7305C48.6798 63.702 48.7684 63.656 48.7396 63.4982ZM45.8743 63.3995C46.0272 63.5902 46.1802 63.7196 46.4394 63.5946C46.4567 63.5772 46.4695 63.556 46.4768 63.5328C46.4841 63.5095 46.4857 63.4849 46.4815 63.4609C46.4174 63.3973 46.338 63.3509 46.2508 63.326C46.1636 63.3011 46.0714 63.2985 45.9829 63.3184C45.9608 63.3228 45.9475 63.3491 45.8743 63.3995ZM69.4943 11.648C69.3653 11.7337 69.2605 11.8506 69.19 11.9876C69.1194 12.1245 69.0853 12.277 69.091 12.4307C69.3192 12.2158 69.5142 12.0492 69.4943 11.648ZM28.8846 84.9871C28.9156 85.1691 28.9799 85.2063 29.0575 85.2261C29.2037 85.2699 29.4076 85.3751 29.4586 85.1669C29.5206 84.9016 29.2635 85.0178 29.1372 84.9893C29.0533 84.9806 28.9687 84.9799 28.8846 84.9871ZM31.136 85.2063C31.3953 85.408 31.6191 85.2765 31.8341 85.2392C31.6169 85.3379 31.4352 84.9454 31.1382 85.2063H31.136ZM47.195 63.6757C47.2416 63.656 47.3214 63.6407 47.328 63.6122C47.3417 63.5607 47.3386 63.5062 47.3191 63.4566C47.2996 63.407 47.2647 63.3647 47.2195 63.3359C47.2035 63.3243 47.1846 63.3173 47.1649 63.3155C47.1452 63.3137 47.1254 63.3173 47.1076 63.3259C47.0898 63.3345 47.0747 63.3477 47.064 63.3642C47.0532 63.3806 47.0472 63.3997 47.0466 63.4192C47.0407 63.4723 47.0522 63.5258 47.0793 63.572C47.1064 63.6182 47.1478 63.6545 47.1973 63.6757H47.195ZM66.4562 21.406C66.5604 21.3753 66.6468 21.3161 66.6224 21.1977C66.6189 21.1799 66.611 21.1633 66.5995 21.1492C66.5879 21.1352 66.573 21.1242 66.5561 21.1173C66.5392 21.1103 66.5208 21.1076 66.5026 21.1094C66.4844 21.1112 66.467 21.1174 66.4518 21.1275C66.3887 21.1655 66.3415 21.2246 66.3188 21.2941C66.2966 21.3884 66.372 21.4169 66.4584 21.406H66.4562ZM52.2741 63.4982C52.2673 63.4469 52.2425 63.3997 52.204 63.3648C52.1654 63.3299 52.1157 63.3096 52.0636 63.3074C52.0374 63.3065 52.0112 63.3108 51.9867 63.3199C51.9621 63.329 51.9397 63.3428 51.9205 63.3605C51.9014 63.3782 51.886 63.3995 51.8751 63.4231C51.8643 63.4468 51.8583 63.4722 51.8574 63.4982C51.8574 63.6209 51.935 63.6823 52.0525 63.6779C52.1041 63.6771 52.1538 63.6585 52.1931 63.6253C52.2323 63.5921 52.2586 63.5463 52.2674 63.496L52.2741 63.4982ZM66.7022 18.7533C66.6512 18.7226 66.6135 18.7533 66.6091 18.8125C66.5991 18.8635 66.6024 18.9163 66.6187 18.9658C66.635 19.0152 66.6637 19.0598 66.7022 19.0953C66.7531 19.1347 66.813 19.1369 66.8329 19.0821C66.875 18.933 66.7775 18.841 66.6955 18.7511L66.7022 18.7533ZM16.1783 89.5646C16.1783 89.6852 16.1783 89.7137 16.1783 89.7356C16.2447 89.8781 16.298 90.036 16.493 90.0491C16.5064 90.0473 16.5192 90.0421 16.53 90.0341C16.5409 90.026 16.5495 90.0154 16.555 90.0031C16.5683 89.8168 16.3977 89.7532 16.2979 89.6414C16.2572 89.6102 16.2134 89.583 16.1672 89.5603L16.1783 89.5646ZM18.4142 92.1121C18.3743 91.7986 18.2746 91.6561 17.94 91.6188C18.0863 91.8293 18.1438 92.0025 18.4031 92.1077L18.4142 92.1121ZM53.8053 63.3929C53.9116 63.3688 54.0269 63.3381 53.9937 63.2C53.9915 63.1611 53.9749 63.1244 53.9471 63.0969C53.9193 63.0694 53.8822 63.053 53.8429 63.0509C53.7299 63.0509 53.6324 63.0707 53.6213 63.1956C53.6103 63.3206 53.7033 63.3513 53.7942 63.3864L53.8053 63.3929ZM66.7354 22.4407C66.7851 22.4311 66.8314 22.4091 66.8702 22.3769C66.909 22.3447 66.9389 22.3033 66.957 22.2566C66.9947 22.1864 66.9703 22.0987 66.8639 22.1185C66.8124 22.1299 66.7659 22.1574 66.7313 22.1968C66.6966 22.2363 66.6755 22.2856 66.6712 22.3377C66.6734 22.3706 66.7155 22.4122 66.7354 22.4407ZM77.7044 4.58441C77.6867 4.54276 77.6756 4.47261 77.649 4.46603C77.5227 4.42657 77.4695 4.53399 77.4274 4.61291C77.4153 4.62647 77.4075 4.64337 77.4052 4.66136C77.4029 4.67936 77.4062 4.69762 77.4146 4.71375C77.423 4.72988 77.4361 4.74311 77.4522 4.75172C77.4684 4.76033 77.4867 4.76391 77.505 4.76199C77.6158 4.77733 77.6778 4.70061 77.7044 4.59319V4.58441ZM30.7261 65.879C30.7261 65.7694 30.6951 65.6598 30.571 65.6598C30.4801 65.6598 30.4402 65.7475 30.4424 65.8264C30.4446 65.9053 30.4823 66.0456 30.5998 66.0456C30.7172 66.0456 30.7061 65.9645 30.7239 65.8878L30.7261 65.879ZM26.7728 85.1406C26.8171 85.1186 26.9257 85.0989 26.9368 85.0551C26.9451 85.0302 26.9475 85.0038 26.9436 84.9779C26.9397 84.952 26.9296 84.9273 26.9143 84.906C26.899 84.8846 26.8788 84.8671 26.8553 84.855C26.8319 84.8428 26.8059 84.8362 26.7794 84.8358C26.7196 84.8358 26.611 84.8753 26.5977 84.9191C26.5689 85.0353 26.6199 85.123 26.7728 85.1406ZM43.9531 63.6275C43.9938 63.6273 44.0333 63.6133 44.0647 63.5877C44.0962 63.5622 44.1178 63.5267 44.126 63.4872C44.157 63.4083 44.1526 63.3162 44.0639 63.2855C43.931 63.2395 43.8711 63.3359 43.8423 63.4455C43.8351 63.484 43.8424 63.5238 43.8628 63.5573C43.8833 63.5909 43.9154 63.6158 43.9531 63.6275Z" fill="currentColor"/>
</g>
<defs>
<filter id="filter0_d_24_8" x="0" y="0" width="89" height="115" filterUnits="userSpaceOnUse" color-interpolation-filters="sRGB">
<feFlood flood-opacity="0" result="BackgroundImageFix"/>
<feColorMatrix in="SourceAlpha" type="matrix" values="0 0 0 0 0 0 0 0 0 0 0 0 0 0 0 0 0 0 127 0" result="hardAlpha"/>
<feOffset dx="3" dy="3"/>
<feGaussianBlur stdDeviation="2"/>
<feComposite in2="hardAlpha" operator="out"/>
<feColorMatrix type="matrix" values="0 0 0 0 0 0 0 0 0 0 0 0 0 0 0 0 0 0 0.25 0"/>
<feBlend mode="normal" in2="BackgroundImageFix" result="effect1_dropShadow_24_8"/>
<feBlend mode="normal" in="SourceGraphic" in2="effect1_dropShadow_24_8" result="shape"/>
</filter>
</defs>
</svg>
