<svg width="68" height="108" viewBox="0 0 68 108" fill="none" xmlns="http://www.w3.org/2000/svg">
<g>
<path opacity="0.5" d="M40.7456 40.6052C40.4115 41.3623 39.8259 41.984 39.0857 42.3672C38.8123 42.5278 38.5732 42.7395 38.3816 42.9905C37.4951 44.1059 36.5198 45.1495 35.4652 46.1114C35.1991 46.3958 34.9132 46.6615 34.6096 46.9064C34.5196 46.9508 34.4468 47.023 34.4021 47.112C34.3575 47.2011 34.3435 47.3022 34.3623 47.3998C34.4113 47.7169 34.3066 47.8227 33.9791 47.62C33.7964 47.5077 33.6092 47.7081 33.6003 47.8557C33.5691 48.3601 33.1681 48.5495 32.8517 48.8182C32.4195 49.186 32.1566 49.7234 31.6307 50.0031C31.5633 50.0331 31.5101 50.0875 31.4819 50.155C31.4538 50.2226 31.4528 50.2982 31.4793 50.3665C31.5505 50.5273 31.7221 50.503 31.8535 50.4788C32.8762 50.296 33.9167 50.3885 34.9416 50.2586C36.4299 50.0648 37.9316 50.2211 39.4221 50.1198C40.2108 50.067 41.0107 50.1837 41.7927 49.8709C42.1761 49.7464 42.592 49.762 42.9647 49.915C43.3791 50.067 43.6732 49.915 44.043 49.6573C45.5403 48.62 47.0219 47.5474 48.7085 46.7941C48.2005 47.5584 47.2647 47.7588 46.5896 48.3094C45.9145 48.86 45.0835 49.3225 44.2146 49.893C44.9966 50.0978 45.6361 49.893 46.2644 49.8379C47.2335 49.7454 48.2005 49.7696 49.1608 49.7564C49.4304 49.7564 49.5351 49.8886 49.6398 50.1374C50.511 52.1571 51.0212 54.2935 51.6918 56.377C51.7612 56.6516 51.8583 56.9187 51.9814 57.1743C52.0795 57.3549 52.1842 57.5905 52.0683 57.7403C51.8455 58.0442 51.8767 58.2645 52.0862 58.553C52.231 58.7534 52.2042 59.0265 51.8923 59.0816C51.8286 59.0964 51.7626 59.0985 51.6981 59.0876C51.6335 59.0767 51.5719 59.053 51.5168 59.0181C51.4617 58.9832 51.4143 58.9376 51.3774 58.8842C51.3405 58.8308 51.3148 58.7706 51.3019 58.7072C51.2284 58.4715 51.5403 58.3151 51.3977 58.0464C51.0657 58.0596 50.9521 58.3614 50.7605 58.5442C50.6887 58.6126 50.6449 58.7048 50.6375 58.8031C50.6301 58.9014 50.6596 58.999 50.7204 59.0772C51.1883 59.9581 51.0902 60.1299 50.179 60.5748C48.6884 61.3016 47.2313 62.0703 46.0661 63.3081C45.1481 64.286 44.1032 65.1493 43.1184 66.0633C41.997 67.1319 40.9545 68.2787 39.9992 69.4948C39.743 69.8141 39.4154 70.1555 39.6873 70.6378C39.6951 70.6652 39.6951 70.6941 39.6873 70.7215C39.5513 71.3822 39.0612 71.8624 38.7181 72.4152C38.5086 72.75 38.1277 72.8138 37.7801 72.9019C37.6665 72.6817 37.9873 72.5033 37.7533 72.2852L35.7637 73.838C36.3541 72.8601 37.3946 72.3161 38.0541 71.4021C38.3148 71.5695 37.8647 72.0474 38.3772 72.0518C38.7002 72.0518 38.8629 71.8139 38.8473 71.4021C38.8317 71.2624 38.8273 71.1218 38.8339 70.9814C38.8776 70.7999 38.8531 70.6089 38.7649 70.444C38.3504 70.9968 37.7244 71.2038 37.2832 71.6686C36.5836 72.4086 35.7504 73.0165 35.2491 73.9481C34.9898 74.3563 34.6513 74.7096 34.2531 74.9877C33.9011 75.2608 33.6092 75.5801 33.2995 75.8686C32.9162 76.2353 32.5546 76.6236 32.2167 77.0315C31.7711 77.5557 31.4458 78.1812 30.7418 78.4411C30.5457 78.5138 30.6281 78.7472 30.5479 78.8816C30.4454 79.0578 30.4031 79.289 30.0667 79.1767C29.7303 79.0644 29.6835 79.5093 29.7681 79.5577C30.187 79.7956 29.933 79.9806 29.806 80.2185C29.4139 80.9739 29.2111 81.8196 28.692 82.509C28.6029 82.6213 28.5583 82.7909 28.4469 82.857C27.7184 83.2975 27.5735 84.0661 27.2772 84.7533C27.2059 84.9185 27.1658 85.2268 26.9141 84.859C26.8762 84.804 26.7648 84.9141 26.7224 84.9846C26.6467 85.1035 26.5286 85.2334 26.5286 85.3568C26.5286 85.6673 26.1454 85.9713 26.3392 86.1959C26.533 86.4206 26.8383 86.0417 27.1034 86.0307C27.5758 86.0087 27.8186 85.8876 27.9657 85.3502C28.086 84.9097 28.614 84.5991 28.8168 84.1124C28.9549 84.6432 28.409 85.0418 28.5672 85.5924C28.7426 85.5713 28.9106 85.5104 29.0582 85.4145C29.2058 85.3186 29.3291 85.1903 29.4183 85.0396C29.552 84.8392 29.6879 84.6696 29.9575 84.6784L29.933 84.652C29.8312 84.715 29.7471 84.8023 29.6884 84.9058C29.6296 85.0093 29.598 85.1258 29.5966 85.2445C29.8572 85.392 30.0934 85.218 30.3006 85.1299C30.9512 84.8502 31.7288 84.8789 32.2657 84.3326C32.9787 84.5287 33.5847 84.1124 34.242 83.9935C35.2557 83.8085 36.2071 83.3834 37.2297 83.2314C37.3367 83.2138 37.5038 83.1786 37.5305 83.1103C37.8091 82.4099 38.5309 82.4892 38.9966 82.5068C39.988 82.5443 40.8659 82.2029 41.7058 81.8615C42.7484 81.4077 43.8488 81.0972 44.9766 80.9387C46.8592 80.7184 48.6996 80.1788 50.5912 80.0577C52.1218 79.9586 53.6079 79.6502 55.1096 79.408C56.1634 79.2406 57.1727 78.8838 58.1865 78.5688C58.9455 78.3015 59.729 78.1075 60.5259 77.9896C60.6829 77.9502 60.8331 77.8879 60.9715 77.8046C60.9715 77.8596 61.016 77.9323 60.9938 77.961C60.6217 78.4367 60.5637 78.875 60.7888 79.5027C61.1363 80.4673 60.8133 81.4849 60.5281 82.4319C60.283 83.2468 59.951 84.0485 59.7305 84.8546C59.4297 85.9558 58.9863 86.9932 58.7814 88.1098C58.6758 88.5805 58.5267 89.0406 58.3358 89.4842C58.2021 89.8278 57.8612 89.8542 57.5426 89.9004C55.6384 90.1834 53.7515 90.5694 51.8901 91.0567C49.749 91.6007 47.6168 92.18 45.5135 92.8517C45.1503 92.9684 44.8005 93.0521 44.424 92.8803C44.1455 92.7526 43.8536 92.8451 43.5774 92.9178C42.8265 93.1116 42.0423 93.1535 41.3115 93.4376C41.24 93.4683 41.1619 93.4812 41.0842 93.4751C41.0065 93.4689 40.9315 93.4439 40.8659 93.4023C41.6463 93.0985 42.4493 92.8547 43.2677 92.6733C43.4615 92.6271 43.6799 92.6425 43.8269 92.4883C43.974 92.3341 44.1121 92.1623 44.0252 91.9685C43.9383 91.7747 43.7289 91.8452 43.564 91.8959C42.6149 92.1976 41.5878 92.2218 40.6943 92.757C40.3423 92.9772 39.861 92.9596 39.4578 93.1072C37.7979 93.7151 36.0489 94.041 34.3979 94.682C32.747 95.3229 31.1005 95.8713 29.4607 96.4857C27.3327 97.2742 25.1568 97.9304 22.9459 98.4503C21.9678 98.686 21.0187 99.0538 20.0339 99.2212C19.3889 99.3251 18.7642 99.528 18.1824 99.8225C17.7897 100.058 17.4301 100.344 17.113 100.673C16.6273 101.113 16.5315 101.113 16.1505 100.648C15.8169 100.256 15.4156 99.9247 14.9652 99.6705C14.7179 99.5185 14.3302 99.3489 14.7914 98.9899C14.8081 98.9761 14.8212 98.9585 14.8297 98.9387C14.8382 98.9189 14.8418 98.8974 14.8403 98.8759C14.8388 98.8544 14.8322 98.8336 14.821 98.8151C14.8097 98.7967 14.7943 98.7811 14.7758 98.7697C14.3302 98.4702 14.3302 98.0957 14.5374 97.6531C14.5691 97.5727 14.5752 97.4847 14.5549 97.4009C14.5346 97.317 14.4888 97.2413 14.4238 97.1839C14.2166 96.9483 14.0317 96.6928 13.8111 96.4725C13.2585 95.9241 13.2407 95.9241 13.6239 95.226C15.0254 92.6733 16.1661 89.9995 17.3826 87.361C17.4231 87.2355 17.4551 87.1075 17.4784 86.9778C16.6251 87.2333 15.9567 87.5835 15.5467 88.2992C14.5203 90.1097 13.5965 91.9751 12.7795 93.8869C12.7307 93.9899 12.6756 94.0899 12.6146 94.1864C12.5166 94.3538 12.3918 94.4397 12.1935 94.3296C11.9953 94.2194 11.9128 94.1093 11.9707 93.9199C12.0287 93.7305 12.1312 93.5543 12.1935 93.3693C12.8374 91.7527 13.664 90.2198 14.4216 88.6538C14.5642 88.3565 14.7691 88.0658 14.7023 87.6429C13.7554 88.5724 12.7996 89.4049 12.1535 90.5171C11.711 91.2169 11.2236 91.8878 10.6941 92.5257C10.605 92.6447 10.5404 92.8319 10.2351 92.7922L12.7483 88.9314C12.3027 88.9181 12.0799 89.1516 11.8281 89.3058C11.2578 89.6361 10.7142 90.0282 10.0613 90.1867C9.89729 90.2434 9.71972 90.2498 9.55194 90.205C9.38416 90.1602 9.234 90.0663 9.12113 89.9357C8.729 89.4621 8.18091 89.1912 7.69966 88.8344C6.51658 87.9579 5.26888 87.0769 4.03902 86.1959C3.66317 85.9305 3.33992 85.599 3.08542 85.218C2.94505 84.9978 2.86263 84.8106 3.13 84.6432C3.54663 84.3723 3.71151 83.9406 3.8541 83.5111C4.67847 81.0378 6.0821 78.8331 7.18274 76.4897C7.88457 74.9965 8.56189 73.4922 9.30828 72.0144C10.2841 70.0828 11.2979 68.1711 12.2916 66.2461C12.5144 65.7902 12.7506 65.3299 12.9756 64.8696C13.2418 64.2412 13.5966 63.6532 14.0294 63.1231C13.5014 62.6826 13.4747 62.6826 13.1783 63.0988C12.853 63.5658 12.5589 64.0569 12.2871 64.5547C10.6473 67.4597 8.74905 70.2326 7.41892 73.294C6.12222 76.2761 4.48685 79.093 3.26144 82.1038C2.99185 82.7645 2.74008 83.4252 2.44821 84.086C2.13406 84.7863 1.80431 84.9669 1 84.9339C1.03218 84.5184 1.16106 84.1159 1.37655 83.7578C2.22765 81.9841 3.08914 80.2163 3.96104 78.4543C4.4267 77.5117 4.94359 76.5756 5.34463 75.6198C7.00896 71.6554 9.41076 68.0632 11.3068 64.2155C11.5051 63.8146 11.7702 63.449 12.0354 63.0129C11.4649 62.9347 10.8882 62.9111 10.3131 62.9425C10.1215 61.621 9.54891 60.5022 9.03423 59.3503C8.77133 58.76 8.3324 58.2799 8.10514 57.6566C7.97592 57.2998 7.54368 57.0289 7.21394 56.7756C6.38669 56.1565 5.65623 55.4204 5.04608 54.5908C4.56929 53.9168 4.63167 53.9609 5.15748 53.2869C5.5536 52.8022 5.90131 52.2808 6.19575 51.7298C6.54109 51.0316 7.02678 50.437 7.43005 49.7828C8.31412 48.4211 9.1219 47.0123 9.8497 45.563C9.86306 45.5365 9.86527 45.5013 9.88532 45.4859C10.1415 45.3097 10.5537 45.3339 10.576 44.8648C10.6027 44.4926 10.9013 44.204 11.0795 43.8891C12.3116 41.6646 13.8 39.6031 15.1925 37.4778C15.8007 36.5483 16.4446 35.6409 17.0684 34.7181C17.5274 34.0397 17.4428 34.0926 16.9882 33.4385C16.4023 32.5927 15.7027 31.8417 15.0454 31.0642C14.5798 30.5136 14.2968 29.7934 13.6373 29.3948C13.3967 29.2494 13.3945 28.9543 13.2987 28.723C13.1048 28.2451 12.9221 27.7628 12.3317 27.6218C12.0977 27.5601 11.9863 27.3333 11.8281 27.1703C11.6592 26.9767 11.4703 26.801 11.2645 26.6461C10.5092 26.1396 10.4713 26.0691 11.0907 25.481C11.7435 24.8599 12.2047 24.1089 12.6971 23.3755C12.9704 22.977 13.2132 22.5588 13.4234 22.1245C12.1223 23.3116 11.0483 24.7278 9.60682 25.8929C9.54221 25.4788 9.78508 25.3335 9.95441 25.1683C11.3781 23.7587 12.7439 22.2919 14.0851 20.8052C16.1327 18.5345 18.2894 16.3607 20.2434 14.0019C23.5386 9.99122 26.8517 6.02681 30.2917 2.16372C30.5145 1.90823 30.7373 1.64394 30.9935 1.41048C31.2498 1.17702 31.4525 0.716707 31.858 1.24089C31.869 1.24997 31.882 1.25632 31.8959 1.25938C31.9099 1.26245 31.9244 1.26215 31.9382 1.25851C32.7715 0.791591 33.1213 1.57787 33.5959 1.93246C34.0217 2.27393 34.3927 2.67714 34.6965 3.12839C35.8506 4.73397 37.2498 6.13473 38.5376 7.62799C38.8719 7.98102 39.1795 8.35792 39.4578 8.75564C40.0905 9.76216 41.0642 10.4581 41.8172 11.3523C42.0111 11.5726 42.3341 11.7091 42.5859 11.8963C42.9847 12.1937 42.9959 12.3214 42.675 12.7267C42.3542 13.1319 41.9064 13.4997 41.668 13.9997C41.5385 14.1894 41.4666 14.4118 41.4607 14.6406C41.4964 14.9423 41.7994 14.8895 41.9955 14.9798C42.3564 15.1493 42.3119 15.4379 42.147 15.6934C41.9478 15.972 41.7305 16.2376 41.4964 16.4884C40.8636 17.2263 40.2131 17.9509 39.5959 18.7019C39.1882 19.1997 39.0812 19.9 38.4953 20.3185C39.05 20.2128 39.587 20.5211 40.1239 20.27C40.1918 20.2429 40.2663 20.2361 40.338 20.2506C40.4098 20.2651 40.4756 20.3002 40.5272 20.3515C40.73 20.5387 40.877 20.6555 40.9439 20.2392C40.975 20.0476 41.2402 20.1115 41.3895 20.0718C42.6126 19.7635 43.8759 19.7084 45.1169 19.5146C45.2863 19.4904 45.5024 19.5344 45.6205 19.4463C46.153 19.0433 46.8058 19.0058 47.3717 18.7636C47.7683 19.6445 48.2629 20.4242 48.635 21.2677C49.2337 22.625 49.9911 23.9082 50.8919 25.0912C51.5113 25.8951 51.7831 26.8532 51.9191 27.8619C51.9792 28.2892 51.743 28.5556 51.4913 28.8354C51.1905 29.1723 50.7627 29.397 50.5332 29.9212C51.5292 29.7406 52.0795 28.8442 53.0153 28.5711C53.0305 28.6807 53.0092 28.7923 52.9545 28.8889C52.8998 28.9855 52.8147 29.0618 52.7122 29.1063C52.0951 29.5269 51.469 29.9322 50.8496 30.344C50.3126 30.703 50.3127 30.703 50.5087 31.2977C50.3238 31.4431 50.1834 31.3131 50.0631 31.2096C50.012 31.1586 49.9441 31.1274 49.8717 31.1218C49.7994 31.1161 49.7273 31.1363 49.6688 31.1788C49.2989 31.4585 48.8399 31.6897 48.6038 32.0597C47.9977 33.0112 47.2001 33.7843 46.4225 34.5771C45.1191 35.8986 43.7935 37.2201 42.5592 38.6032C42.4792 38.7228 42.3581 38.8096 42.2183 38.8477L42.2361 38.8697C41.8707 38.7155 41.7459 38.9182 41.688 39.2243L41.7125 39.1913C41.4897 39.4401 41.229 39.645 41.1756 39.9952L40.9349 40.2154C40.8541 40.2035 40.7715 40.2202 40.7019 40.2624C40.6322 40.3047 40.5798 40.37 40.554 40.4467C40.5027 40.6052 40.5473 40.7242 40.7456 40.6052ZM26.64 9.28864C26.9787 9.18732 27.0856 8.91642 27.1769 8.61469C27.3191 8.55746 27.4414 8.46055 27.5289 8.33579C27.6163 8.21104 27.6651 8.06382 27.6694 7.91211C27.9167 7.86145 28.037 7.69186 28.115 7.40554C28.0109 7.46049 27.9189 7.53531 27.8443 7.62567C27.7697 7.71603 27.714 7.82013 27.6805 7.93193C27.5495 8.0043 27.437 8.10516 27.3513 8.22688C27.2656 8.3486 27.209 8.48799 27.1859 8.63451C27.05 8.69813 26.9309 8.79215 26.8381 8.90912C26.7453 9.0261 26.6813 9.16281 26.6511 9.30846C26.559 9.32517 26.4769 9.37644 26.4221 9.45155C26.3673 9.52666 26.344 9.6198 26.357 9.7115C26.5799 9.62781 26.6913 9.50668 26.64 9.28864ZM15.9923 48.4922C15.5935 48.4922 15.5177 48.7323 15.4799 49.1199C15.7962 48.9371 15.9634 48.7587 15.9678 48.4592C16.1906 48.2389 16.4001 48.0187 16.2218 47.6795C16.7276 47.5341 16.9593 47.1685 17.0551 46.6862C16.6229 46.9064 16.4981 47.3469 16.2463 47.7037C16.097 47.9416 15.8943 48.164 15.9923 48.4834V48.4922ZM17.5007 95.4044C17.8683 95.1841 17.9708 94.8229 18.0688 94.4595C17.8037 94.737 17.4873 94.9903 17.5207 95.4242C17.2311 95.5717 17.1687 95.8448 17.0907 96.1113C17.2073 96.0279 17.3043 95.9205 17.375 95.7966C17.4458 95.6727 17.4886 95.5351 17.5007 95.3933V95.4044ZM14.2255 71.6598C14.5968 71.3572 14.8361 70.925 14.8939 70.4528C15.3326 70.0866 15.6079 69.5645 15.6603 68.9992C15.3596 69.4639 14.9229 69.8626 14.9117 70.466C14.553 70.7964 14.1809 71.1268 14.2433 71.6752C13.8356 71.7963 13.7532 72.1157 13.6908 72.6024C14.0339 72.2698 14.1943 72.0033 14.2255 71.6598ZM44.6379 21.0827C44.6713 21.325 44.8072 21.4131 45.0412 21.336C45.0635 21.336 45.0946 21.2942 45.0902 21.2766C45.0434 21.0365 44.8251 21.1752 44.6981 21.107C44.678 21.096 44.6446 21.107 44.6179 21.107C44.5621 20.9528 44.5154 20.7259 44.297 20.8669C43.9784 21.0739 43.6799 21.2832 43.1206 21.0321C43.5194 21.5453 43.8113 21.6642 44.1188 21.2655C44.182 21.1937 44.2633 21.1395 44.3544 21.1086C44.4456 21.0777 44.5433 21.071 44.6379 21.0894V21.0827ZM42.0868 21.3162C41.9777 21.3536 41.864 21.3955 41.7615 21.4241C41.5922 21.466 41.4207 21.5078 41.4184 21.7259C41.4207 21.7527 41.4297 21.7786 41.4444 21.8012C41.4592 21.8239 41.4793 21.8426 41.5031 21.8558C41.5824 21.8877 41.6693 21.8964 41.7535 21.8808C41.8377 21.8652 41.9155 21.8259 41.9777 21.7677C42.0437 21.7144 42.0901 21.641 42.1094 21.5589C42.1288 21.4768 42.1201 21.3907 42.0846 21.314C42.3751 21.4899 42.711 21.5786 43.0515 21.5695C42.7998 21.0321 42.4054 21.347 42.0868 21.3228V21.3162ZM47.1756 59.304C47.2387 59.3366 47.308 59.3556 47.3791 59.3598C47.4501 59.364 47.5212 59.3532 47.5878 59.3283C47.6859 59.3086 47.7761 59.2614 47.8477 59.1922C47.9192 59.123 47.969 59.0349 47.9911 58.9384C47.9953 58.9119 47.9928 58.8847 47.9839 58.8594C47.9749 58.834 47.9598 58.8112 47.9398 58.7931C47.717 58.6851 47.5767 58.8745 47.4185 58.9759C47.3585 59.0154 47.3076 59.0671 47.2692 59.1274C47.2309 59.1878 47.2058 59.2555 47.1957 59.326C47.1547 59.3625 47.1194 59.4048 47.0909 59.4516C47.0152 59.6322 46.6231 59.6036 46.7701 59.9229C46.7835 59.9559 46.8726 59.9802 46.9172 59.9692C47.1845 59.9031 47.2335 59.6983 47.218 59.4626C47.2077 59.411 47.1935 59.3602 47.1756 59.3106V59.304ZM18.0622 79.7317C17.5319 79.9806 16.9325 80.1105 16.5493 80.6127C17.064 80.3925 17.5408 80.0995 18.0844 79.952C18.0826 79.8723 18.0752 79.7928 18.0622 79.7141C18.5367 79.833 18.5367 79.833 18.7461 79.5159C18.5033 79.5687 18.3407 79.8529 18.0622 79.7383V79.7317ZM23.0462 39.8983C22.4237 40.3917 21.9466 41.0412 21.6648 41.7791C21.3956 41.9414 21.1786 42.1759 21.0388 42.4553C19.6507 44.6115 18.2827 46.7787 16.8924 48.9327C16.5449 49.4701 16.3622 50.1308 15.7495 50.4876C15.7255 50.5037 15.7054 50.5248 15.6904 50.5493C15.6755 50.5739 15.6661 50.6013 15.663 50.6298C15.6598 50.6582 15.6629 50.6871 15.672 50.7142C15.6812 50.7414 15.6962 50.7663 15.716 50.7872C15.8586 50.9523 15.9723 50.829 16.0592 50.7167C16.4768 50.2165 16.8679 49.6953 17.2311 49.1551C18.0532 47.8227 18.8464 46.4682 19.7621 45.1907C20.5308 44.1204 21.0477 42.9178 21.6448 41.7593C22.3064 41.3045 22.7937 40.6427 23.0284 39.8806C23.2512 39.7881 23.4584 39.678 23.3648 39.2838C23.2534 39.5481 22.9705 39.6141 23.0462 39.9049V39.8983ZM33.099 86.7399C33.2639 86.7289 33.4288 86.7113 33.5959 86.7047C34.2643 86.6827 34.7678 86.1959 35.4095 86.1122C35.8684 85.9669 36.3341 85.8479 36.7886 85.6717C37.2205 85.5462 37.6427 85.3902 38.0519 85.2048C37.3991 85.2885 36.7329 85.3171 36.1648 85.6453C35.9152 85.7929 35.4964 85.696 35.4139 86.1034C34.5406 85.9426 33.812 86.2884 33.1146 86.7443C32.7871 86.5241 32.5041 86.6188 32.1789 86.8588C32.7136 86.9778 32.7136 86.9778 33.099 86.7465V86.7399ZM17.4361 91.8826C17.9418 91.3717 18.1802 90.7109 18.4766 90.0788C18.383 89.7551 18.9734 89.5701 18.6592 89.1979C18.2716 89.4357 18.3607 89.7595 18.4788 90.0898C18.3634 90.088 18.2508 90.1249 18.1593 90.1945C18.0678 90.2641 18.003 90.3623 17.9753 90.4731C17.8059 90.9532 17.621 91.4267 17.4472 91.9113C17.4049 92.235 17.1598 92.4531 17.0016 92.7196C16.905 92.8582 16.847 93.0196 16.8337 93.1874C16.8204 93.3553 16.8522 93.5236 16.9258 93.6754C16.7966 93.7195 16.6362 93.6754 16.5382 93.8098C16.1042 94.3843 15.8051 95.0471 15.6626 95.7501C16.1639 95.1004 16.4246 94.3185 16.9236 93.671C16.839 93.3627 17.0551 93.149 17.1798 92.9112C17.3603 92.583 17.523 92.2681 17.4361 91.8892V91.8826ZM37.5551 69.4353C38.4463 69.0741 38.9275 68.2636 39.5915 67.6535C38.8718 67.8187 38.2546 68.3847 37.5706 69.4529C37.3723 69.4529 37.1518 69.4199 36.9936 69.7701C37.2855 69.7106 37.4615 69.6533 37.5551 69.4419V69.4353ZM25.0982 90.429C24.8041 89.8938 24.6192 89.8564 24.2248 90.2837C24.0332 90.4907 23.8817 90.7241 23.7102 90.9598C23.748 90.8431 23.7102 90.6603 23.6233 90.6933C23.0522 90.9062 22.5777 91.3151 22.2865 91.8452C22.9549 91.625 23.4138 91.4047 23.7169 90.9356C23.7547 91.0391 23.7837 91.2241 23.8327 91.2307C24.1647 91.2637 24.3942 90.9951 24.6927 90.9092C24.8062 90.884 24.9067 90.8191 24.9755 90.7263C25.0443 90.6336 25.0768 90.5194 25.067 90.4048C25.4948 90.6845 25.858 90.4621 26.2456 90.3145C26.1187 89.9026 25.9627 89.6538 25.4993 89.7441C25.0358 89.8344 25.0626 90.0986 25.0982 90.429ZM12.4921 58.52C12.4476 58.3526 12.3985 58.1698 12.1646 58.2446C12.1112 58.2667 12.0679 58.3074 12.0428 58.3589C12.0178 58.4105 12.0127 58.4694 12.0287 58.5244C12.1512 58.7644 12.2938 58.4803 12.4342 58.5067C12.4631 58.5068 12.4918 58.5015 12.5189 58.4913C13.0268 58.9737 13.6328 58.6719 14.2054 58.6873C14.26 58.686 14.3136 58.673 14.3625 58.6492C14.4114 58.6254 14.4545 58.5914 14.4888 58.5495C14.5232 58.5076 14.5479 58.4589 14.5613 58.4066C14.5747 58.3544 14.5764 58.2998 14.5664 58.2468C14.2478 58.1896 13.869 58.5728 13.7598 58.2887C13.6039 57.8812 14.1208 57.9187 14.3636 57.7799C14.4149 57.7513 14.4216 57.7072 14.377 57.6456C13.8868 57.5619 13.6351 57.5729 13.6217 57.7359C13.5616 58.4627 12.9355 58.3482 12.4943 58.52H12.4921ZM49.0561 59.4758C49.3368 59.2864 49.6131 59.0926 49.8983 58.9098C50.4196 58.5706 50.6224 58.0618 50.7516 57.487C50.6625 57.487 50.629 57.4606 50.609 57.4716C49.9406 57.835 49.5462 58.531 48.8488 58.8591C48.6728 58.9406 48.8489 59.0265 48.8867 59.1058C48.9424 59.2335 49.0026 59.3591 49.0538 59.478C48.2651 59.2181 47.9599 59.3877 47.9621 60.0881C47.7079 60.1215 47.4578 60.1805 47.2157 60.2643C46.7701 60.3986 46.4783 60.7951 46.0237 60.8986C46.0264 60.8151 46.012 60.732 45.9814 60.6541C45.9598 60.6092 45.9286 60.5696 45.8898 60.538C45.8511 60.5064 45.8057 60.4835 45.757 60.4711C45.7084 60.4587 45.6575 60.4571 45.6081 60.4662C45.5587 60.4754 45.512 60.4952 45.4712 60.5242C45.3731 60.5814 45.2662 60.6563 45.3353 60.7885C45.4422 60.9823 45.6338 60.8788 45.792 60.8898C45.8768 60.8916 45.9617 60.8879 46.046 60.8788C45.7051 61.2972 45.44 61.839 44.7092 61.61C44.5354 61.5549 44.3884 61.7091 44.2814 61.8412C44.0586 62.1166 43.8358 62.4029 43.5061 62.8412C44.1413 62.6719 44.7436 62.3995 45.2885 62.0351C46.0661 61.4822 46.8481 60.8986 47.7549 60.5572C47.5544 61.1277 47.0263 61.3391 46.5495 61.5747C45.9635 61.8718 45.4473 62.2876 45.0345 62.7949C44.9059 62.9807 44.7505 63.1469 44.5733 63.2882C42.9067 64.3895 41.6434 65.9312 40.1618 67.2218C40.0287 67.3667 39.9365 67.5437 39.8945 67.735C39.6569 68.409 39.2131 68.9933 38.6245 69.4066C37.9212 69.8964 37.2756 70.4622 36.6995 71.0937C36.613 71.1543 36.5446 71.2368 36.5015 71.3325C36.4584 71.4282 36.4421 71.5337 36.4544 71.6377C37.2899 70.944 38.121 70.3911 38.7938 69.6555C38.9631 69.4683 39.128 69.1996 39.3776 69.1798C40.0081 69.1269 40.3178 68.6798 40.6587 68.268C41.3271 67.4773 41.9955 66.7043 42.724 65.9774C44.4726 64.1757 46.3505 62.5012 48.3431 60.9669C48.5124 60.8391 48.8043 60.7466 48.7508 60.4119C48.3498 60.3304 48.0824 60.7092 47.7237 60.5991C47.7483 60.4088 47.8194 60.2274 47.9309 60.0705C48.4322 60.0947 48.7285 59.7533 49.0583 59.4758H49.0561ZM12.5322 68.9772C12.9466 69.0455 13.0692 68.7129 13.214 68.4552C13.8557 67.3231 14.4869 66.1837 15.1078 65.037C15.2749 64.7331 15.5022 64.4467 15.54 64.0305C15.1902 64.1979 15.11 64.4908 14.9763 64.7287C14.4817 65.6206 14.0317 66.5369 13.5215 67.4178C13.214 67.9486 13.0424 68.5675 12.5545 68.9926L12.4119 69.6533C12.7305 69.378 12.6815 69.1798 12.5322 68.9772ZM18.0153 45.1687C18.2716 45.1225 18.3674 44.9022 18.5033 44.7282C19.7309 43.1248 20.7491 41.3805 21.9099 39.7331C21.9812 39.6318 22.2063 39.5304 22.0191 39.3432C21.8186 39.4071 21.7495 39.5745 21.6515 39.7088C20.6489 41.1162 19.6463 42.5214 18.6548 43.942C18.3919 44.3252 17.924 44.6247 18.0376 45.1951C17.6277 45.3625 17.5163 45.7237 17.4294 46.1004C17.5977 46.0055 17.7395 45.8706 17.8418 45.7079C17.9441 45.5452 18.0037 45.3599 18.0153 45.1687ZM28.6742 55.5378C28.5494 55.5378 28.487 55.4453 28.409 55.3683C28.3936 55.3458 28.3725 55.3278 28.3478 55.316C28.3232 55.3043 28.2958 55.2991 28.2685 55.3011C28.2411 55.3031 28.2148 55.3122 28.1921 55.3275C28.1695 55.3428 28.1513 55.3637 28.1395 55.3881C28.1237 55.4098 28.1159 55.4362 28.1172 55.463C28.1484 55.6127 28.2664 55.5929 28.3712 55.5819C28.4759 55.5709 28.594 55.5466 28.6987 55.5268C28.565 55.8572 28.614 56.4078 27.9612 56.0929C27.9306 56.0729 27.8951 56.0614 27.8585 56.0595C27.8218 56.0576 27.7853 56.0653 27.7527 56.0819C27.7201 56.0984 27.6925 56.1233 27.6728 56.1538C27.653 56.1844 27.6419 56.2196 27.6404 56.2558C27.6266 56.2958 27.6223 56.3384 27.6279 56.3802C27.6334 56.4221 27.6486 56.4621 27.6723 56.4973C27.696 56.5324 27.7275 56.5617 27.7645 56.5828C27.8015 56.604 27.8428 56.6164 27.8855 56.6192C28.4046 56.7316 28.8591 56.4849 29.0953 55.9431L29.1755 55.9629C29.3604 56.0004 29.1242 56.7294 29.6456 56.2382C29.7369 56.1523 29.8372 56.3307 29.9375 56.3572C30.1536 56.4073 30.3723 56.4462 30.5925 56.4739C30.9757 56.5311 31.0136 56.2426 31.0247 55.9982C31.0381 55.7118 30.8376 55.7559 30.6126 55.7537C30.3084 55.786 30.0092 55.854 29.7213 55.9563C29.8305 55.2956 29.679 55.1414 29.122 55.2956C28.9549 55.3396 28.8859 55.54 28.6742 55.5378ZM40.5695 65.4378C40.6651 65.1983 40.8393 64.9974 41.0642 64.8674C42.2695 64.2727 42.7664 63.0504 43.5729 62.1033C43.5885 62.0835 43.5395 62.0108 43.5172 61.9514C43.0471 62.1143 42.577 62.361 42.4255 62.8213C42.274 63.2816 41.9799 63.5261 41.688 63.8301C41.3182 64.2221 40.9572 64.6207 40.574 64.9951C40.3913 65.1691 40.5473 65.2881 40.574 65.4356C39.1458 66.7241 39.0968 66.7879 39.0144 67.5258C40.9572 66.2043 42.3809 64.3807 44.2569 63.0746C43.7549 63.1966 43.294 63.4464 42.9201 63.7992C42.2183 64.4357 41.4697 65.0524 40.5695 65.4378ZM21.4911 64.1714C21.1212 64.3344 20.9697 64.6868 20.7915 65.004C20.314 65.8794 19.7648 66.7147 19.1494 67.5015C17.9664 68.9794 17.0952 70.651 16.106 72.2478C16.0369 72.3579 15.9121 72.4681 16.048 72.6553C16.3867 72.4174 16.536 72.0474 16.7432 71.7214C17.7057 70.2083 18.5768 68.638 19.7265 67.2416C20.3481 66.4906 20.7803 65.6184 21.2861 64.7947C21.3584 64.7058 21.4122 64.6035 21.4443 64.4939C21.4765 64.3843 21.4863 64.2694 21.4732 64.156C21.8739 63.8931 22.1552 63.4863 22.2575 63.0218C22.0403 63.1318 21.8555 63.2954 21.7212 63.4969C21.5869 63.6984 21.5077 63.9307 21.4911 64.1714ZM24.9578 61.2378C24.891 61.0924 25.0336 60.8656 24.8286 60.7973C24.747 60.7665 24.6577 60.7624 24.5735 60.7853C24.4893 60.8083 24.4148 60.8573 24.3607 60.925C24.2861 60.9908 24.2256 61.0707 24.1828 61.16C24.1399 61.2492 24.1156 61.3461 24.1112 61.4448C24.4521 61.5351 24.6949 61.2796 24.989 61.2246C25.0358 61.3787 24.9133 61.7003 25.2876 61.5307C25.428 61.469 25.4926 61.24 25.7154 61.3589C26.2167 61.6254 26.7291 61.4272 27.2126 61.3325C27.6226 61.251 27.9746 60.9272 28.4224 61.2774C28.5166 61.3127 28.6179 61.3256 28.7181 61.3153C28.8183 61.305 28.9146 61.2716 28.9995 61.2179C29.4451 60.9338 29.9352 61.0131 30.4098 60.9559C30.8353 60.903 31.2654 60.8612 31.6909 60.8039C31.8316 60.7838 31.9679 60.7407 32.0942 60.6762C32.1499 60.6475 32.1833 60.5418 32.1922 60.4669C32.2011 60.392 32.1098 60.3127 32.0318 60.3017C31.9178 60.2941 31.8032 60.3007 31.6909 60.3216C29.9976 60.555 28.2776 60.403 26.5887 60.6828C25.8825 60.3942 25.3633 60.6475 24.9578 61.229V61.2378ZM19.7889 95.6973C19.6841 95.6356 19.829 95.2568 19.5505 95.466C19.4157 95.5644 19.3055 95.692 19.2282 95.8389C19.151 95.9859 19.1088 96.1484 19.1049 96.314C19.5148 96.2149 19.5772 95.8559 19.8067 95.6664C19.7866 96.0298 19.976 96.0122 20.2345 95.9065C21.217 95.5101 22.1951 95.1092 23.1844 94.7304C25.6151 93.7966 28.0682 92.92 30.5702 92.1976C33.0723 91.4752 35.5031 90.396 38.1455 90.0965C38.2461 90.0868 38.3403 90.0435 38.4128 89.9739C38.4852 89.9043 38.5316 89.8123 38.5443 89.7132C38.5888 89.5194 38.5599 89.374 38.3215 89.3432L38.3371 89.3586C38.3371 89.2771 38.2992 89.1384 38.3371 89.123C38.7515 88.8763 38.7225 88.5063 38.7203 88.0702C38.6121 88.1 38.5086 88.1444 38.4128 88.2023C38.2569 88.3653 38.1477 88.6076 37.8781 88.3081C37.8246 88.2464 37.6085 88.3213 37.4682 88.3411C36.6505 88.4644 35.8952 88.7992 35.1087 89.0327C33.4444 89.5238 31.7667 89.9797 30.1046 90.4665C29.9085 90.5237 29.552 90.5788 29.6434 90.8585C29.7347 91.1382 30.0266 90.918 30.2271 90.8849C30.3808 90.8607 30.5791 90.7219 30.6215 91.0039C30.6571 91.2241 30.597 91.2946 30.3051 91.3232C29.1404 91.4147 28.0051 91.7304 26.9631 92.2526C25.2408 93.1711 23.4361 93.8825 21.6448 94.6335C20.9768 94.8926 20.3514 95.2481 19.7889 95.6885V95.6973ZM28.0838 88.8697C27.5535 88.8697 27.5446 89.3696 27.3574 89.6295C27.2371 89.6626 27.2081 89.6295 27.2148 89.5502C27.2304 89.2749 27.0856 89.1692 26.845 89.2771C26.6043 89.3851 26.3236 89.4732 26.3749 89.7881C26.3856 89.8892 26.4358 89.9822 26.5149 90.0472C26.594 90.1122 26.6957 90.1441 26.7982 90.1361C26.9096 90.1361 27.021 90.0568 27.1279 90.0414C27.7629 89.9577 28.3288 89.6714 28.9103 89.4489C30.7641 88.7507 32.7381 88.4556 34.5985 87.7817C34.6806 87.7566 34.7667 87.7469 34.8525 87.753C34.9438 87.753 35.0173 87.8037 35.0107 87.9006C35.0107 87.9513 34.9616 88.0416 34.9327 88.0438C34.5272 88.0438 34.2153 88.3587 33.8543 88.4094C32.7916 88.5547 31.8112 88.9688 30.793 89.2463C29.2869 89.6582 27.8164 90.2066 26.337 90.7241C25.8565 90.9063 25.3897 91.122 24.94 91.3695C24.9001 91.3877 24.8643 91.4138 24.835 91.4462C24.8056 91.4786 24.7833 91.5166 24.7693 91.5579C24.7553 91.5991 24.75 91.6428 24.7537 91.6861C24.7574 91.7294 24.77 91.7716 24.7907 91.81C24.8866 91.9663 25.047 91.8606 25.174 91.81C25.6196 91.6272 26.0652 91.4289 26.5264 91.2571C26.9876 91.0853 27.5201 91.0369 27.8877 90.7528C28.311 90.4312 28.7544 90.6184 29.171 90.4819C30.6036 90.0128 32.0363 89.5326 33.4889 89.1274C35.1042 88.6869 36.6505 87.9843 38.3349 87.7707C38.6601 87.7288 38.8718 87.4051 39.2261 87.3654C39.2684 87.3654 39.3263 87.2267 39.3263 87.1452C39.3263 86.9822 39.1882 86.9954 39.0768 86.9954C38.903 86.9954 38.7381 87.0901 38.5799 87.1033C38.1789 87.1342 37.809 87.394 37.3233 87.2971C37.364 87.2259 37.4215 87.1654 37.491 87.1209C37.5604 87.0764 37.6397 87.0492 37.7222 87.0416C38.1967 86.9425 38.6668 86.8346 39.1392 86.7289C39.2941 86.7009 39.4383 86.6315 39.5561 86.5282C39.6739 86.4249 39.7609 86.2917 39.8076 86.1431C39.9257 85.7929 39.7897 85.5968 39.4622 85.729C39.1347 85.8611 38.8406 85.8127 38.5376 85.9008C38.2346 85.9889 37.9873 86.2862 37.6464 86.0616C37.2387 85.7885 37.2186 86.3413 36.978 86.3567C36.1982 86.4007 35.4741 86.7047 34.7121 86.8214C34.1128 86.9117 33.5981 87.3103 32.9564 87.2619C32.4663 87.8367 31.7021 87.3478 31.154 87.7024C31.1272 87.72 31.0114 87.6319 30.9534 87.5768C30.9305 87.5494 30.902 87.5271 30.8698 87.5113C30.8376 87.4955 30.8024 87.4866 30.7664 87.4851C30.7305 87.4837 30.6946 87.4897 30.6612 87.5029C30.6278 87.516 30.5975 87.536 30.5724 87.5614C30.2004 87.8654 29.7258 87.9006 29.298 88.0548C28.8082 88.2047 28.3736 88.4934 28.0481 88.8851L28.0838 88.8697ZM22.6919 63.5415L22.7143 63.5151C21.217 65.5568 19.8178 67.6623 18.4454 69.7877C16.8858 72.2104 15.2838 74.5868 14.0851 77.2055C14.0495 77.2826 14.0317 77.3597 14.1319 77.4258C15.0231 76.9853 15.9767 76.6747 16.8746 76.2254C18.2582 75.5361 19.3789 74.4635 20.7558 73.7565C21.1212 73.9525 21.4242 73.7257 21.7161 73.5847C23.3718 72.7993 24.9293 71.8259 26.357 70.6841C26.7111 70.4224 27.0133 70.0984 27.2483 69.7282C27.2001 69.6784 27.1341 69.6494 27.0645 69.6473C26.9949 69.6452 26.9272 69.6703 26.8762 69.7172C25.9159 70.3339 24.9467 70.9418 23.9954 71.5717C22.9036 72.2963 21.8252 73.0407 20.7402 73.7741C20.8627 73.3578 21.2148 73.1354 21.5356 72.9041C22.4625 72.2302 23.3871 71.5496 24.3474 70.9219C25.4614 70.2017 26.5754 69.5322 27.7139 68.8494C28.5628 68.3385 29.2312 67.7284 29.6501 66.7703C30.1576 65.5597 30.8496 64.4329 31.7021 63.4292C31.858 63.253 32.112 63.0944 31.9939 62.7839C31.4882 62.6716 31.0247 62.9381 30.539 62.9094C30.0533 62.8808 29.6055 63.2244 29.0797 63.0306C32.1053 62.317 32.1053 62.317 32.4039 61.7091C31.5728 61.8346 30.7997 61.9976 30.0154 62.0637C28.233 62.2135 26.4239 62.2729 24.637 62.4623C23.8817 62.5372 23.0083 62.6011 22.6919 63.5327V63.5415ZM16.6073 51.1109C17.0373 51.3862 17.4495 51.3532 17.8416 51.3664C18.2337 51.3796 18.7038 51.514 18.7328 50.8775C18.7328 50.8775 18.7863 50.8598 18.8152 50.8598C19.575 50.8598 19.8757 50.2894 20.2434 49.7762C21.4866 48.0363 22.6318 46.2237 24.031 44.5961C24.6281 43.9045 25.2007 43.1931 25.7889 42.4927C27.1992 40.8035 28.5984 39.1076 30.1781 37.5659C30.8265 36.9338 31.4258 36.2444 32.1833 35.4427C31.6352 35.5616 31.2698 35.6101 30.9245 35.718C29.122 36.2906 27.3597 37.0108 25.497 37.3787C25.3715 37.4125 25.2557 37.4746 25.1586 37.5602C25.0616 37.6459 24.986 37.7526 24.9378 37.872C24.8399 38.0779 24.7298 38.2779 24.6081 38.4711C23.1264 40.537 21.7985 42.6976 20.4706 44.8582C19.2229 46.9131 18.0889 49.0538 16.6073 51.1021V51.1109ZM18.0777 99.4172C18.3874 99.3908 18.4699 99.3886 18.5523 99.3754C18.6102 99.3728 18.6666 99.357 18.7172 99.3291C19.3254 98.9062 19.3254 98.9107 19.9003 98.8776C20.101 98.8638 20.3001 98.8321 20.4951 98.7829C21.9701 98.4056 23.4428 98.0245 24.9133 97.6398C29.2535 96.5034 33.3107 94.5564 37.633 93.3561C37.7717 93.3163 37.9033 93.2554 38.0229 93.1755C38.1331 93.1048 38.2154 92.9989 38.256 92.8754C38.2966 92.7518 38.2929 92.6183 38.2457 92.4971C38.1366 92.1976 37.867 92.3584 37.6598 92.4112C35.63 92.931 33.5936 93.4243 31.575 93.9816C27.3997 95.1334 23.3626 96.7038 19.2296 97.9812C19.0747 98.0503 18.9348 98.1483 18.8175 98.2697C18.4699 98.5296 18.4654 98.9811 18.0777 99.4106V99.4172ZM38.4061 90.5612C37.8157 90.907 37.2766 90.9576 36.753 91.0699C34.5071 91.5501 32.3504 92.3209 30.1803 93.0521C26.9987 94.1181 23.7859 95.0894 20.6444 96.2699C20.0607 96.4902 19.4569 96.6708 18.9912 97.2236C19.2062 97.258 19.4268 97.22 19.6173 97.1157C21.4777 96.5298 23.3314 95.9219 25.1873 95.3405C28.8858 94.1842 32.5398 92.9024 36.294 91.9201C36.7931 91.7901 37.2922 91.6492 37.7823 91.4906C38.1321 91.3673 38.3905 91.1624 38.4061 90.5524V90.5612ZM22.966 11.5329C23.4116 11.4118 23.6344 11.0726 23.8973 10.7863C24.0912 10.5771 24.2471 10.3084 24.5323 10.2247C24.8824 10.0967 25.1848 9.86617 25.399 9.56394C26.816 7.88127 28.2353 6.2008 29.6322 4.49831C30.2316 3.7715 30.7841 3.00946 31.3522 2.25842C31.4451 2.16696 31.4982 2.04332 31.5003 1.91377C31.5024 1.78422 31.4532 1.65898 31.3634 1.56465C28.4536 4.8485 25.653 8.13896 22.966 11.5329ZM28.9571 86.8567C29.4785 86.795 29.7637 86.4977 30.1112 86.3215C30.2026 86.273 30.2984 86.1012 30.334 86.1012C30.9222 86.3215 31.3768 85.8215 31.9338 85.8171C32.2747 85.8171 32.7871 85.8171 32.9386 85.4735C33.2327 84.7863 33.5869 85.5682 33.9189 85.3722C34.0966 85.2448 34.2642 85.1042 34.4202 84.9515C34.6297 84.7819 34.8658 85.3612 35.0307 84.9097C36.3051 84.4868 37.6018 84.1476 38.9074 83.8393C39.3129 83.7446 39.7652 83.8173 40.1083 83.6433C40.4916 83.4517 40.8659 83.4517 41.2536 83.3966C41.3115 83.3966 41.356 83.2843 41.4452 83.1764C40.931 83.0641 40.3977 83.0687 39.8855 83.1896C38.2747 83.4693 36.7374 84.0463 35.1443 84.3811C33.3804 84.7442 31.6522 85.2601 29.9798 85.9228C29.54 86.099 29.1776 86.4236 28.9571 86.839V86.8567ZM10.4267 87.2729C10.4834 87.305 10.5484 87.3196 10.6135 87.3149C10.6786 87.3102 10.7408 87.2864 10.7921 87.2465C12.6993 86.1012 14.6035 84.9523 16.5048 83.7997C17.0101 83.4734 17.3685 82.9668 17.5052 82.3857C17.0519 82.7598 16.5615 83.0874 16.0413 83.3636C15.5155 83.6521 15.0142 84.0001 14.4817 84.2445C13.9785 84.4946 13.5015 84.7934 13.058 85.1365C12.5745 85.4911 12.0732 85.8259 11.6232 86.2179C11.2288 86.5461 10.5537 86.6056 10.4267 87.2553V87.2729ZM20.5107 94.7106C20.7202 94.6401 20.8494 94.6027 20.9742 94.5564C23.699 93.5851 26.2189 92.1337 28.995 91.2703C29.0906 91.2511 29.1752 91.1968 29.2318 91.1183C29.2885 91.0398 29.3129 90.9431 29.3002 90.8475C26.6578 91.321 21.2638 93.6578 20.5107 94.693V94.7106ZM19.2408 86.654C18.9928 86.6743 18.7556 86.7625 18.5556 86.9088C18.3556 87.0551 18.201 87.2537 18.1089 87.4821C17.6099 88.7574 16.8055 89.8674 16.1772 91.0743C15.3551 92.6601 14.914 94.4177 13.9024 95.9197C13.8846 95.944 13.9403 96.0166 13.9804 96.1135C14.377 95.607 14.8293 95.1665 15.032 94.5718C15.7873 92.354 17.0172 90.3872 18.227 88.3895C18.5746 87.7905 18.9021 87.2112 19.2408 86.6364V86.654ZM15.8987 84.8656C15.6975 85.062 15.479 85.2403 15.2459 85.3986C13.6863 86.2906 12.1624 87.2751 10.6161 88.2067C10.1336 88.4855 9.76539 88.9227 9.57563 89.4423C10.0524 89.2595 10.2908 88.9336 10.6183 88.7397C11.7747 88.0504 12.9823 87.4425 14.0673 86.6342C14.3614 86.414 14.6065 86.121 14.9585 85.9867C15.4955 85.7796 15.7584 85.348 15.9077 84.848L15.8987 84.8656ZM29.884 59.097C29.405 58.9979 29.0418 59.13 28.6697 59.097C28.2977 59.064 27.9701 59.2644 27.6471 59.467C27.5134 59.5529 27.2015 59.7027 27.0812 59.3525C27.0567 59.3212 27.0247 59.2964 26.9882 59.2802C26.9516 59.2641 26.9116 59.2571 26.8717 59.26C26.23 59.445 25.5349 59.4384 24.9601 59.848C24.842 59.9339 24.7083 60.0154 24.7685 60.1806C24.8286 60.3458 24.9913 60.3502 25.1294 60.3061C26.1387 59.9714 27.2015 60.2092 28.2107 60.0176C28.8012 59.8701 29.5409 59.8679 29.8929 59.0706L29.884 59.097ZM37.8424 52.4698C37.174 52.4698 36.5435 52.4544 35.913 52.4698C35.2299 52.4644 34.5473 52.5056 33.8699 52.5932C33.2773 52.6945 32.5888 52.3729 31.9293 53.0116C33.7917 53.1388 35.6621 53.0894 37.5149 52.8641C37.6575 52.8244 37.7845 52.7297 37.8514 52.4434L37.8424 52.4698ZM31.711 55.4057C31.4882 55.3198 31.3522 55.4299 31.2965 55.6656C31.2408 55.9012 31.1718 56.1259 31.4302 56.2713C31.5271 56.3242 31.6346 56.3556 31.745 56.3632C31.8555 56.3708 31.9663 56.3545 32.0697 56.3153C32.8495 56.0951 33.5892 55.4916 34.4715 55.9893C34.5226 56.0141 34.5796 56.0248 34.6364 56.0202C34.739 56.0302 34.8416 56.0018 34.9241 55.9407C35.0066 55.8795 35.063 55.79 35.082 55.6898C35.1243 55.4475 34.897 55.4299 34.7388 55.4211C34.2353 55.3903 33.685 54.9806 33.2505 55.5797C32.9453 55.3088 32.6802 55.5555 32.3994 55.6392C32.3994 55.6392 32.3571 55.6039 32.346 55.5797C32.21 55.2625 31.9226 55.5136 31.7199 55.3793L31.711 55.4057ZM42.0489 62.872C41.7348 62.9447 41.3805 62.7685 41.1577 63.079C40.3646 64.2221 39.2907 65.1339 38.4841 66.266C38.3705 66.4245 38.0519 66.451 38.1366 66.7461C38.5621 66.9003 38.805 66.6624 39.0278 66.3893C39.3085 66.0325 39.5513 65.6493 39.8321 65.2881C40.4925 64.4061 41.2379 63.5896 42.0579 62.85L42.0489 62.872ZM14.0963 80.6171C14.377 80.6722 14.4483 80.7096 14.4817 80.6898C15.7985 79.8639 17.2578 79.3331 18.6526 78.6635C19.0982 78.4543 19.5438 78.223 19.7109 77.624L14.0963 80.6171ZM32.0051 2.79141C30.617 3.74067 29.1242 5.55548 28.5138 6.94743C29.0596 6.51135 31.4124 3.74287 32.0051 2.79141ZM12.6614 56.943C13.5126 56.9782 14.2723 57.0289 15.032 57.0311C15.1228 57.0416 15.2147 57.0331 15.3019 57.0061C15.389 56.9791 15.4694 56.9341 15.5378 56.8743C15.6062 56.8144 15.661 56.7409 15.6986 56.6586C15.7362 56.5763 15.7558 56.4871 15.7561 56.3968C14.6845 56.2426 13.6908 56.2294 12.6525 56.943H12.6614ZM21.5334 93.4023L24.1803 92.1227C24.2856 92.0804 24.3834 92.0217 24.4699 91.9487C24.5265 91.9051 24.5651 91.8426 24.5787 91.7729C24.5922 91.7033 24.5797 91.6311 24.5434 91.5699C24.461 91.4421 24.334 91.495 24.2382 91.5413C23.5698 91.8628 22.9014 92.18 22.233 92.5235C22.0552 92.606 21.8994 92.7285 21.7779 92.881C21.6565 93.0336 21.5727 93.2121 21.5334 93.4023ZM32.4351 58.6389C31.7266 58.8283 31.0314 58.8371 30.3452 58.9318C30.2271 58.9472 30.0934 59.075 30.158 59.1521C30.3675 59.4428 30.158 59.5353 29.9664 59.6608C29.9465 59.67 29.9287 59.6832 29.9144 59.6997C29.9001 59.7162 29.8895 59.7355 29.8834 59.7564C29.8773 59.7773 29.8757 59.7992 29.8789 59.8207C29.8821 59.8422 29.8899 59.8628 29.9018 59.8811C29.9754 59.9934 30.0823 59.9824 30.2026 59.9604C30.5056 59.9075 30.5591 59.619 30.7329 59.445C30.8309 59.3503 30.9557 59.2952 31.0515 59.5C31.2743 59.9515 31.3389 59.9604 31.5372 59.5573C31.5759 59.4545 31.6387 59.3622 31.7204 59.2879C31.8021 59.2137 31.9004 59.1596 32.0073 59.13C32.1229 59.1068 32.2271 59.0456 32.3031 58.9565C32.3792 58.8673 32.4225 58.7554 32.4262 58.6389H32.4351ZM31.3723 65.8057C32.3415 64.7815 32.7381 63.5547 33.8231 62.8742C32.7604 63.0482 31.7533 64.2353 31.3634 65.8057H31.3723ZM13.3254 59.9604C13.2597 59.9092 13.1808 59.8773 13.0977 59.8683C13.0146 59.8593 12.9306 59.8737 12.8553 59.9097C12.4409 60.1299 12.0398 60.2709 11.5808 60.0022C11.3825 59.8877 11.1976 60.0418 11.0439 60.1718C10.8902 60.3017 10.9281 60.4889 11.0751 60.5022C11.7437 60.6006 12.4254 60.5662 13.0803 60.4008C13.1593 60.359 13.2236 60.2945 13.2649 60.2159C13.3063 60.1374 13.3227 60.0483 13.312 59.9604H13.3254ZM21.373 13.5746C21.9884 13.3921 22.5538 13.0735 23.0262 12.643C23.1398 12.5527 23.3047 12.5152 23.2356 12.3412C23.1665 12.1672 23.0128 12.121 22.8145 12.1849C22.4745 12.2793 22.1636 12.4557 21.9097 12.6983C21.6558 12.9409 21.4667 13.242 21.3596 13.5746H21.373ZM36.9691 30.0753C36.1514 30.0137 34.2955 30.5665 33.9212 31.0092C34.9015 30.6678 36.0155 30.7933 36.9646 30.0753H36.9691ZM17.2534 53.842C16.6674 53.5512 16.0837 53.8904 15.5066 53.8067C15.4086 53.7913 15.3261 53.9234 15.2838 54.038C15.2415 54.1525 15.2838 54.2384 15.3618 54.2384C15.9723 54.2384 16.5961 54.3353 17.1754 54.0666C17.2289 54.0402 17.2311 53.919 17.2534 53.842ZM51.8344 90.3079C51.8053 90.2334 51.7484 90.1727 51.6755 90.1383C51.6026 90.1039 51.5192 90.0984 51.4423 90.1229C50.8853 90.2066 50.4062 90.5766 49.8203 90.5854C49.7824 90.5854 49.7089 90.7219 49.7155 90.788C49.7181 90.816 49.7268 90.8431 49.7412 90.8674C49.7555 90.8916 49.775 90.9125 49.7984 90.9285C49.8218 90.9444 49.8485 90.9551 49.8765 90.9598C49.9045 90.9644 49.9332 90.9629 49.9606 90.9554C50.629 90.8563 51.2195 90.559 51.8344 90.3079ZM7.37212 83.7556C7.6729 82.9407 8.17197 82.1985 8.26332 81.3329C7.95808 82.139 7.3788 82.8548 7.37435 83.7556H7.37212ZM49.6064 57.3769C49.0137 57.4175 48.4552 57.6659 48.0312 58.0773C47.9332 58.1654 47.775 58.2513 47.9176 58.4098C47.9416 58.4365 47.9708 58.458 48.0036 58.4731C48.0363 58.4882 48.0718 58.4965 48.1079 58.4975C48.1439 58.4985 48.1799 58.4923 48.2134 58.4791C48.247 58.4659 48.2775 58.4461 48.303 58.4208C48.6818 58.0156 49.1764 57.7557 49.6064 57.3769ZM20.1966 86.0329C19.6708 86.5175 19.2007 87.4998 19.1917 88.0151C19.751 87.3478 19.8201 87.2333 20.1765 86.0329H20.1966ZM54.1983 80.5665C54.9447 80.6413 55.9072 80.485 56.3461 80.1964C55.5641 80.2823 54.8979 80.192 54.1783 80.5665H54.1983ZM30.5257 57.4804C30.0801 57.7293 29.4584 57.2602 29.0039 57.8372C29.6211 57.9011 30.1669 58.0993 30.5257 57.4804ZM9.1746 82.7931C8.80475 83.3063 8.41931 83.8151 8.45496 84.5C8.83436 83.9989 9.08167 83.4123 9.1746 82.7931ZM31.1517 30.7052C31.5973 30.507 32.2212 30.7977 32.5443 30.2648C32.0942 30.474 31.4748 30.1282 31.1517 30.7052ZM37.9383 28.8177C37.1429 28.8618 37.0783 28.8882 36.2494 29.5401C36.9067 29.3507 37.4682 29.3904 37.9383 28.8177ZM12.1869 84.9229C13.136 84.4824 13.6395 84.1058 13.9693 83.6014C13.2996 83.9324 12.6958 84.38 12.1869 84.9229ZM28.7455 81.921C28.9505 81.4915 29.1599 81.062 29.3626 80.6325C29.402 80.5805 29.4222 80.5167 29.4197 80.4518C29.4173 80.3869 29.3924 80.3247 29.3493 80.2757C28.9126 80.7272 28.5539 81.1919 28.7455 81.921ZM30.0355 67.0346C30.9713 66.4091 31.1762 66.0876 31.0203 65.5083C30.7507 66.0259 30.3185 66.3519 30.0355 67.0346ZM32.2925 65.614C32.8383 65.3696 33.1837 64.9533 33.4555 64.2507C32.8339 64.6648 32.4507 65.0524 32.2925 65.614ZM35.6568 29.5578C34.4425 29.6591 34.4425 29.6591 34.2264 30.0687C34.7611 30.0335 35.1755 29.7141 35.6568 29.5578ZM24.6526 89.2793L23.3158 90.1295L23.4138 90.2771C23.8371 89.9401 24.4521 89.9181 24.6526 89.2793ZM32.1075 53.4918C31.9048 53.4499 31.7555 53.5072 31.7355 53.712C31.7154 53.9168 31.8847 53.908 32.0206 53.9323C32.2434 53.9763 32.4663 54.0688 32.6289 53.8287C32.6494 53.7962 32.6621 53.7594 32.6659 53.7212C32.6698 53.683 32.6647 53.6445 32.6512 53.6085C32.5131 53.4279 32.2791 53.5865 32.112 53.4896L32.1075 53.4918ZM14.6488 78.8067C15.1568 78.5732 15.7628 78.5534 16.2218 77.9786C15.6296 78.0993 15.085 78.386 14.6533 78.8045L14.6488 78.8067ZM33.4488 53.5424C33.226 53.5028 33.0166 53.5248 33.0188 53.7891C33.021 54.0534 33.2416 53.9697 33.3998 53.9961C33.607 54.0292 33.8454 54.0204 33.8654 53.7759C33.9078 53.4631 33.587 53.6239 33.4533 53.5402L33.4488 53.5424ZM49.5418 91.0413C48.9157 90.6581 48.6149 91.2241 48.2049 91.1624C48.0958 91.147 48.0089 91.2924 48.0602 91.4069C48.0739 91.4321 48.0931 91.4539 48.1164 91.4707C48.1397 91.4876 48.1666 91.4991 48.195 91.5044C48.2234 91.5097 48.2526 91.5086 48.2806 91.5013C48.3085 91.4939 48.3345 91.4805 48.3565 91.462C48.6639 91.2615 49.0293 91.1977 49.5418 91.0413ZM31.8246 57.6786C31.7756 57.4826 31.6263 57.5068 31.4904 57.5289C31.3077 57.5597 31.0448 57.4936 31.0069 57.7491C30.9757 57.9143 31.1228 57.9958 31.281 57.9693C31.4926 57.9451 31.7444 57.9605 31.8246 57.683V57.6786ZM35.2557 63.0592C35.2469 63.0035 35.2168 62.9533 35.1716 62.9188C35.1265 62.8844 35.0696 62.8684 35.0129 62.8742C34.77 62.905 34.5673 63.0063 34.6408 63.3147C34.672 63.438 34.672 63.6384 34.8636 63.5768C35.1109 63.5107 35.1733 63.2618 35.2557 63.0702V63.0592ZM17.0996 56.9584L18.071 56.3527C17.4739 56.2602 17.1932 56.4629 17.0996 56.9628V56.9584ZM18.7662 66.2219C19.3098 65.7043 19.3589 65.6118 19.3633 65.1339C19.0948 65.4565 18.892 65.8275 18.7662 66.2263V66.2219ZM39.3954 21.9946C39.7586 22.3205 39.9791 22.2148 40.173 21.8646C40.0436 21.8132 39.9022 21.7985 39.7648 21.8222C39.6274 21.846 39.4995 21.9072 39.3954 21.999V21.9946ZM15.4398 82.7821C16.0146 82.7931 16.2775 82.4584 16.5426 82.1214C16.1572 82.2667 15.6938 82.2667 15.4398 82.7931V82.7821ZM52.6476 87.7971C52.6048 87.7607 52.553 87.736 52.4975 87.7256C52.442 87.7152 52.3846 87.7193 52.3312 87.7376C52.1775 87.7751 51.9792 87.7134 51.899 87.9138C51.8902 87.939 51.8875 87.9658 51.8909 87.9921C51.8944 88.0185 51.904 88.0437 51.9191 88.0658C51.9891 88.1345 52.0803 88.1783 52.1783 88.1903C52.2763 88.2023 52.3756 88.1817 52.4605 88.1319C52.5225 88.1039 52.5744 88.058 52.6094 88.0001C52.6445 87.9423 52.6609 87.8754 52.6565 87.8081L52.6476 87.7971ZM22.2686 87.8632C22.7298 87.5196 22.7365 87.5218 22.6786 87.0064C22.4246 87.2553 22.5427 87.6627 22.2775 87.8742L22.2686 87.8632ZM39.5759 84.8458C39.4551 84.8487 39.3346 84.8583 39.2149 84.8744C39.0211 84.9141 38.9141 85.0044 38.9921 85.229C39.03 85.3281 39.0077 85.4669 39.1592 85.4713C39.4221 85.4713 39.382 85.3083 39.382 85.1255C39.3909 85.055 39.5046 84.9692 39.5803 84.8568L39.5759 84.8458ZM51.5626 88.22C51.5626 87.9997 51.3932 88.0548 51.2662 88.0482C51.1392 88.0416 50.9231 87.8984 50.8808 88.1693C50.8496 88.3675 51.0145 88.3697 51.1526 88.3763C51.2907 88.3829 51.5046 88.4556 51.5715 88.231L51.5626 88.22ZM50.2748 56.2668C50.2216 56.2493 50.1642 56.2484 50.1104 56.2641C50.0566 56.2799 50.009 56.3116 49.974 56.3549C49.8782 56.4519 49.7311 56.5267 49.769 56.6963C49.7776 56.7213 49.7917 56.7441 49.8101 56.7631C49.8286 56.7821 49.8511 56.7969 49.876 56.8064C50.0854 56.8703 50.1923 56.7294 50.277 56.5862C50.3134 56.5406 50.333 56.4842 50.3326 56.4261C50.3322 56.3681 50.3118 56.3119 50.2748 56.2668ZM42.5324 61.7003C42.41 61.6941 42.29 61.7353 42.1977 61.815C42.1054 61.8947 42.0481 62.0068 42.0378 62.1276C42.0378 62.1826 42.1314 62.3038 42.1737 62.2994C42.4812 62.2729 42.6015 62.0791 42.5926 61.7884C42.5815 61.7664 42.5525 61.7487 42.5213 61.7003H42.5324ZM33.6895 62.4271C34.2108 62.5725 34.4358 62.4822 34.5807 62.0615L33.6895 62.4271ZM40.1106 84.9669C40.1418 85.0947 40.1395 85.2709 40.3334 85.2533C40.4782 85.2423 40.5027 85.1123 40.4693 84.9956C40.4359 84.8788 40.5339 84.674 40.2799 84.7137C40.1395 84.7357 40.0994 84.837 40.0994 84.9669H40.1106ZM52.8905 89.9863C52.6298 89.8762 52.3714 89.8123 52.1508 90.0502C52.1352 90.0656 52.1686 90.1713 52.2043 90.1889C52.4538 90.3211 52.6721 90.2 52.8793 89.9863H52.8905ZM52.8905 87.8918C53.2581 87.72 53.5054 87.6936 53.6992 87.4513C53.316 87.3148 53.1355 87.4777 52.8838 87.8918H52.8905ZM15.3507 60.0837C15.2299 60.1423 15.1131 60.2085 15.0009 60.2819C14.8939 60.359 14.709 60.4361 14.8159 60.5991C14.9229 60.762 15.0766 60.6475 15.1835 60.5616C15.2558 60.507 15.3101 60.4325 15.3399 60.3475C15.3696 60.2625 15.3733 60.1708 15.3507 60.0837ZM37.1852 53.3993L36.2494 53.5248C36.5391 53.8354 36.7953 53.7957 37.1807 53.3993H37.1852ZM35.8484 53.745C35.8573 53.7181 35.8598 53.6895 35.8558 53.6615C35.8518 53.6334 35.8413 53.6067 35.8252 53.5833C35.809 53.5599 35.7876 53.5404 35.7627 53.5265C35.7377 53.5125 35.7099 53.5044 35.6813 53.5028C35.5097 53.4587 35.4161 53.549 35.4184 53.712C35.4184 53.8199 35.4563 53.9609 35.5721 53.9807C35.737 54.0093 35.7927 53.8684 35.8484 53.745ZM30.3897 18.1403C30.2854 18.2183 30.1995 18.3178 30.138 18.4319C30.0764 18.546 30.0407 18.6719 30.0333 18.801C30.363 18.6578 30.4454 18.4861 30.3897 18.1403ZM32.6534 57.3791C32.4462 57.3284 32.2657 57.2976 32.1632 57.5289C32.1476 57.5619 32.1833 57.6588 32.2056 57.6632C32.2537 57.6739 32.3035 57.6751 32.3521 57.6667C32.4007 57.6583 32.4472 57.6405 32.4888 57.6143C32.5304 57.5881 32.5664 57.554 32.5946 57.514C32.6229 57.4741 32.6429 57.4289 32.6534 57.3813V57.3791ZM19.9047 75.9699C19.6819 75.992 19.6819 76.1902 19.6373 76.3356C19.6106 76.4457 19.7376 76.4633 19.8111 76.4391C19.8941 76.4233 19.9685 76.3786 20.0208 76.3131C20.0732 76.2476 20.1 76.1657 20.0963 76.0823C20.0919 75.9898 19.9938 75.9699 19.9047 75.9721V75.9699ZM42.0467 22.4945L41.0419 22.6817C41.4786 22.7654 41.7326 22.9702 42.0467 22.4967V22.4945ZM40.6319 55.4035C40.4982 55.3638 40.4403 55.4806 40.3846 55.5643C40.3289 55.648 40.1618 55.8176 40.3334 55.9167C40.5049 56.0158 40.6386 55.8924 40.6921 55.7096C40.7233 55.6061 40.7522 55.4982 40.6319 55.4057V55.4035ZM33.7407 64.6317C34.037 64.4005 34.2041 64.2749 34.2063 63.9996C33.9345 64.1098 33.8855 64.2992 33.7407 64.6339V64.6317ZM26.9252 87.4579C26.9096 87.2553 26.8762 87.0681 26.5999 87.1143C26.5264 87.1254 26.4016 87.198 26.4016 87.2377C26.4016 87.4579 26.6489 87.394 26.7625 87.4976C26.7826 87.5174 26.8606 87.4755 26.9252 87.4579ZM27.0722 87.9909C27.0388 87.8389 26.9096 87.8632 26.8071 87.85C26.7046 87.8367 26.5687 87.8654 26.5375 87.9909C26.5063 88.1164 26.6133 88.2112 26.7358 88.1957C26.8583 88.1803 27.021 88.1517 27.0722 87.9909ZM22.4914 38.9754C22.56 38.9635 22.6243 38.9344 22.6781 38.8908C22.732 38.8472 22.7736 38.7906 22.7989 38.7266C22.8368 38.6164 22.7543 38.5746 22.6652 38.59C22.5956 38.5941 22.5289 38.6187 22.4737 38.6607C22.4185 38.7028 22.3773 38.7602 22.3555 38.8257C22.3288 38.9248 22.3912 38.9732 22.4914 38.9754ZM31.8491 59.8238C32.0942 59.8943 32.2568 59.8943 32.3548 59.7137C32.3682 59.6873 32.3237 59.5947 32.2991 59.5925C32.207 59.5692 32.1094 59.5798 32.0245 59.6224C31.9397 59.6649 31.8734 59.7365 31.838 59.8238H31.8491ZM13.8869 70.6158C14.0089 70.5271 14.1113 70.4148 14.1879 70.2857C14.2645 70.1565 14.3137 70.0133 14.3325 69.8648C14.0963 70.0476 14.0205 70.2458 13.8757 70.6136L13.8869 70.6158ZM14.4193 82.5398C14.1965 82.4297 14.0874 82.2073 13.8623 82.3482C13.8436 82.3571 13.8273 82.3703 13.8147 82.3866C13.8022 82.403 13.7937 82.422 13.79 82.4422C13.7863 82.4624 13.7875 82.4832 13.7935 82.5028C13.7995 82.5225 13.8101 82.5405 13.8245 82.5553C13.9581 82.7028 14.1431 82.7227 14.4037 82.5377L14.4193 82.5398ZM33.5379 32.4254C33.783 32.3857 33.9568 32.498 34.1373 32.2734C33.9167 32.2492 33.7607 32.1038 33.5268 32.4232L33.5379 32.4254ZM6.70151 83.9626C6.54778 84.2423 6.50988 84.4428 6.73491 84.6035C6.79729 84.6498 6.92875 84.6696 6.95771 84.5837C7.00004 84.3657 6.8842 84.1895 6.69036 83.9626H6.70151ZM43.3679 20.0608C43.0426 20.074 42.8711 20.1511 42.7597 20.3515C43.0337 20.5123 43.1719 20.3427 43.3679 20.0608ZM57.2329 80.1414C57.2282 80.1218 57.2196 80.1034 57.2076 80.0872C57.1956 80.071 57.1804 80.0574 57.1629 80.0471C57.1455 80.0368 57.1261 80.0301 57.1059 80.0274C57.0858 80.0247 57.0653 80.026 57.0457 80.0313C56.9388 80.0511 56.8229 80.0885 56.8608 80.2339C56.8898 80.3198 56.9967 80.322 57.0836 80.3066C57.1236 80.3011 57.16 80.2812 57.186 80.2507C57.2119 80.2202 57.2254 80.1812 57.2239 80.1414H57.2329ZM19.878 62.9909C19.8078 63 19.7416 63.0283 19.6868 63.0727C19.6321 63.1171 19.591 63.1757 19.5683 63.242C19.5578 63.2913 19.5674 63.3428 19.595 63.3852C19.7978 63.3962 19.8847 63.2486 19.9582 63.0966C19.9582 63.0702 19.898 63.0284 19.8691 62.9909H19.878ZM57.9169 79.9916C58.0595 79.9674 58.2466 80.1744 58.4026 79.963C58.3236 79.9294 58.2377 79.9145 58.1518 79.9194C58.066 79.9244 57.9825 79.9491 57.908 79.9916H57.9169ZM31.6374 52.6945C31.5305 52.6945 31.4013 52.6813 31.3745 52.8156C31.3478 52.95 31.4815 53.0006 31.5973 52.9984C31.7132 52.9962 31.8201 52.9588 31.8201 52.8134C31.809 52.7187 31.7221 52.6967 31.6374 52.6945ZM24.4811 38.0834C24.4031 38.2288 24.08 38.253 24.2716 38.5724C24.3697 38.4028 24.5925 38.3609 24.4811 38.0834ZM32.3838 32.8747C32.3878 32.8542 32.3869 32.8331 32.3811 32.8131C32.3753 32.7931 32.3648 32.7748 32.3505 32.7595C32.3362 32.7443 32.3184 32.7326 32.2986 32.7254C32.2789 32.7183 32.2577 32.7158 32.2368 32.7183C32.161 32.7183 32.0363 32.7469 32.014 32.7954C31.9627 32.9341 32.0763 32.9826 32.1922 32.9958C32.2128 33.0003 32.2342 33.0008 32.255 32.9972C32.2758 32.9935 32.2957 32.9858 32.3135 32.9746C32.3313 32.9633 32.3467 32.9487 32.3587 32.9316C32.3708 32.9144 32.3793 32.8951 32.3838 32.8747ZM33.3174 29.9916C33.2216 30.0137 33.0946 30.0291 33.1191 30.1789C33.1191 30.2141 33.1948 30.2626 33.2394 30.2692C33.2663 30.276 33.2944 30.2774 33.3219 30.2733C33.3494 30.2693 33.3758 30.2597 33.3995 30.2453C33.4232 30.231 33.4437 30.212 33.4598 30.1896C33.476 30.1672 33.4874 30.1418 33.4934 30.115C33.5134 30.0181 33.4109 30.0027 33.3174 29.9916ZM38.1678 85.8435L38.7003 85.5946C38.6505 85.5639 38.5938 85.546 38.5352 85.5426C38.4767 85.5392 38.4182 85.5504 38.3652 85.5752C38.3121 85.5999 38.2663 85.6375 38.2318 85.6844C38.1973 85.7313 38.1753 85.786 38.1678 85.8435ZM40.9617 21.8382C40.9662 21.8183 40.9665 21.7977 40.9625 21.7777C40.9586 21.7577 40.9505 21.7387 40.9388 21.722C40.9271 21.7052 40.912 21.691 40.8944 21.6803C40.8769 21.6696 40.8573 21.6626 40.8369 21.6598C40.7976 21.6433 40.7536 21.6411 40.7128 21.6536C40.672 21.6661 40.6371 21.6925 40.6141 21.7281C40.6016 21.7433 40.593 21.7614 40.5893 21.7807C40.5855 21.8001 40.5867 21.82 40.5926 21.8388C40.5986 21.8575 40.6092 21.8746 40.6234 21.8883C40.6377 21.902 40.6551 21.9121 40.6743 21.9175C40.7236 21.9417 40.7803 21.9471 40.8334 21.9324C40.8865 21.9178 40.9322 21.8842 40.9617 21.8382ZM30.0734 87.1187C30.0734 87.0042 30.0221 86.9337 29.9352 86.9558C29.8288 86.9787 29.7332 87.0361 29.6634 87.1187C29.6233 87.1826 29.7325 87.2575 29.8194 87.2641C29.8719 87.2702 29.925 87.2594 29.9708 87.2332C30.0166 87.207 30.0526 87.1668 30.0734 87.1187ZM31.428 86.9624C31.3411 86.9624 31.252 86.9888 31.2364 87.0791C31.2208 87.1694 31.3122 87.2134 31.3968 87.2156C31.4815 87.2178 31.5728 87.1958 31.5862 87.1055C31.5996 87.0152 31.5216 86.9646 31.428 86.9624ZM21.1791 75.2784C21.3373 75.3511 21.4398 75.2497 21.5356 75.1616C21.5463 75.1529 21.5539 75.141 21.5574 75.1277C21.5609 75.1145 21.5602 75.1005 21.5553 75.0876C21.5504 75.0748 21.5415 75.0638 21.53 75.0562C21.5185 75.0485 21.5049 75.0446 21.4911 75.0449C21.4205 75.0472 21.3524 75.0708 21.2958 75.1125C21.2392 75.1543 21.197 75.2122 21.1747 75.2784H21.1791ZM15.0588 81.4915C14.836 81.3527 14.6979 81.5796 14.5241 81.6346C14.4461 81.6611 14.4104 81.7558 14.5241 81.8549C14.6979 81.7514 14.9318 81.7139 15.0543 81.4915H15.0588ZM45.9859 60.0661C46.0505 60.0347 46.1105 59.9947 46.1641 59.9471C46.2064 59.8987 46.251 59.7908 46.124 59.7952C46.0594 59.7952 45.9925 59.8767 45.9368 59.9317C45.8811 59.9868 45.9034 60.0264 45.9814 60.0661H45.9859ZM4.62052 83.1918C4.64058 83.1918 4.66731 83.1918 4.67845 83.1786C4.7436 83.1245 4.79609 83.0572 4.83226 82.9811C4.86842 82.9051 4.88741 82.8221 4.8879 82.7381C4.8879 82.716 4.85446 82.672 4.8411 82.6742C4.67622 82.6962 4.65841 82.8482 4.59825 82.9605C4.57051 82.9952 4.55695 83.0388 4.56025 83.0829C4.56356 83.1269 4.58347 83.1682 4.61606 83.1984L4.62052 83.1918ZM33.6404 63.8212C33.6672 63.7618 33.6404 63.7089 33.5758 63.7045C33.52 63.7044 33.4652 63.7193 33.4173 63.7476C33.3695 63.776 33.3303 63.8166 33.304 63.8653C33.2914 63.8806 33.284 63.8994 33.2828 63.9191C33.2815 63.9387 33.2866 63.9583 33.2971 63.975C33.3076 63.9918 33.3232 64.0048 33.3416 64.0124C33.36 64.02 33.3804 64.0217 33.3998 64.0173C33.4536 64.012 33.5046 63.9912 33.5466 63.9576C33.5886 63.9239 33.6197 63.8788 33.636 63.8279L33.6404 63.8212ZM33.3129 31.1039C33.3374 31.04 33.3129 30.9827 33.2483 30.9827C33.1705 30.9878 33.0946 31.0088 33.0255 31.0444C33.0077 31.0444 33.0032 31.1567 33.0255 31.1634C33.0727 31.183 33.1247 31.1884 33.175 31.179C33.2253 31.1696 33.2717 31.1458 33.3084 31.1105L33.3129 31.1039ZM16.1015 67.3562L16.0391 67.213C15.9665 67.2934 15.8988 67.378 15.8364 67.4663C15.8007 67.5214 15.8363 67.605 15.8965 67.5918C15.9486 67.5767 15.9953 67.5471 16.0309 67.5065C16.0664 67.4658 16.0894 67.416 16.097 67.3628L16.1015 67.3562ZM34.8747 53.6878C34.9059 53.6371 34.8747 53.5821 34.8101 53.5777C34.7539 53.566 34.6955 53.5708 34.6421 53.5915C34.5886 53.6123 34.5425 53.648 34.5093 53.6944C34.4976 53.7115 34.4909 53.7316 34.4901 53.7523C34.4893 53.773 34.4945 53.7935 34.5049 53.8114C34.5154 53.8293 34.5308 53.844 34.5493 53.8537C34.5678 53.8634 34.5887 53.8677 34.6096 53.8662C34.7344 53.8838 34.8034 53.7869 34.8703 53.6944L34.8747 53.6878ZM11.612 88.8851C11.5987 88.8212 11.5563 88.797 11.4962 88.8322C11.436 88.8675 11.3202 88.9468 11.2333 89.0062C11.2778 89.0239 11.3224 89.0613 11.3647 89.0591C11.4183 89.0558 11.4698 89.0378 11.5135 89.007C11.5572 88.9763 11.5913 88.934 11.612 88.8851ZM24.3385 88.101C24.2226 88.1275 24.1535 88.2001 24.1691 88.2794C24.1794 88.3177 24.1987 88.353 24.2254 88.3824C24.2521 88.4119 24.2855 88.4347 24.3229 88.449C24.4164 88.471 24.4788 88.3829 24.4565 88.2904C24.4272 88.2217 24.3873 88.1579 24.3385 88.101ZM35.7192 25.9546C35.7611 25.9517 35.8009 25.9349 35.832 25.9069C35.8631 25.8789 35.8838 25.8414 35.8907 25.8004C35.8907 25.7718 35.8328 25.7057 35.7971 25.7035C35.7764 25.7007 35.7553 25.7022 35.7352 25.7081C35.7152 25.714 35.6966 25.7241 35.6808 25.7376C35.665 25.7512 35.6523 25.7679 35.6435 25.7867C35.6348 25.8055 35.6302 25.8259 35.63 25.8466C35.6278 25.8819 35.688 25.9193 35.7192 25.9546ZM54.7308 87.4645C54.7731 87.4029 54.8355 87.3456 54.8444 87.2795C54.8534 87.2134 54.7887 87.1364 54.6974 87.176C54.606 87.2157 54.5637 87.2707 54.5994 87.3566C54.6261 87.3962 54.684 87.4205 54.7308 87.4645ZM36.0155 85.2334C35.8573 85.2202 35.7259 85.0573 35.5833 85.2334C35.737 85.3854 35.8751 85.2819 36.0333 85.2334H36.0155ZM39.6873 22.9548C39.7987 22.9174 39.91 22.8689 39.9323 22.75C39.9323 22.7346 39.8455 22.6685 39.812 22.6773C39.685 22.7059 39.538 22.7346 39.5424 22.9108C39.5625 22.9262 39.6561 22.9394 39.7051 22.9548H39.6873ZM38.8451 22.1047C38.8376 22.0835 38.8253 22.0643 38.8089 22.0487C38.7926 22.0331 38.7728 22.0215 38.7511 22.0149C38.7294 22.0082 38.7065 22.0067 38.6841 22.0104C38.6617 22.0142 38.6405 22.0231 38.6223 22.0364C38.6017 22.0524 38.5857 22.0734 38.576 22.0973C38.5662 22.1213 38.5629 22.1474 38.5666 22.173C38.5744 22.1939 38.5873 22.2127 38.604 22.2277C38.6208 22.2426 38.641 22.2534 38.6629 22.259C38.6847 22.2646 38.7077 22.265 38.7297 22.2599C38.7517 22.2549 38.7722 22.2447 38.7894 22.2302C38.8205 22.206 38.8272 22.1355 38.8451 22.1047ZM36.7775 59.0155C36.8577 58.9957 36.9535 58.9781 36.9245 58.8657C36.9245 58.8305 36.8354 58.7798 36.8042 58.7909C36.7329 58.8129 36.6282 58.8613 36.617 58.9142C36.5925 59.0133 36.704 59.0001 36.7775 59.0089V59.0155Z" fill="currentColor"/>
<path opacity="0.5" d="M42.0239 68C42.2715 67.3535 42.8449 67.0025 43.3271 66.5959C44.9083 65.2629 46.4721 63.9143 48.1554 62.7213C48.4939 62.4665 48.816 62.1897 49.1197 61.8926C49.3065 61.7237 49.5194 61.5482 49.4846 61.2527C49.4499 60.9572 49.6019 60.9728 49.78 61.0417C49.9581 61.1105 50.0775 61.2638 49.9407 61.4349C49.6714 61.7926 49.4694 62.2014 49.0719 62.468C46.9499 63.9188 44.9973 65.6028 42.9709 67.1869C42.6407 67.4446 42.4344 67.8534 42 67.98L42.0239 68Z" fill="currentColor"/>
<path opacity="0.5" d="M40.2436 39.7762L40.5684 39.6512C40.7579 39.485 41.194 39.3875 41.2932 39.195L41.2601 39.2137C41.612 39.2137 41.7053 39.05 42 39.0125L41.9759 39C41.5428 39.41 40.9654 39.7725 40 40L40.2436 39.7762Z" fill="currentColor"/>
<path opacity="0.5" d="M47 47C47.2455 46.6376 47.3772 46.4228 47.5312 46.2259C47.6249 46.1029 47.7543 45.9015 47.9239 46.0559C48.0935 46.2103 47.9463 46.3557 47.8057 46.4586C47.6003 46.604 47.3883 46.7405 47 47Z" fill="currentColor"/>
</g>
<defs>
<filter id="filter0_d_24_7" x="0" y="0" width="68" height="108" filterUnits="userSpaceOnUse" color-interpolation-filters="sRGB">
<feFlood flood-opacity="0" result="BackgroundImageFix"/>
<feColorMatrix in="SourceAlpha" type="matrix" values="0 0 0 0 0 0 0 0 0 0 0 0 0 0 0 0 0 0 127 0" result="hardAlpha"/>
<feOffset dx="3" dy="3"/>
<feGaussianBlur stdDeviation="2"/>
<feComposite in2="hardAlpha" operator="out"/>
<feColorMatrix type="matrix" values="0 0 0 0 0 0 0 0 0 0 0 0 0 0 0 0 0 0 0.25 0"/>
<feBlend mode="normal" in2="BackgroundImageFix" result="effect1_dropShadow_24_7"/>
<feBlend mode="normal" in="SourceGraphic" in2="effect1_dropShadow_24_7" result="shape"/>
</filter>
</defs>
</svg>
